<svg xmlns="http://www.w3.org/2000/svg" viewBox="0 0 817 816"><g fill="none" stroke-width="2"><path stroke="#406685" d="m338.8 96.8 8.2 8.19M474.42 70.72q-.73 1.82-.02 3.53M604.01 33.62l13.25-.11M541.79 232.44q-.08-.09-.24-.09-.18 0-.26.17-.4.88.49 1.51.25.17.47-.01M427.59 313.48q.7-2.87-1.21-2.36M390.52 313.01q.3-1.9-1.1-2.19M172.38 67.8q.71-3.42-.03-6.84" vector-effect="non-scaling-stroke"/><path stroke="#4ad3fa" d="M666.74 300.83q1 2.91 1.71 5.59.79 3.02.81 6.12.06 10.48-.08 20.87a1.65 1.65 0 0 0 2.63 1.35q1.15-.85 1.19-2.01" vector-effect="non-scaling-stroke"/><path stroke="#79d2f4" d="M630.67 333.11q.77 1.91 2.95 1.63.5-.06.51-.57l.59-30.8" vector-effect="non-scaling-stroke"/><path stroke="#4ad3fa" d="M210.96 338.19q1.52 5.09 1.18 7.31-.35 2.26-.79 4.5-.69 3.53-5.67 7.96M145.25 350.79q.24.11.42.09.44-.03.4-.47l-.22-2.13a.49.49 0 0 0-.69-.4l-2.2 1.02q-.44.21-.31.67.08.28.35.32" vector-effect="non-scaling-stroke"/><path stroke="#406685" d="M749.25 456.67q-12.05-.18-24-.09-61.43.44-114.25.18-7.1-.04-11.92-.34c-1.79-.12-3.53.1-5.33.13q-28.66.4-57.29-.41M750.64 456.84q2.81 1.08 5.47.82M779.45 487.79q.21 8.98.01 17.98-.27 12.62-.25 17.96.42 82.64-.21 161.76c-.07 8.33.39 18.63.22 28.01q-.01.72.44.73M779.4 717.43q-.9 2.14-1.5 4.33-.64 2.33-1.68 4.15c-1.41 2.48-2.2 5.01-4.18 7.16q-4.57 4.96-9.96 8.89M511.35 728.83q-3.84-7.77-3.71-13.83.34-16.59-.07-42-.34-20.64-.17-67.08c.01-1.12.32-2.42.31-3.66q-.21-25.32-.2-52.5c0-18.7.64-37.67-.32-56.13-.11-2.12.1-4.32.13-6.45q.02-2.02.98-4.68.99-2.73 1.65-5.54M510.97 474.68q2.89-3.5 5.32-7.17 1.18-1.79 2.9-3.11 6.66-5.13 14.63-7.5M226.72 493.23q2.55 3.63 6.64 6.05M267.16 531.37q2.97 4.92 7.91 7.79M302.15 564.5q2.58 3.17 5.33 6.02.47.49 1.14.58M309.16 572.78q-.49.16-.54.59-.84 8.66.52 18.62M309.03 620.25q-1.13 26.87-.77 53.76.1 7.78-.01 19.99-.1 11.09.29 22.39" vector-effect="non-scaling-stroke"/><path stroke="#3f8cad" d="M595.7 118.93c4.1-6.58 6.04-14.33 10.65-20.61q4.48-6.08 9.01-14.96 3.32-6.53 3.61-10.31.48-6.54-.63-11.97c-.92-4.46-6.65-6.88-10.58-7.3-4.26-.47-8.37-.33-12.61.71-3.37.83-6.8 1.61-10.08 2.87q-6.44 2.46-13.32 4.76-5.47 1.83-12.57 4.97-8.98 3.97-17.42 8.07-9.25 4.5-23.43 14.06-7.2 4.85-11.96 9.24c-2.5 2.3-5.41 3.72-7.84 6.14q-14.43 14.36-28.03 27.99c-3.17 3.18-5.34 6.76-8.22 10.16q-3.18 3.77-5.98 7.98-7.13 10.75-12.41 21.11c-1.83 3.59-2.75 7.51-4.55 11.14-1.65 3.33-2.32 6.87-4.08 10.16-1.99 3.73-1.82 8.85-1.73 12.95a.93.93 0 0 0 .91.92q4.59.1 10.34-.6 3.55-.43 6.99-2.18 7.76-3.95 14.88-7.46 3.34-1.66 6.11-4.52 4.09-4.24 8.13-8.2 1.89-1.86 3.05-4.02c1.72-3.19 4.67-5.14 6.44-8.34q1.46-2.66 3.92-5.14 4.78-4.83 10.06-9.94 1.66-1.61 4.58-3.3c2.79-1.6 4.59-4.12 7.58-5.53q3.4-1.6 6.37-3.76 2.62-1.91 5.55-2.88 4.57-1.52 8.97-3.76c4.16-2.11 8.68-3.48 13.01-5.27 3.8-1.58 8.28-.9 12.28-2.09q3.12-.93 6.2-.98 7.8-.12 15.87-.04 3.18.04 5.84-.94.49-.18.72-.63c1.51-2.93 2.47-5.46 4.37-8.5M257.26 66.69c-2.61-.95-5.11-2.33-7.75-3.2q-9.35-3.11-19.5-6.73-2.11-.76-7.8-2.04c-4.44-1-9.33-1.2-13.74-.61q-6.84.93-10.33 6.07c-3.18 4.69-3.14 12.38-.96 17.43 2.75 6.36 6.14 12.55 9.98 18.28 6.85 10.22 12.04 21.4 17.19 32.59a1.47 1.46-5.7 0 0 1.02.83c1.47.33 3.01.69 4.52.7q8.3.05 16.86-.03c4.5-.05 8.7.68 13.1 1q4.36.31 8.68 1.58 14.4 4.25 25.72 10.13 2.38 1.23 4.33 2.66c2.72 1.98 5.63 3.67 8.18 5.9 2.93 2.55 6.19 4.28 9.07 7.01 5.04 4.78 10.22 9.62 13.88 15.89q2 3.44 5.02 6.76 5.78 6.35 12.06 12.32c3.86 3.67 8.9 6.48 13.72 8.25q3.12 1.15 6.11 2.49c5.05 2.27 10 2.59 15.38 2.49q.52-.01.5-.53c-.15-4.19-.21-9.33-2.66-12.87q-2.9-4.17-3.86-9.26-.38-2-1.51-3.92-2.51-4.26-4.28-9.38c-1.33-3.87-4.5-6.78-6.41-10.26-2.52-4.58-5.87-8.41-8.11-13.06-1.58-3.31-4.11-5.88-6.2-8.88q-2.26-3.24-5.21-6.21-9.76-9.82-20.4-20.53c-3.18-3.2-6.76-6.43-10.31-8.96q-8.45-5.99-17.38-13.16-5.32-4.27-11.35-7.96-8.07-4.93-15.18-9.14-5.02-2.97-12.38-5.65" vector-effect="non-scaling-stroke"/><path stroke="#0f77aa" d="M354.34 207.81q-16.63-11.28-29.16-27.76-4.49-5.91-7.86-9.31-4.24-4.29-9.18-9.06c-2.25-2.17-4.93-3.39-7.15-5.39q-2.48-2.22-5.35-3.86-7.88-4.5-14.43-7.24-6.4-2.69-17.98-5.7c-9.05-2.35-16.99-2.67-26.36-2.5q-3.7.07-7.09.58a1 1 0 0 0-.82 1.24q3.01 11.48 4.67 22.87.7 4.83 2.22 9.68 1.72 5.52 3.67 9.76 4 8.73 14.32 18.81c3.58 3.5 8.18 5.1 12.35 7.74 4.33 2.75 9.42 2.9 14 4.95q2.68 1.21 5.24 1.3 7.69.29 16.15.22c5.04-.03 9.46-1.71 14.4-2.42 2.96-.42 5.76-1.57 8.76-1.59q9.64-.06 19.82-.06c3.7 0 6.98-1.32 10.59-1.35q1.07-.01.08-.43-.48-.2-.89-.48M478.52 195.52q-5.26 5.38-8.84 7.54-4.19 2.53-8.09 5.1-.49.33.06.56 3.17 1.35 6.3 1.35 9.25 0 18.73-.01c5.46 0 10.4 1.99 15.81 2.11 3.38.07 6.33 1.59 9.72 1.81q14.62.94 27.66-1.61 10.47-2.05 18.76-9.14 4.65-3.99 11.12-10.76c5.59-5.85 7.7-12.16 10.7-19.47q1.11-2.7 1.46-5.19c.54-3.76.3-7.67 1.23-11.37 1.09-4.37 2.96-8.65 3.47-13.17q.3-2.78.72-5.42a.6.6 0 0 0-.57-.69q-13.69-.61-28.61.72-3.43.3-7.32 1.67-7.14 2.52-12.35 4.53-6.03 2.32-17.39 8.5-2.33 1.26-8.87 5.86-4.58 3.21-8.21 6.94-2.55 2.62-4.63 5.7-2.25 3.33-5.09 6.21c-1.91 1.95-3.05 4.59-4.84 6.66q-3.16 3.65-10.93 11.57" vector-effect="non-scaling-stroke"/><path stroke="#8097ae" d="M416.27 265.27q.19-.9.23-1.63.63-11.42.56-24.55c-.05-10.81.27-22.05.04-33.33q-.24-11.91-.11-22.99.05-4.96-4.57-8.35c-1.61-1.18-3.61-2.18-5.62-1.52q-5.18 1.71-6.89 5.99-.91 2.26-.89 7.57.11 27.32-.16 55.55-.06 5.9.73 13.17c.9 8.31 1.31 16.34 1.5 24.46q.13 5.36 1.33 11.66 1.57 8.23 3.65 15.38.65 2.24 2.17 4.44.65.95 1.1-.11 2.21-5.19 3.15-10.66c.77-4.48 2.16-8.87 2.33-13.35q.28-7.24.58-14.54.16-3.78.87-7.19" vector-effect="non-scaling-stroke"/><path stroke="#0f77aa" d="M358.12 253.64q5.66-3.84 9.46-9.43" vector-effect="non-scaling-stroke"/><path stroke="#3f8cad" d="M367.58 244.21q2.4-1.95 4.32-4.51c3.07-4.09 4.8-6.13 7.31-9.2 1.31-1.6 1.96-3.29 2.64-5.18a.33.33 0 0 0-.29-.44q-6.56-.6-12.34.5c-7.41 1.41-15.27 1.29-22.85 1.33-5.48.03-10.43 1.66-15.88 2-3.9.23-7.45 1.41-11.25 2.04q-3.79.63-7.92 2.55-8.26 3.85-14.98 7.6-2.34 1.31-4.43 3.22c-6.49 5.93-12.41 11.93-16.09 19.66a1.34 1.34 0 0 0 .39 1.64q1.28.98 3.02 1.83c6.71 3.27 14.62 5.88 22.41 5.98q8.2.11 16.1-.13 2.58-.08 4.92-.67c3.91-.98 7.77-1.8 11.44-3.35q4.06-1.73 8.02-3.21c1.32-.5 3.98-2.09 4.95-3.01q5.41-5.13 11.05-9.22" vector-effect="non-scaling-stroke"/><path stroke="#4ad3fa" d="m367.58 244.21-9.46 9.43" vector-effect="non-scaling-stroke"/><path stroke="#3f8cad" d="M435.92 226.44q.28 1.95 1.38 3.05 4.2 4.19 7.01 8.01 3.4 4.6 6.87 8.02 4.7 4.62 9.33 9.37 5.2 5.33 9.28 7.94c6.67 4.24 14.03 6.86 21.46 9.63q1.67.62 3.27.68 9.54.36 19.84.2c9.5-.15 17.87-3.63 25.82-8.46a.65.64 58.8 0 0 .21-.88q-6.43-10.45-15.7-18.66-4.41-3.91-12.37-8.08c-4.46-2.34-9.34-2.45-13.69-4.84q-2-1.1-4.33-1.32-4.1-.38-8.25-1.33c-4.29-.99-8.47-1.16-12.82-1.3-4.02-.12-7.78-1.64-11.93-1.77q-6.36-.18-12.36-.51c-3.89-.22-8.1-2.05-11.94-1.29q-1.27.25-1.08 1.54" vector-effect="non-scaling-stroke"/><path stroke="#0f77aa" d="M453.41 327.48q1.46 3.51 4.04 6.41c8.49 9.55 17.47 19.41 30.61 19.89q1.02.03 1.12-.98c.55-5.29 2.44-10.17 2.58-15.56.22-8.37.29-15.64-1.99-23.93q-2.23-8.06-3.95-12-2.28-5.24-8.42-14.97-1.6-2.53-3.18-4.55c-2.77-3.52-5.15-7.18-8.35-10.35q-12.87-12.73-24.93-25.06-3.33-3.41-7.24-6.86-.42-.37-.4.19.66 15.65 1.51 30.84.22 3.85 1.67 8.74 1.24 4.21 1.95 9.03c.96 6.51 3.35 12.66 5.38 18.75q1.56 4.71 3.74 8.51 3.33 5.84 5.86 11.9M381.97 241.65q-2.37.46-4.2 2.32-11.44 11.66-23.57 23.65c-2.32 2.3-3.8 5.18-6.06 7.57-4.08 4.32-7.59 9.49-11.04 14.1q-1.53 2.04-6.75 13.26-.85 1.83-1.3 3.96c-.68 3.21-1.3 6.25-2.56 9.34q-1.2 2.92-1.47 5.6-.86 8.47-.4 18.38c.21 4.43 1.68 8.64 2.34 13.01a1.09 1.09 0 0 0 1.04.92q11.65.3 20.89-8.11 6.6-5.99 8.21-8.31 12-17.26 18.74-36.27 2.44-6.91 3.39-13.6 1.16-8.22 2.4-16.21c.34-2.23.31-4.45.67-6.68q1.76-11.06.9-22a1.04 1.03-7.7 0 0-1.23-.93" vector-effect="non-scaling-stroke"/><path stroke="#406685" d="M519.01 349.01q3.01-.93 4.5-3.11" vector-effect="non-scaling-stroke"/><path stroke="#8097ae" d="M523.51 345.9q.23-.63 1.35-.86" vector-effect="non-scaling-stroke"/><path stroke="#406685" d="M524.86 345.04q1.17-.9 2.51-1.44 1.73-.7 2.51-1.33 4.58-3.74 6.59-8.52" vector-effect="non-scaling-stroke"/><path stroke="#8097ae" d="M536.47 333.75q7.93-10.1 11.04-22.27 1.48-5.79 1.42-12.28-.07-6.84-.07-12.93c-.01-4.78-2.4-8.07-3.49-12.47a1.57 1.57 0 0 0-2.3-.99q-7.62 4.35-16.07 6.99-4.19 1.31-9.49 1.39-12.44.19-24.5-.29-3.87-.16-10.37-2.53-.81-.3-.35.43c8.93 14.04 15.73 26.45 17.79 42.45q1.26 9.87.77 19.62c-.24 4.69-1.19 8.93-2.11 13.39q-.1.52.43.59c6.15.79 14.96-2.9 19.84-5.84" vector-effect="non-scaling-stroke"/><path stroke="#bdccd6" d="M536.47 333.75q-6.29 5.08-11.61 11.29M523.51 345.9q-2.42.48-4.5 3.11" vector-effect="non-scaling-stroke"/><path stroke="#8097ae" d="M270.13 276.02q-2.57 4.22-2.82 7.73-.41 5.8-.21 16.38.09 4.73 1.25 8.38c2.72 8.58 5.49 17.84 11.95 24.45q4.4 4.49 8.29 8.43.67.68 1.18 1.56c.91 1.53 2.38 2.1 3.62 3.15q4.86 4.1 10.61 5.75 5.87 1.67 12.51 3.07 2.15.46 1.58-1.67c-.71-2.7-1.1-5.26-1.14-8.05q-.2-14.22.13-23.95.16-4.89 1.94-9.27c1.37-3.37 1.8-7.2 3.16-10.39q3.18-7.44 7.37-14.73 1.27-2.2 4.24-5.1c.59-.58.89-1.48.86-2.27" vector-effect="non-scaling-stroke"/><path stroke="#8097ae" d="M333.21 278.37q-.31-.28-.63-.35-.27-.06-.62.17-4.19 2.64-9.21 2.81-11.32.37-23.26.18c-4.83-.08-9.65-1.48-14.39-2.5q-3.9-.83-9.42-4.39-1.28-.83-2.85-.79-.51.01-.8.44-.5.74-1.33 1.11" vector-effect="non-scaling-stroke"/><path stroke="#406685" d="M270.7 275.05q.23-.75.97-1.37.19-.16.02-.34l-.29-.31a.25.25 0 0 0-.36-.02q-1.48 1.36-.91 3.01" vector-effect="non-scaling-stroke"/><path stroke="#bdccd6" d="M270.7 275.05q.35.39-.57.97" vector-effect="non-scaling-stroke"/><path stroke="#748f9f" stroke-opacity=".788" d="m96.22 250.3 1.15 1.99a.53.53 0 0 0 .73.19l.18-.11a2.34 1.54-30.1 0 0 1.25-2.5l-.14-.24a2.34 1.54-30.1 0 0-2.79-.16l-.19.1a.53.53 0 0 0-.19.73" vector-effect="non-scaling-stroke"/><path stroke="#406685" d="M746.01 474.45q-2.26-.93-5-.95-61.6-.34-133.83-.17-3.41.01-7.35.09c-6.1.13-12.22-.12-18.34-.07q-17.17.14-33.63.05-6.66-.04-9.83 1.3-6.53 2.74-9.67 9.34c-1.67 3.51-1.53 8.1-1.53 11.92q0 13.58.17 26.53.03 2.27.43 4.46a1.06 1.05.4 0 0 .83.84q3.06.6 5.8.62 73.11.48 191.94.49 14.29 0 32.41-.19a.68.67 88.7 0 0 .66-.7q-.38-10.78.21-21.55.2-3.68-.02-6.51-.25-3.28-.17-6.43c.21-9.12-4.41-15.48-13.08-19.07" vector-effect="non-scaling-stroke"/><path stroke="#6e8ba7" d="M527.02 650.18q.01 27.93.03 55.8c.01 11.59 5.78 19.96 18.4 19.94q95.16-.2 193.33.05 6.94.02 10.15-1.35 6.87-2.91 9.6-9.38 1.29-3.06 1.29-10.1-.02-31.34.02-62.69" vector-effect="non-scaling-stroke"/><path stroke="#8197a9" d="m759.84 642.45.11-95.76a.68.68 0 0 0-.68-.68l-231.68.03a.54.53-90 0 0-.53.54l-.04 103.6" vector-effect="non-scaling-stroke"/><path stroke="#ebf2f3" d="M759.84 642.45q-.33 1.81-1.77 2.33-.57.21-.87.74-.95 1.69-2.87 2.7-1.77.94-3.13 2.57-1.74 2.1-3.87 3.32-5.35 3.07-10.98 6.19-.97.53-1.9 1.19c-1.54 1.08-3.24 1.57-4.83 2.68q-3.25 2.28-6.91 3.67-.24.1-.27.36-.04.32-.32.45-3.68 1.64-6.75 4.04-1.48 1.16-3.32 1.9-1.19.48-2.7.47-1.1-.01-2.2.22-1.07.23-2.26.18-4.19-.19-8.04.52c-1.71.31-3.32-.06-5.01-.13q-.42-.02-.74-.29-.33-.28-.79-.3-3.35-.14-5.23.6-3.22 1.26-7.44 1.86" vector-effect="non-scaling-stroke"/><path stroke="#8197a9" d="M677.64 677.72q-53.23.07-106.64.13-1.17 0-3.46 1.21" vector-effect="non-scaling-stroke"/><path stroke="#ebf2f3" d="M567.54 679.06q-1.14-.18-1.84.73-.05.07-.06-.02-.02-.15-.15-.27-.23-.19-.38.07-.54.93-1.55 1.39-.58.26-.69-.36-.49-2.56.04-5.1a1.9 1.87 42.5 0 0-.05-.99q-.16-.5-.22-1.02-.05-.54-.38-.98-1.61-2.17-3.08-4.26c-1.17-1.66-3.42-2.3-5.15-3.33-.81-.49-1.76-.42-2.5-1.11q-.74-.7-1.64-1.1-2.37-1.03-4.82-1.5c-1.83-.36-3.54-1.2-4.91-2.46q-2.46-2.28-5.14-4.05-.13-.08-3.29-2.49-2.03-1.55-4.71-2.03" vector-effect="non-scaling-stroke"/><path stroke="#6e8ba7" d="M567.54 679.06c-4.58 3.16-5.43 9.6-.64 12.94 2.25 1.56 6.31 1.19 9.1 1.19q68.68-.02 135.63-.21a1.31 1.31 0 0 1 1.09.58q3.91 5.79 11.24 5.59c11.48-.32 17.49-13.37 9.45-22.06-4.45-4.81-11.23-5.61-16.72-2.68-1.39.74-2.47 2.07-3.76 2.98q-.44.31-.98.31l-34.31.02" vector-effect="non-scaling-stroke"/><path stroke="#406685" d="M581.119 507.66a10.47 10.47 0 0 0-1.11-14.764l-2.23-1.918a10.47 10.47 0 0 0-14.764 1.11l-2.074 2.411a10.47 10.47 0 0 0 1.11 14.765l2.23 1.918a10.47 10.47 0 0 0 14.764-1.11l2.074-2.411M627.096 507.542a10.24 10.24 0 0 0-1.312-14.422l-2.581-2.151a10.24 10.24 0 0 0-14.422 1.312l-1.997 2.397a10.24 10.24 0 0 0 1.312 14.422l2.581 2.151a10.24 10.24 0 0 0 14.422-1.312l1.997-2.397M673.082 507.58a10.23 10.23 0 0 0-1.236-14.414l-2.57-2.164a10.23 10.23 0 0 0-14.415 1.236l-2.023 2.401a10.23 10.23 0 0 0 1.236 14.415l2.57 2.164a10.23 10.23 0 0 0 14.415-1.236l2.023-2.401" vector-effect="non-scaling-stroke"/><path stroke="#6e8ba7" d="M62.31 662q-.25 36.1.28 46.74.56 11.32 10.75 15.91 2.84 1.28 5.19 1.28 113.01-.14 189.47-.05c3.06.01 6.16.21 9.04-.82q7.28-2.6 10.32-9.5 1.4-3.19 1.47-12.91.23-36.79.13-73.16" vector-effect="non-scaling-stroke"/><path stroke="#8197a9" d="m288.96 629.49-.09-34.8" vector-effect="non-scaling-stroke"/><path stroke="#6e8ba7" d="m288.87 594.69-.27-10.92q-.01-.52-.53-.52-14.18 0-31.08.1-14.01.09-17.98-.38-8.96-1.06-16.88-7.35-6.01-4.78-8.85-12.7" vector-effect="non-scaling-stroke"/><path stroke="#8197a9" d="M213.28 562.92q-.05-1.45-.28-3.13-.24-1.73-.28-3.36-.6-23.35-.45-46.68 0-.54-.53-.54-63 .1-127.33.01-7.09-.01-10.38 1.24-6.9 2.63-9.93 9.68c-1.57 3.66-1.74 9.28-1.75 13.36q-.11 30.5-.04 128.5" vector-effect="non-scaling-stroke"/><path stroke="#ebf2f3" d="M213.28 562.92q-.18 5.92 1.62 11.8 1.79 5.84 5.64 10.23 8.65 9.9 22.47 10.33 16.45.52 45.86-.59M288.96 629.49q-3.34 2.12-7.06 3.72c-1.99.86-3.85 2.2-5.92 3.09q-.11.05-.18.13-.08.11-.13.23-.12.34-.47.41-2.05.45-3.69 1.94-1.28 1.15-3.02 2.02-4.58 2.3-8.9 3.94-2.28.87-5 1.07-2.35.18-4.88 1.17-5.11 2-9.25 3.77-1.16.49-2.24.61-1 .11-1.9.46-.44.17-.89.01-.68-.25-1.22.26-.38.34-.87.46-3.3.8-6.47 2.68-1.21.71-2.65 1.11-1.64.46-3.26 1.17-.39.18-.82.16-.5-.02-.94.21l-3.53 1.79q-.42.21-.9.2-2.24-.03-3.91 1.48a1.26 1.23 23.2 0 1-.8.31l-2.73.02q-.77.01-.05.27l.66.24q.88.31-.05.39-3.06.24-6.39.99-.68.15-1.38.04-.56-.1-1.13.02-8.62 1.73-17.5 3-5.33.77-10.33 1.79-3.2.64-6.39.97-4.91.51-6.52.36-1.72-.16-1.36-1.94.12-.63-.47-.38-.19.08-.15.32a.39.38 9.7 0 1-.56.39q-.68-.34-.55-.92" vector-effect="non-scaling-stroke"/><path stroke="#8197a9" d="M155.16 667.45q15.34-7.75 20.57-24.54a1.1 1.1 0 0 1 1.51-.67q16.45 7.64 30.75 14.9 2.68 1.37 5.79-.15 22.34-10.86 46.22-23.48 1.06-.56 1.77-1.53.78-1.09-.41-1.7-9.81-5-20.35-10.83-13.96-7.73-29.14-15.36a.84.82 44.2 0 0-.75 0l-33.13 16.69a.97.96-20.3 0 1-1.37-.63c-3.54-14.44-15.17-27.36-30.45-29.75q-.96-.15-1-1.12-.12-3.03-.03-6.09c.18-5.69-5.37-11.42-11.23-10.02-3.85.92-6.9 4.18-7.33 8.27q-.42 4.01-.36 8.07a1.11 1.11 0 0 1-1 1.13q-6.63.68-12.82 4.68-13.71 8.87-16.25 25.33a1 .99 7.8 0 1-1.1.83c-5.17-.6-10.64-1.2-14.53 3.09-3.71 4.11-2.07 10.97 2.47 13.61q4.83 2.82 10.68 1.1a1.54 1.53-15.1 0 1 1.93 1.11c3.55 14.75 14.75 27.01 29.7 29.87q.51.1.57.62l1.35 12.99" vector-effect="non-scaling-stroke"/><path stroke="#ebf2f3" d="M127.22 683.87q-.47.42-1.88.63-.87.12-1.89-.22-2.17-.73-4.44-1.38-2.41-.69-5.71-1.94-2.93-1.12-5.71-1.79-4.13-1.01-8.01-1.91-2.48-.58-5.03-1.71-.09-.04-.12-.14-.05-.17-.16-.32-.18-.24-.46-.34-3.67-1.31-6.76-2.63a1.56 1.07-18.6 0 0-.35-.1q-.24-.04-.26.22-.03.44-.45.31l-13.53-4.27q-.31-.1-.42-.41-.07-.21-.28-.26c-2.14-.48-3.5-1.83-5.38-2.75q-1.42-.69-2.76-1.48-.2-.11-.42-.09-.31.03-.3-.29.05-.8-.59-1" vector-effect="non-scaling-stroke"/><path stroke="#6e8ba7" d="m155.16 667.45-9.45 2.79q-.51.15-.53.68-.19 4.29-.15 9c.04 5.11-3.37 9.41-8.69 9.59q-5.62.19-9.12-5.64" vector-effect="non-scaling-stroke"/><path stroke="#406685" d="M272.38 562.51c-13.48-12.22-26.25-25.1-39.49-37.63a.49.49 0 0 0-.83.37q.32 9.89.11 20.5c-.14 6.6 1.15 12.26 7.06 15.76q2.54 1.51 6.15 1.51 12.93.03 26.79.05.83 0 .21-.56" vector-effect="non-scaling-stroke"/><path stroke="#8197a9" d="M721.11 580.56a7.52 7.52 0 0 0-7.52-7.52h-141.1a7.52 7.52 0 0 0-7.52 7.52v.18a7.52 7.52 0 0 0 7.52 7.52h141.1a7.52 7.52 0 0 0 7.52-7.52v-.18" vector-effect="non-scaling-stroke"/><path stroke="#bcf2f9" d="M564.46 616.48q-3.41 8.79-3.38 16.52.07 16.05.16 32.04.01 2.13 2.14 2.1 16.92-.27 34.63-.22 6.73.02 11.45-1.35 5.82-1.69 10.63-5.07" vector-effect="non-scaling-stroke"/><path stroke="#8cdef6" d="M620.09 660.5q12.83-9.96 12.97-24.75.17-18 .1-37.03a1.73 1.73 0 0 0-1.73-1.73q-22.04-.06-39.47.2c-1.98.03-4.19.22-6.08 1.05-3.66 1.61-7.08 2.13-10.23 4.91-3.99 3.51-9.22 8.09-11.19 13.33" vector-effect="non-scaling-stroke"/><path stroke="#4ad3fa" d="M620.09 660.5q-.97-3.22-1.56-4.15-1.89-2.95-10.41-11.41" vector-effect="non-scaling-stroke"/><path stroke="#8cdef6" d="M608.12 644.94c5.41-5.43 9.11-8.77 8.87-16.7q-.2-6.57.04-12.73.02-.64-.62-.64-9.34 0-18.34-.02c-6.24-.02-9.69 1.99-14.02 6.48q-4.53 4.7-4.96 9.94" vector-effect="non-scaling-stroke"/><path stroke="#4ad3fa" d="M579.09 631.27q-.65.44-.53.08a.36.35 40.3 0 0-.03-.31q-.6-1-.54-.28a.04.04 0 0 1-.07.02q-.18-.43.04-.75.28-.42-.21-.54l-.49-.12q-.58-.15-.89-.66-1.27-2.13-3.7-3.26-.51-.24-.94-.61l-6.5-5.55q-.39-.33-.47-.83l-.3-1.98" vector-effect="non-scaling-stroke"/><path stroke="#bcf2f9" d="M608.12 644.94c-1.62 1.37-3.09 2.28-5.36 2.29q-11.61.05-22.96.01a.83.82.7 0 1-.82-.83l.11-15.14" vector-effect="non-scaling-stroke"/><path stroke="#8197a9" d="M715.89 614.798a7.41 7.41 0 0 0-7.397-7.423l-51.52-.09a7.41 7.41 0 0 0-7.423 7.397v.38a7.41 7.41 0 0 0 7.397 7.423l51.52.09a7.41 7.41 0 0 0 7.423-7.397v-.38M692.097 648.592a7.52 7.52 0 0 0-7.572-7.468l-27.44.192a7.52 7.52 0 0 0-7.467 7.572l.005.62a7.52 7.52 0 0 0 7.572 7.468l27.44-.192a7.52 7.52 0 0 0 7.467-7.572l-.005-.62M140.437 654.337a24.23 23.92 79.4 0 0 19.055-28.217 24.23 23.92 79.4 0 0-27.97-19.417 24.23 23.92 79.4 0 0-19.054 28.217 24.23 23.92 79.4 0 0 27.97 19.417M211.25 641.2a.63.63 0 0 0 .56 0l18.45-9a.63.63 0 0 0 .03-1.11L212 621.11a.63.63 0 0 0-.58-.01l-19.26 9.54a.63.63 0 0 0 0 1.13l19.09 9.43" vector-effect="non-scaling-stroke"/></g><path fill="#03305d" d="m338.8 96.8 8.2 8.19q24.67 24.75 40.72 56.45a1.2 1.19 46 0 0 2.11.04q1.68-3.02 5.07-5.19 1.64-1.05 1.1-3.51c-3.99-18.25-9.72-35.45-19.31-51.73q-7.75-13.17-19.86-20.39a1.28 1.27 45.2 0 0-1.3-.01c-4.6 2.69-10.16 1.53-13.27-3.02-4.61-6.76 2.66-17.07 10.8-14.11q5.19 1.89 7.14 6.45.18.43.62.57 4.3 1.41 8.12 4.42c10.27 8.07 17.9 18.74 23.66 30.3q9.82 19.7 13.25 42.18.19 1.25.15 2.7-.01.72.65 1.01 1.29.55 2.48.25.8-.21.93-1.01 3.54-21.01 11.97-41.12c6.5-15.48 17.55-31.55 32.78-38.35a2.32 2.3-87 0 0 1.09-.99c1.92-3.34 4.38-7.13 8.82-7.01 4.61.13 9.18 2.92 9.7 7.8q-.73 1.82-.02 3.53-.03 1.13-.91 2.48-4.92 7.51-13.12 4.46c-2.45-.91-8.71 4.59-10.52 6.39-8.78 8.7-14.06 19.07-18.52 30.45q-6.91 17.61-11.34 35.63a2.65 2.65 0 0 0 1.3 2.95q4.06 2.21 5.94 6.94a.44.39 7.7 0 0 .19.22q.12.07.25 0 .14-.07.12-.23c-.19-1.22.62-1.61 1.08-2.57q5.23-11.13 13.25-23.13 13.04-19.53 28.73-34.75c33.46-32.47 72.44-55.83 117.51-66.89q7.77-1.9 15.65-2.58l13.25-.11q7.05.88 13.15 4.87 8.72 5.71 12 14.93c4.57 12.84-.39 26.05-6.87 37.25q-10.66 18.4-18.64 33.59c-6.06 11.54-11.01 24.68-13.05 37.63q-1.14 7.17-2.65 14.18-2.28 10.56-8.53 20.95-11.77 19.54-31.86 29.7-5.04 2.55-19.02 5.83-.08-.09-.24-.09-.18 0-.26.17-.4.88.49 1.51.25.17.47-.01c15.33 12.83 25.79 32.74 27.57 51.87q.49 5.34.37 13.31-.11 6.87-1.35 12.94-6.24 30.58-30.19 49.79c-9.65 7.75-19.75 11.72-31.73 13.97-23.18 4.34-46.05-4.56-60.86-22.23q-14.29-17.05-18.47-40.19.7-2.87-1.21-2.36.03 1.01-.14 1.73-2.85 12.03-7.17 21.43c-1.62 3.55-3.94 8.35-7.56 10.09-8.43 4.05-13.37-8.38-15.81-14.09q-3.57-8.37-5.18-17.27.3-1.9-1.1-2.19-.48 4.56-2.11 10.04-4.45 15.03-11.92 26.41c-8.14 12.39-20.37 22.69-34.71 26.83q-15.79 4.55-29.17 2.32-22.27-3.71-38.15-18.57-8.42-7.88-15.39-19.16c-17.6-28.49-16.42-69.28 5.93-95.1q2.49-2.88 9.66-9.5.32-.3.74-.42.45-.13.6-.53.23-.61-.41-.74-29.03-5.81-46.63-28.58c-9.59-12.42-13.08-26.79-15.76-41.87q-3.48-19.6-12.15-37.15-3.11-6.3-14.6-25.38-2.99-4.99-7.9-14.88-4.01-8.09-5.07-16.74.71-3.42-.03-6.84c1.26-13.91 11.16-24.57 24.87-26.98q3.82-.67 6.84-.89 3.01-.23 7.29.21 8.94.91 16.29 2.44c13.4 2.81 28.19 7.77 41.08 13.68q38.83 17.83 70.08 47.38Zm256.9 22.13c4.1-6.58 6.04-14.33 10.65-20.61q4.48-6.08 9.01-14.96 3.32-6.53 3.61-10.31.48-6.54-.63-11.97c-.92-4.46-6.65-6.88-10.58-7.3-4.26-.47-8.37-.33-12.61.71-3.37.83-6.8 1.61-10.08 2.87q-6.44 2.46-13.32 4.76-5.47 1.83-12.57 4.97-8.98 3.97-17.42 8.07-9.25 4.5-23.43 14.06-7.2 4.85-11.96 9.24c-2.5 2.3-5.41 3.72-7.84 6.14q-14.43 14.36-28.03 27.99c-3.17 3.18-5.34 6.76-8.22 10.16q-3.18 3.77-5.98 7.98-7.13 10.75-12.41 21.11c-1.83 3.59-2.75 7.51-4.55 11.14-1.65 3.33-2.32 6.87-4.08 10.16-1.99 3.73-1.82 8.85-1.73 12.95a.93.93 0 0 0 .91.92q4.59.1 10.34-.6 3.55-.43 6.99-2.18 7.76-3.95 14.88-7.46 3.34-1.66 6.11-4.52 4.09-4.24 8.13-8.2 1.89-1.86 3.05-4.02c1.72-3.19 4.67-5.14 6.44-8.34q1.46-2.66 3.92-5.14 4.78-4.83 10.06-9.94 1.66-1.61 4.58-3.3c2.79-1.6 4.59-4.12 7.58-5.53q3.4-1.6 6.37-3.76 2.62-1.91 5.55-2.88 4.57-1.52 8.97-3.76c4.16-2.11 8.68-3.48 13.01-5.27 3.8-1.58 8.28-.9 12.28-2.09q3.12-.93 6.2-.98 7.8-.12 15.87-.04 3.18.04 5.84-.94.49-.18.72-.63c1.51-2.93 2.47-5.46 4.37-8.5ZM257.26 66.69c-2.61-.95-5.11-2.33-7.75-3.2q-9.35-3.11-19.5-6.73-2.11-.76-7.8-2.04c-4.44-1-9.33-1.2-13.74-.61q-6.84.93-10.33 6.07c-3.18 4.69-3.14 12.38-.96 17.43 2.75 6.36 6.14 12.55 9.98 18.28 6.85 10.22 12.04 21.4 17.19 32.59a1.47 1.46-5.7 0 0 1.02.83c1.47.33 3.01.69 4.52.7q8.3.05 16.86-.03c4.5-.05 8.7.68 13.1 1q4.36.31 8.68 1.58 14.4 4.25 25.72 10.13 2.38 1.23 4.33 2.66c2.72 1.98 5.63 3.67 8.18 5.9 2.93 2.55 6.19 4.28 9.07 7.01 5.04 4.78 10.22 9.62 13.88 15.89q2 3.44 5.02 6.76 5.78 6.35 12.06 12.32c3.86 3.67 8.9 6.48 13.72 8.25q3.12 1.15 6.11 2.49c5.05 2.27 10 2.59 15.38 2.49q.52-.01.5-.53c-.15-4.19-.21-9.33-2.66-12.87q-2.9-4.17-3.86-9.26-.38-2-1.51-3.92-2.51-4.26-4.28-9.38c-1.33-3.87-4.5-6.78-6.41-10.26-2.52-4.58-5.87-8.41-8.11-13.06-1.58-3.31-4.11-5.88-6.2-8.88q-2.26-3.24-5.21-6.21-9.76-9.82-20.4-20.53c-3.18-3.2-6.76-6.43-10.31-8.96q-8.45-5.99-17.38-13.16-5.32-4.27-11.35-7.96-8.07-4.93-15.18-9.14-5.02-2.97-12.38-5.65Zm97.08 141.12q-16.63-11.28-29.16-27.76-4.49-5.91-7.86-9.31-4.24-4.29-9.18-9.06c-2.25-2.17-4.93-3.39-7.15-5.39q-2.48-2.22-5.35-3.86-7.88-4.5-14.43-7.24-6.4-2.69-17.98-5.7c-9.05-2.35-16.99-2.67-26.36-2.5q-3.7.07-7.09.58a1 1 0 0 0-.82 1.24q3.01 11.48 4.67 22.87.7 4.83 2.22 9.68 1.72 5.52 3.67 9.76 4 8.73 14.32 18.81c3.58 3.5 8.18 5.1 12.35 7.74 4.33 2.75 9.42 2.9 14 4.95q2.68 1.21 5.24 1.3 7.69.29 16.15.22c5.04-.03 9.46-1.71 14.4-2.42 2.96-.42 5.76-1.57 8.76-1.59q9.64-.06 19.82-.06c3.7 0 6.98-1.32 10.59-1.35q1.07-.01.08-.43-.48-.2-.89-.48Zm124.18-12.29q-5.26 5.38-8.84 7.54-4.19 2.53-8.09 5.1-.49.33.06.56 3.17 1.35 6.3 1.35 9.25 0 18.73-.01c5.46 0 10.4 1.99 15.81 2.11 3.38.07 6.33 1.59 9.72 1.81q14.62.94 27.66-1.61 10.47-2.05 18.76-9.14 4.65-3.99 11.12-10.76c5.59-5.85 7.7-12.16 10.7-19.47q1.11-2.7 1.46-5.19c.54-3.76.3-7.67 1.23-11.37 1.09-4.37 2.96-8.65 3.47-13.17q.3-2.78.72-5.42a.6.6 0 0 0-.57-.69q-13.69-.61-28.61.72-3.43.3-7.32 1.67-7.14 2.52-12.35 4.53-6.03 2.32-17.39 8.5-2.33 1.26-8.87 5.86-4.58 3.21-8.21 6.94-2.55 2.62-4.63 5.7-2.25 3.33-5.09 6.21c-1.91 1.95-3.05 4.59-4.84 6.66q-3.16 3.65-10.93 11.57Zm-62.25 69.75q.19-.9.23-1.63.63-11.42.56-24.55c-.05-10.81.27-22.05.04-33.33q-.24-11.91-.11-22.99.05-4.96-4.57-8.35c-1.61-1.18-3.61-2.18-5.62-1.52q-5.18 1.71-6.89 5.99-.91 2.26-.89 7.57.11 27.32-.16 55.55-.06 5.9.73 13.17c.9 8.31 1.31 16.34 1.5 24.46q.13 5.36 1.33 11.66 1.57 8.23 3.65 15.38.65 2.24 2.17 4.44.65.95 1.1-.11 2.21-5.19 3.15-10.66c.77-4.48 2.16-8.87 2.33-13.35q.28-7.24.58-14.54.16-3.78.87-7.19Zm-58.15-11.63q5.66-3.84 9.46-9.43 2.4-1.95 4.32-4.51c3.07-4.09 4.8-6.13 7.31-9.2 1.31-1.6 1.96-3.29 2.64-5.18a.33.33 0 0 0-.29-.44q-6.56-.6-12.34.5c-7.41 1.41-15.27 1.29-22.85 1.33-5.48.03-10.43 1.66-15.88 2-3.9.23-7.45 1.41-11.25 2.04q-3.79.63-7.92 2.55-8.26 3.85-14.98 7.6-2.34 1.31-4.43 3.22c-6.49 5.93-12.41 11.93-16.09 19.66a1.34 1.34 0 0 0 .39 1.64q1.28.98 3.02 1.83c6.71 3.27 14.62 5.88 22.41 5.98q8.2.11 16.1-.13 2.58-.08 4.92-.67c3.91-.98 7.77-1.8 11.44-3.35q4.06-1.73 8.02-3.21c1.32-.5 3.98-2.09 4.95-3.01q5.41-5.13 11.05-9.22Zm77.8-27.2q.28 1.95 1.38 3.05 4.2 4.19 7.01 8.01 3.4 4.6 6.87 8.02 4.7 4.62 9.33 9.37 5.2 5.33 9.28 7.94c6.67 4.24 14.03 6.86 21.46 9.63q1.67.62 3.27.68 9.54.36 19.84.2c9.5-.15 17.87-3.63 25.82-8.46a.65.64 58.8 0 0 .21-.88q-6.43-10.45-15.7-18.66-4.41-3.91-12.37-8.08c-4.46-2.34-9.34-2.45-13.69-4.84q-2-1.1-4.33-1.32-4.1-.38-8.25-1.33c-4.29-.99-8.47-1.16-12.82-1.3-4.02-.12-7.78-1.64-11.93-1.77q-6.36-.18-12.36-.51c-3.89-.22-8.1-2.05-11.94-1.29q-1.27.25-1.08 1.54Zm17.49 101.04q1.46 3.51 4.04 6.41c8.49 9.55 17.47 19.41 30.61 19.89q1.02.03 1.12-.98c.55-5.29 2.44-10.17 2.58-15.56.22-8.37.29-15.64-1.99-23.93q-2.23-8.06-3.95-12-2.28-5.24-8.42-14.97-1.6-2.53-3.18-4.55c-2.77-3.52-5.15-7.18-8.35-10.35q-12.87-12.73-24.93-25.06-3.33-3.41-7.24-6.86-.42-.37-.4.19.66 15.65 1.51 30.84.22 3.85 1.67 8.74 1.24 4.21 1.95 9.03c.96 6.51 3.35 12.66 5.38 18.75q1.56 4.71 3.74 8.51 3.33 5.84 5.86 11.9Zm-71.44-85.83q-2.37.46-4.2 2.32-11.44 11.66-23.57 23.65c-2.32 2.3-3.8 5.18-6.06 7.57-4.08 4.32-7.59 9.49-11.04 14.1q-1.53 2.04-6.75 13.26-.85 1.83-1.3 3.96c-.68 3.21-1.3 6.25-2.56 9.34q-1.2 2.92-1.47 5.6-.86 8.47-.4 18.38c.21 4.43 1.68 8.64 2.34 13.01a1.09 1.09 0 0 0 1.04.92q11.65.3 20.89-8.11 6.6-5.99 8.21-8.31 12-17.26 18.74-36.27 2.44-6.91 3.39-13.6 1.16-8.22 2.4-16.21c.34-2.23.31-4.45.67-6.68q1.76-11.06.9-22a1.04 1.03-7.7 0 0-1.23-.93Zm137.04 107.36q3.01-.93 4.5-3.11.23-.63 1.35-.86 1.17-.9 2.51-1.44 1.73-.7 2.51-1.33 4.58-3.74 6.59-8.52 7.93-10.1 11.04-22.27 1.48-5.79 1.42-12.28-.07-6.84-.07-12.93c-.01-4.78-2.4-8.07-3.49-12.47a1.57 1.57 0 0 0-2.3-.99q-7.62 4.35-16.07 6.99-4.19 1.31-9.49 1.39-12.44.19-24.5-.29-3.87-.16-10.37-2.53-.81-.3-.35.43c8.93 14.04 15.73 26.45 17.79 42.45q1.26 9.87.77 19.62c-.24 4.69-1.19 8.93-2.11 13.39q-.1.52.43.59c6.15.79 14.96-2.9 19.84-5.84Zm-248.88-72.99q-2.57 4.22-2.82 7.73-.41 5.8-.21 16.38.09 4.73 1.25 8.38c2.72 8.58 5.49 17.84 11.95 24.45q4.4 4.49 8.29 8.43.67.68 1.18 1.56c.91 1.53 2.38 2.1 3.62 3.15q4.86 4.1 10.61 5.75 5.87 1.67 12.51 3.07 2.15.46 1.58-1.67c-.71-2.7-1.1-5.26-1.14-8.05q-.2-14.22.13-23.95.16-4.89 1.94-9.27c1.37-3.37 1.8-7.2 3.16-10.39q3.18-7.44 7.37-14.73 1.27-2.2 4.24-5.1c.59-.58.89-1.48.86-2.27q.11-.31.11-.57 0-.56-.55-.62-.49-.06-1 .07-.31-.28-.63-.35-.27-.06-.62.17-4.19 2.64-9.21 2.81-11.32.37-23.26.18c-4.83-.08-9.65-1.48-14.39-2.5q-3.9-.83-9.42-4.39-1.28-.83-2.85-.79-.51.01-.8.44-.5.74-1.33 1.11.23-.75.97-1.37.19-.16.02-.34l-.29-.31a.25.25 0 0 0-.36-.02q-1.48 1.36-.91 3.01Z"/><path fill="#7c9bad" d="m617.26 33.51-13.25.11q6.62-1.32 13.25-.11Z"/><path fill="#7ae7fd" d="M606.35 98.32c-4.61 6.28-6.55 14.03-10.65 20.61-1.9 3.04-2.86 5.57-4.37 8.5q-.23.45-.72.63-2.66.98-5.84.94-8.07-.08-15.87.04-3.08.05-6.2.98c-4 1.19-8.48.51-12.28 2.09-4.33 1.79-8.85 3.16-13.01 5.27q-4.4 2.24-8.97 3.76-2.93.97-5.55 2.88-2.97 2.16-6.37 3.76c-2.99 1.41-4.79 3.93-7.58 5.53q-2.92 1.69-4.58 3.3-5.28 5.11-10.06 9.94-2.46 2.48-3.92 5.14c-1.77 3.2-4.72 5.15-6.44 8.34q-1.16 2.16-3.05 4.02-4.04 3.96-8.13 8.2-2.77 2.86-6.11 4.52-7.12 3.51-14.88 7.46-3.44 1.75-6.99 2.18-5.75.7-10.34.6a.93.93 0 0 1-.91-.92c-.09-4.1-.26-9.22 1.73-12.95 1.76-3.29 2.43-6.83 4.08-10.16 1.8-3.63 2.72-7.55 4.55-11.14q5.28-10.36 12.41-21.11 2.8-4.21 5.98-7.98c2.88-3.4 5.05-6.98 8.22-10.16q13.6-13.63 28.03-27.99c2.43-2.42 5.34-3.84 7.84-6.14q4.76-4.39 11.96-9.24 14.18-9.56 23.43-14.06 8.44-4.1 17.42-8.07 7.1-3.14 12.57-4.97 6.88-2.3 13.32-4.76c3.28-1.26 6.71-2.04 10.08-2.87 4.24-1.04 8.35-1.18 12.61-.71 3.93.42 9.66 2.84 10.58 7.3q1.11 5.43.63 11.97-.29 3.78-3.61 10.31-4.53 8.88-9.01 14.96ZM257.26 66.69q7.36 2.68 12.38 5.65 7.11 4.21 15.18 9.14 6.03 3.69 11.35 7.96 8.93 7.17 17.38 13.16c3.55 2.53 7.13 5.76 10.31 8.96q10.64 10.71 20.4 20.53 2.95 2.97 5.21 6.21c2.09 3 4.62 5.57 6.2 8.88 2.24 4.65 5.59 8.48 8.11 13.06 1.91 3.48 5.08 6.39 6.41 10.26q1.77 5.12 4.28 9.38 1.13 1.92 1.51 3.92.96 5.09 3.86 9.26c2.45 3.54 2.51 8.68 2.66 12.87q.02.52-.5.53c-5.38.1-10.33-.22-15.38-2.49q-2.99-1.34-6.11-2.49c-4.82-1.77-9.86-4.58-13.72-8.25q-6.28-5.97-12.06-12.32-3.02-3.32-5.02-6.76c-3.66-6.27-8.84-11.11-13.88-15.89-2.88-2.73-6.14-4.46-9.07-7.01-2.55-2.23-5.46-3.92-8.18-5.9q-1.95-1.43-4.33-2.66-11.32-5.88-25.72-10.13-4.32-1.27-8.68-1.58c-4.4-.32-8.6-1.05-13.1-1q-8.56.08-16.86.03c-1.51-.01-3.05-.37-4.52-.7a1.47 1.46-5.7 0 1-1.02-.83c-5.15-11.19-10.34-22.37-17.19-32.59-3.84-5.73-7.23-11.92-9.98-18.28-2.18-5.05-2.22-12.74.96-17.43q3.49-5.14 10.33-6.07c4.41-.59 9.3-.39 13.74.61q5.69 1.28 7.8 2.04 10.15 3.62 19.5 6.73c2.64.87 5.14 2.25 7.75 3.2Z"/><path fill="#7c9bad" d="M172.35 60.96q.74 3.42.03 6.84-.76-3.44-.03-6.84ZM474.42 70.72q.77 1.61-.02 3.53-.71-1.71.02-3.53ZM338.8 96.8l8.2 8.19-8.2-8.19Z"/><path fill="#03305d" d="M129.89 149.4q-2.94-1.15-5.51-2.8c-4.52-2.9 2.09-5.71 4.31-6.3 8.56-2.25 12.3-9.87 15.06-17.63.95-2.67 4.29-3.71 5.94-.76q1.08 1.92 1.98 4.71 2.93 9.02 11.07 12.65 3.24 1.44 6.94 3.07a2.17 2.16 25.6 0 1 1.05 2.97c-.65 1.25-1.7 2.16-3.02 2.6-3.9 1.32-7.75 3.2-10.75 5.84-3.86 3.4-5.87 8.82-7.25 13.61-.59 2.06-3.48 2.26-4.86 1.03q-.93-.82-1.28-2.1c-2.09-7.74-5.82-13.84-13.68-16.89Zm16.37-12c-.62 2.14-4.27 4.96-6.01 6.04a.65.64 44.7 0 0 .01 1.1q3.74 2.28 6.04 6.77.31.6.65.02 2.52-4.24 6.85-7 .68-.43-.02-.84-3.65-2.13-6.41-6.26a.62.62 0 0 0-1.11.17ZM697.71 148.42c-10.21 2.67-13.21 10.1-16.51 19.17a2.14 2.13-61.7 0 1-3.28.99c-2.02-1.51-3.75-6.42-4.74-8.76-3.36-7.94-9.71-9.74-16.89-12.94a2.39 2.39 0 0 1-1.25-3.06q.63-1.6 2.65-2.34c6.43-2.36 12.2-5.12 15.16-11.5q1.89-4.08 3.63-8.31a2.46 2.46 0 0 1 3.67-1.09q1.24.86 1.89 2.53 1.53 3.97 3.27 7.7c3.1 6.7 8.19 8.06 14.42 10.83q1.65.73 2.38 2.45.21.49-.03.97-1.31 2.56-4.37 3.36Zm-19.82-9.95q-2.56 3.29-5.61 4.8a.74.74 0 0 0-.11 1.26q3.61 2.66 5.74 6.85a.69.68 46.7 0 0 1.2.04q2.24-3.82 5.72-6.86a.66.66 0 0 0-.09-1.06q-3.06-1.84-5.41-5.87a.72.61 35.1 0 0-1.27.12l-.01.3q-.01.24-.16.42Z"/><path fill="#1abef7" d="M354.34 207.81q.41.28.89.48.99.42-.08.43c-3.61.03-6.89 1.35-10.59 1.35q-10.18 0-19.82.06c-3 .02-5.8 1.17-8.76 1.59-4.94.71-9.36 2.39-14.4 2.42q-8.46.07-16.15-.22-2.56-.09-5.24-1.3c-4.58-2.05-9.67-2.2-14-4.95-4.17-2.64-8.77-4.24-12.35-7.74q-10.32-10.08-14.32-18.81-1.95-4.24-3.67-9.76-1.52-4.85-2.22-9.68-1.66-11.39-4.67-22.87a1 1 0 0 1 .82-1.24q3.39-.51 7.09-.58c9.37-.17 17.31.15 26.36 2.5q11.58 3.01 17.98 5.7 6.55 2.74 14.43 7.24 2.87 1.64 5.35 3.86c2.22 2 4.9 3.22 7.15 5.39q4.94 4.77 9.18 9.06 3.37 3.4 7.86 9.31 12.53 16.48 29.16 27.76ZM478.52 195.52q7.77-7.92 10.93-11.57c1.79-2.07 2.93-4.71 4.84-6.66q2.84-2.88 5.09-6.21 2.08-3.08 4.63-5.7 3.63-3.73 8.21-6.94 6.54-4.6 8.87-5.86 11.36-6.18 17.39-8.5 5.21-2.01 12.35-4.53 3.89-1.37 7.32-1.67 14.92-1.33 28.61-.72a.6.6 0 0 1 .57.69q-.42 2.64-.72 5.42c-.51 4.52-2.38 8.8-3.47 13.17-.93 3.7-.69 7.61-1.23 11.37q-.35 2.49-1.46 5.19c-3 7.31-5.11 13.62-10.7 19.47q-6.47 6.77-11.12 10.76-8.29 7.09-18.76 9.14-13.04 2.55-27.66 1.61c-3.39-.22-6.34-1.74-9.72-1.81-5.41-.12-10.35-2.11-15.81-2.11q-9.48.01-18.73.01-3.13 0-6.3-1.35-.55-.23-.06-.56 3.9-2.57 8.09-5.1 3.58-2.16 8.84-7.54Z"/><path fill="#fdfdfe" d="M416.27 265.27q-.71 3.41-.87 7.19-.3 7.3-.58 14.54c-.17 4.48-1.56 8.87-2.33 13.35q-.94 5.47-3.15 10.66-.45 1.06-1.1.11-1.52-2.2-2.17-4.44-2.08-7.15-3.65-15.38-1.2-6.3-1.33-11.66c-.19-8.12-.6-16.15-1.5-24.46q-.79-7.27-.73-13.17.27-28.23.16-55.55-.02-5.31.89-7.57 1.71-4.28 6.89-5.99c2.01-.66 4.01.34 5.62 1.52q4.62 3.39 4.57 8.35-.13 11.08.11 22.99c.23 11.28-.09 22.52-.04 33.33q.07 13.13-.56 24.55-.04.73-.23 1.63Z"/><ellipse fill="#03305d" rx="15.63" ry="15.23" transform="rotate(84.9 221.124 469.22)"/><path fill="#7c9bad" d="M138.15 229.9q-.12.09-.27.06-.43-.08-.71-.41-.67-.8-1.5-1.4-.39-.28-.88-.26-1.13.06-1.97-.71a.54.53 79.1 0 0-.16-.11l-4.32-1.79q-.95-.4-.11-1 2.77-1.98 5.98-3.76c1.91-1.06 2.86-2.31 4.54-3.4q.89-.58 1.4-1.47 3.09-5.31 5.42-10.26a1.06 1.06 0 0 1 1.91-.03q1.19 2.37 2.12 4.9.8 2.18 1.99 3.75 4.87 6.43 11.22 8.86 2.9 1.11.07 2.39-1.13.51-2.09 1.28a1.74 1.74 0 0 1-1.14.38q-1.2-.02-1.71 1-.24.46-.69.72c-1.77 1.02-3.77 1.9-4.86 3.69q-1.81 2.97-3.7 5.58-1.08 1.48-1.24 3.57a.93.93 0 0 1-1.72.4L138.68 230q-.21-.35-.53-.1Z"/><path fill="#7ae7fd" d="m367.58 244.21-9.46 9.43q-5.64 4.09-11.05 9.22c-.97.92-3.63 2.51-4.95 3.01q-3.96 1.48-8.02 3.21c-3.67 1.55-7.53 2.37-11.44 3.35q-2.34.59-4.92.67-7.9.24-16.1.13c-7.79-.1-15.7-2.71-22.41-5.98q-1.74-.85-3.02-1.83a1.34 1.34 0 0 1-.39-1.64c3.68-7.73 9.6-13.73 16.09-19.66q2.09-1.91 4.43-3.22 6.72-3.75 14.98-7.6 4.13-1.92 7.92-2.55c3.8-.63 7.35-1.81 11.25-2.04 5.45-.34 10.4-1.97 15.88-2 7.58-.04 15.44.08 22.85-1.33q5.78-1.1 12.34-.5a.33.33 0 0 1 .29.44c-.68 1.89-1.33 3.58-2.64 5.18-2.51 3.07-4.24 5.11-7.31 9.2q-1.92 2.56-4.32 4.51ZM435.92 226.44q-.19-1.29 1.08-1.54c3.84-.76 8.05 1.07 11.94 1.29q6 .33 12.36.51c4.15.13 7.91 1.65 11.93 1.77 4.35.14 8.53.31 12.82 1.3q4.15.95 8.25 1.33 2.33.22 4.33 1.32c4.35 2.39 9.23 2.5 13.69 4.84q7.96 4.17 12.37 8.08 9.27 8.21 15.7 18.66a.65.64 58.8 0 1-.21.88c-7.95 4.83-16.32 8.31-25.82 8.46q-10.3.16-19.84-.2-1.6-.06-3.27-.68c-7.43-2.77-14.79-5.39-21.46-9.63q-4.08-2.61-9.28-7.94-4.63-4.75-9.33-9.37-3.47-3.42-6.87-8.02-2.81-3.82-7.01-8.01-1.1-1.1-1.38-3.05Z"/><path fill="#7c9bad" d="M541.79 232.44q-.02.73.46 1.58-.22.18-.47.01-.89-.63-.49-1.51.08-.17.26-.17.16 0 .24.09Z"/><path fill="#677b87" fill-opacity=".573" d="M89.59 244.72q2.68-2.1 6.01-6.74.37-.5.94-.25 1.47.65 1.5 2.22.01.48.4.76 2.8 2.04 5.39 4.35c1.2 1.07 2.66 1.38 3.89 2.41q.49.41-.02.8c-2.03 1.51-2.37 3.68-5.03 4.64q-.38.14-.59.48-1.13 1.86-3.19 3.12-.49.3-.75.8-.7 1.36-2.18 2.02-.45.2-.73-.21-3.41-4.97-6.05-6.56-2.34-1.41-4.34-3.11a1.37 1.37 0 0 1 .41-2.33q2.48-.94 4.34-2.4Zm6.63 5.58 1.15 1.99a.53.53 0 0 0 .73.19l.18-.11a2.34 1.54-30.1 0 0 1.25-2.5l-.14-.24a2.34 1.54-30.1 0 0-2.79-.16l-.19.1a.53.53 0 0 0-.19.73Z"/><path fill="#1abef7" d="M453.41 327.48q-2.53-6.06-5.86-11.9-2.18-3.8-3.74-8.51c-2.03-6.09-4.42-12.24-5.38-18.75q-.71-4.82-1.95-9.03-1.45-4.89-1.67-8.74-.85-15.19-1.51-30.84-.02-.56.4-.19 3.91 3.45 7.24 6.86 12.06 12.33 24.93 25.06c3.2 3.17 5.58 6.83 8.35 10.35q1.58 2.02 3.18 4.55 6.14 9.73 8.42 14.97 1.72 3.94 3.95 12c2.28 8.29 2.21 15.56 1.99 23.93-.14 5.39-2.03 10.27-2.58 15.56q-.1 1.01-1.12.98c-13.14-.48-22.12-10.34-30.61-19.89q-2.58-2.9-4.04-6.41ZM381.97 241.65a1.04 1.03-7.7 0 1 1.23.93q.86 10.94-.9 22c-.36 2.23-.33 4.45-.67 6.68q-1.24 7.99-2.4 16.21-.95 6.69-3.39 13.6-6.74 19.01-18.74 36.27-1.61 2.32-8.21 8.31-9.24 8.41-20.89 8.11a1.09 1.09 0 0 1-1.04-.92c-.66-4.37-2.13-8.58-2.34-13.01q-.46-9.91.4-18.38.27-2.68 1.47-5.6c1.26-3.09 1.88-6.13 2.56-9.34q.45-2.13 1.3-3.96 5.22-11.22 6.75-13.26c3.45-4.61 6.96-9.78 11.04-14.1 2.26-2.39 3.74-5.27 6.06-7.57q12.13-11.99 23.57-23.65 1.83-1.86 4.2-2.32ZM367.58 244.21q-3.8 5.59-9.46 9.43l9.46-9.43Z"/><path fill="#677b87" fill-opacity=".573" d="M723.74 257.42q2.62 1.66 5.19 3.24.38.23.07.55l-11.34 11.49a1.5 1.5 0 0 1-2.19-.05q-4.39-4.9-10.84-10.3-.71-.58-.04-1.21.84-.79 1.9-1.21.49-.2.61-.72.21-.9 1.17-1.2a1.81 1.81 0 0 0 .88-.59q2.45-2.98 4.84-5.93 1.1-1.36 2.52-2.59.32-.27.65 0c2 1.62 2.27 3.63 3.68 5.52q.66.87 1.35 1.68.63.74 1.55 1.32Z"/><path fill="#7c9bad" d="M96.22 250.3a.53.53 0 0 1 .19-.73l.19-.1a2.34 1.54-30.1 0 1 2.79.16l.14.24a2.34 1.54-30.1 0 1-1.25 2.5l-.18.11a.53.53 0 0 1-.73-.19l-1.15-1.99Z"/><path fill="#03305d" d="M193.42 257.93c3.1-3.45 7.8-7.64 12.4-8.4q1.82-.3 3.6.28 7.31 2.36 7.45 10.57c.04 2.49-1.32 4.74-3.18 6.32q-8.87 7.55-16.74 16.23c-2.32 2.55-4.99 3.79-8.64 2.56-3.95-1.34-8.1-6-7.18-10.49q.77-3.73 3.8-7.32 4.11-4.86 8.49-9.75Z"/><path fill="#fdfdfe" d="M536.47 333.75q-6.29 5.08-11.61 11.29-1.12.23-1.35.86-2.42.48-4.5 3.11c-4.88 2.94-13.69 6.63-19.84 5.84q-.53-.07-.43-.59c.92-4.46 1.87-8.7 2.11-13.39q.49-9.75-.77-19.62c-2.06-16-8.86-28.41-17.79-42.45q-.46-.73.35-.43 6.5 2.37 10.37 2.53 12.06.48 24.5.29 5.3-.08 9.49-1.39 8.45-2.64 16.07-6.99a1.57 1.57 0 0 1 2.3.99c1.09 4.4 3.48 7.69 3.49 12.47q0 6.09.07 12.93.06 6.49-1.42 12.28-3.11 12.17-11.04 22.27Zm7.85-60.14q0-.15-.02-.28-.02-.14-.15-.1-.55.17-.48.69.09.68.64.99.63.36.36-.31l-.3-.72q-.05-.13-.05-.27Z"/><path fill="#7c9bad" d="M270.7 275.05q.35.39-.57.97-.57-1.65.91-3.01a.25.25 0 0 1 .36.02l.29.31q.17.18-.02.34-.74.62-.97 1.37Z"/><path fill="#fdfdfe" d="M333.21 278.37q.2 1.03 1.44 1.12c.03.79-.27 1.69-.86 2.27q-2.97 2.9-4.24 5.1-4.19 7.29-7.37 14.73c-1.36 3.19-1.79 7.02-3.16 10.39q-1.78 4.38-1.94 9.27-.33 9.73-.13 23.95c.04 2.79.43 5.35 1.14 8.05q.57 2.13-1.58 1.67-6.64-1.4-12.51-3.07-5.75-1.65-10.61-5.75c-1.24-1.05-2.71-1.62-3.62-3.15q-.51-.88-1.18-1.56-3.89-3.94-8.29-8.43c-6.46-6.61-9.23-15.87-11.95-24.45q-1.16-3.65-1.25-8.38-.2-10.58.21-16.38.25-3.51 2.82-7.73.92-.58.57-.97.83-.37 1.33-1.11.29-.43.8-.44 1.57-.04 2.85.79 5.52 3.56 9.42 4.39c4.74 1.02 9.56 2.42 14.39 2.5q11.94.19 23.26-.18 5.02-.17 9.21-2.81.35-.23.62-.17.32.07.63.35Z"/><path fill="#1abef7" d="M666.74 300.83q1 2.91 1.71 5.59.79 3.02.81 6.12.06 10.48-.08 20.87a1.65 1.65 0 0 0 2.63 1.35q1.15-.85 1.19-2.01 2.79-4.02 7.09-5.99 1.7-.78 3.95-.8 1.96-.02 4.08.08.53.03.94.35c.94.75 1.84.35 2.81.99 5.15 3.44 8.3 8.01 8.2 13.92q-.04 2.29-1.16 4.15c-1.03 1.71-1.95 3.54-3.3 5.06q-3.38 3.81-6.89 7.27-7.52 7.39-13.83 14.13-3.83 4.09-7.91 7.91-2.65 2.48-5.35 5.29-3.05 3.18-6.09 4.15c-6.83 2.19-11.4-.43-16.34-5.47q-14.23-14.5-28.78-28.99-2.21-2.2-3.86-3.85-1.17-1.18-1.71-2.36c-.55-1.22-1.66-2.46-1.85-3.78q-.52-3.54-.21-7.23.24-2.72 1.96-4.76 1.95-2.31 4.28-4.47 1.23-1.14 2.93-1.51c1.67-.36 2.91-1.09 4.73-1.09q3.83 0 5.12.41 4.83 1.55 8.86 6.95.77 1.91 2.95 1.63.5-.06.51-.57l.59-30.8q4.56-8.25 13.81-10.09 3.63-.71 9.59-.21a1.76 1.75 65.6 0 1 .92.35c.71.55 1.33.43 2.05 1.05q3.53 3.05 5.65 6.36ZM210.96 338.19q1.52 5.09 1.18 7.31-.35 2.26-.79 4.5-.69 3.53-5.67 7.96.08.3-.6.59-6.48 2.8-11.96-.17-3.75-2.02-7.51-6.75-.31-.39-.78-.56-.61-.23-1.27-.26-1.5-.05-1.51 1.45-.06 9.68-.06 19.65c.01 2.07-.21 4.34-.54 6.38q-1.05 6.53-7.33 9.92c-2.56 1.38-5.16 2.91-8.1 3.27q-3.6.44-5.41.1-14.82-2.74-15.17-18.35-.24-11.19-.19-22.44.24.11.42.09.44-.03.4-.47l-.22-2.13a.49.49 0 0 0-.69-.4l-2.2 1.02q-.44.21-.31.67.08.28.35.32-.59.12-.89.47-3.24 3.91-5.99 6.27c-4.78 4.11-11.88 4.52-16.57 0q-3.39-3.27-4.17-5.89-.75-2.52-.56-7.33.1-2.49 1.26-4.47 1.56-2.67 3.43-4.65 16.36-17.44 32.28-34.14 2.6-2.74 6.24-5.31 3.04-2.16 6.12-1.81 3.49.38 6.37 2.91 3.71 3.25 7.48 7.04 21.07 21.22 31.8 32.49 1.4 1.47 1.16 2.72Z"/><path fill="#7ae7fd" d="M666.74 300.83q3.23 3.73 3.24 7.92.05 12.25 0 24.64a.28.28 0 0 0 .37.26l2.65-.9q-.04 1.16-1.19 2.01a1.65 1.65 0 0 1-2.63-1.35q.14-10.39.08-20.87-.02-3.1-.81-6.12-.71-2.68-1.71-5.59Z"/><path fill="#d8e6f1" d="m634.72 303.37-.59 30.8q-.01.51-.51.57-2.18.28-2.95-1.63l2.05.02q.47 0 .48-.46.26-12.6.32-25.17.01-1.68 1.2-4.13Z"/><path fill="#7c9bad" d="m390.52 313.01-1.1-2.19q1.4.29 1.1 2.19ZM427.59 313.48q-.25-1.4-1.21-2.36 1.91-.51 1.21 2.36ZM536.47 333.75q-2.01 4.78-6.59 8.52-.78.63-2.51 1.33-1.34.54-2.51 1.44 5.32-6.21 11.61-11.29Z"/><path fill="#7ae7fd" d="M210.96 338.19q1.7 1.65 1.92 3.18 1.6 11.37-7.2 16.59 4.98-4.43 5.67-7.96.44-2.24.79-4.5.34-2.22-1.18-7.31Z"/><path fill="#7c9bad" d="M523.51 345.9q-1.49 2.18-4.5 3.11 2.08-2.63 4.5-3.11Z"/><path fill="#7ae7fd" d="M145.25 350.79q.06-.41-.03-.72-.16-.53-.7-.43l-1.52.25q-.27-.04-.35-.32-.13-.46.31-.67l2.2-1.02a.49.49 0 0 1 .69.4l.22 2.13q.04.44-.4.47-.18.02-.42-.09Z"/><path fill="#03305d" d="M699.51 405.68c-1.9-.55-6.42-2.03-3.97-4.8q1.69-1.9 4.5-2.76c5.16-1.58 9.68-4.01 12.16-9.02q1.94-3.91 3.19-7.54.76-2.19 2.8-2.45a2.27 2.25-15.2 0 1 2.36 1.34c2.8 6.42 4.98 12.38 11.7 15.71q3.11 1.54 6.39 2.7c3.88 1.37 3.14 5.22-.4 6.42-3.43 1.18-6.75 1.9-9.46 4.71q-5.56 5.77-7.09 13.01c-.83 3.86-5.07 4.06-6.45.51q-1.12-2.88-2.34-5.79c-2.44-5.83-7.26-10.27-13.39-12.04Zm18.38 2.81a.31.31 0 0 0 .48.02l5.58-6.11a.31.31 0 0 0 .01-.41l-5.43-6.7a.31.31 0 0 0-.46-.01l-5.52 5.8a.31.31 0 0 0-.02.4l5.36 7.01ZM102.19 405.44l-10.02 8.65a.96.96 0 0 1-1.26 0l-10.18-8.81a.96.96 0 0 1 .01-1.46l10.22-8.77a.96.96 0 0 1 1.27.01l9.98 8.94a.96.96 0 0 1-.02 1.44ZM651.46 405.23q1.39-1.79 2.99-.18 1.32 1.33 2.53 2.99 2.58 3.51 8.87 8.57c1.55 1.25 2.74 3.39.69 4.94q-6.72 5.06-12.55 10.96-1.28 1.3-2.45-.11c-3.87-4.69-8.46-7.98-13.27-11.69a.87.87 0 0 1-.25-1.07c.73-1.47 1.66-2.86 2.97-3.89q5.93-4.67 10.47-10.52Z"/><path fill="#7c9bad" d="M749.25 456.67q-12.05-.18-24-.09-61.43.44-114.25.18-7.1-.04-11.92-.34c-1.79-.12-3.53.1-5.33.13q-28.66.4-57.29-.41 105.27-.22 210.54-.12 1.52 0 2.25.65Z"/><path fill="#03305d" d="M536.46 456.14q28.63.81 57.29.41c1.8-.03 3.54-.25 5.33-.13q4.82.3 11.92.34 52.82.26 114.25-.18 11.95-.09 24 .09.59-.3 1.39.17 2.81 1.08 5.47.82.35-.23 1.14.13 17.05 7.69 21.78 25.97.35 1.39.42 4.03.21 8.98.01 17.98-.27 12.62-.25 17.96.42 82.64-.21 161.76c-.07 8.33.39 18.63.22 28.01q-.01.72.44.73.31 1.91-.26 3.2-.9 2.14-1.5 4.33-.64 2.33-1.68 4.15c-1.41 2.48-2.2 5.01-4.18 7.16q-4.57 4.96-9.96 8.89-3.97 2.04-6.33 2.04-112.25 0-224.5-.03-1.12 0-2.18-.34-12.23-4.02-17.72-14.8-3.84-7.77-3.71-13.83.34-16.59-.07-42-.34-20.64-.17-67.08c.01-1.12.32-2.42.31-3.66q-.21-25.32-.2-52.5c0-18.7.64-37.67-.32-56.13-.11-2.12.1-4.32.13-6.45q.02-2.02.98-4.68.99-2.73 1.65-5.54.25-1.47 1.02-2.28 2.89-3.5 5.32-7.17 1.18-1.79 2.9-3.11 6.66-5.13 14.63-7.5 1.94-.25 2.64-.76Zm209.55 18.31q-2.26-.93-5-.95-61.6-.34-133.83-.17-3.41.01-7.35.09c-6.1.13-12.22-.12-18.34-.07q-17.17.14-33.63.05-6.66-.04-9.83 1.3-6.53 2.74-9.67 9.34c-1.67 3.51-1.53 8.1-1.53 11.92q0 13.58.17 26.53.03 2.27.43 4.46a1.06 1.05.4 0 0 .83.84q3.06.6 5.8.62 73.11.48 191.94.49 14.29 0 32.41-.19a.68.67 88.7 0 0 .66-.7q-.38-10.78.21-21.55.2-3.68-.02-6.51-.25-3.28-.17-6.43c.21-9.12-4.41-15.48-13.08-19.07ZM527.02 650.18q.01 27.93.03 55.8c.01 11.59 5.78 19.96 18.4 19.94q95.16-.2 193.33.05 6.94.02 10.15-1.35 6.87-2.91 9.6-9.38 1.29-3.06 1.29-10.1-.02-31.34.02-62.69l.11-95.76a.68.68 0 0 0-.68-.68l-231.68.03a.54.53-90 0 0-.53.54l-.04 103.6Z"/><path fill="#7c9bad" d="M533.82 456.9q-7.97 2.37-14.63 7.5-1.72 1.32-2.9 3.11-2.43 3.67-5.32 7.17 4.22-7.91 6.09-9.37c4.73-3.7 10.74-8.36 16.76-8.41ZM750.64 456.84q2.87-.29 5.47.82-2.66.26-5.47-.82ZM746.01 474.45c8.67 3.59 13.29 9.95 13.08 19.07q-.08 3.15.17 6.43.22 2.83.02 6.51-.59 10.77-.21 21.55a.68.67 88.7 0 1-.66.7q-18.12.19-32.41.19-118.83-.01-191.94-.49-2.74-.02-5.8-.62a1.06 1.05.4 0 1-.83-.84q-.4-2.19-.43-4.46-.17-12.95-.17-26.53c0-3.82-.14-8.41 1.53-11.92q3.14-6.6 9.67-9.34 3.17-1.34 9.83-1.3 16.46.09 33.63-.05c6.12-.05 12.24.2 18.34.07q3.94-.08 7.35-.09 72.23-.17 133.83.17 2.74.02 5 .95Zm-164.891 33.21a10.47 10.47 0 0 0-1.11-14.764l-2.23-1.918a10.47 10.47 0 0 0-14.764 1.11l-2.074 2.411a10.47 10.47 0 0 0 1.11 14.765l2.23 1.918a10.47 10.47 0 0 0 14.764-1.11l2.074-2.411Zm45.977-.118a10.24 10.24 0 0 0-1.312-14.422l-2.581-2.151a10.24 10.24 0 0 0-14.422 1.312l-1.997 2.397a10.24 10.24 0 0 0 1.312 14.422l2.581 2.151a10.24 10.24 0 0 0 14.422-1.312l1.997-2.397Zm45.986.039a10.23 10.23 0 0 0-1.236-14.415l-2.57-2.164a10.23 10.23 0 0 0-14.415 1.236l-2.023 2.401a10.23 10.23 0 0 0 1.236 14.415l2.57 2.164a10.23 10.23 0 0 0 14.415-1.236l2.023-2.401ZM509.95 476.96q-.66 2.81-1.65 5.54-.96 2.66-.98 4.68c-.03 2.13-.24 4.33-.13 6.45.96 18.46.32 37.43.32 56.13q-.01 27.18.2 52.5c.01 1.24-.3 2.54-.31 3.66q-.17 46.44.17 67.08.41 25.41.07 42-.13 6.06 3.71 13.83-2.23-3.83-3.53-7.91-1.07-3.37-1.07-8.49.02-110.46 0-220.93-.01-7.9 3.2-14.54ZM779.45 487.79c.21 2.19.52 4.41.52 6.63q.21 103.21-.19 185.34c-.04 9.82.23 19.84.28 30.24q.01 2.14-.4 4.23-.45-.01-.44-.73c.17-9.38-.29-19.68-.22-28.01q.63-79.12.21-161.76-.02-5.34.25-17.96.2-9-.01-17.98Z"/><rect width="23.88" height="24.12" x="-11.94" y="-12.06" fill="#03305d" rx="10.47" transform="rotate(40.7 -389.97 1020.322)"/><rect width="23.84" height="23.6" x="-11.92" y="-11.8" fill="#03305d" rx="10.24" transform="rotate(39.8 -383.68 1102.694)"/><rect width="23.82" height="23.6" x="-11.91" y="-11.8" fill="#03305d" rx="10.23" transform="rotate(40.1 -355.05 1158.822)"/><path fill="#03305d" d="M226.72 493.23q2.55 3.63 6.64 6.05 16.4 16.62 33.8 32.09 2.97 4.92 7.91 7.79l27.08 25.34q2.58 3.17 5.33 6.02.47.49 1.14.58.51.89.54 1.68-.49.16-.54.59-.84 8.66.52 18.62l-.11 28.26q-1.13 26.87-.77 53.76.1 7.78-.01 19.99-.1 11.09.29 22.39-2.46 17.08-17.85 25.81c-2.1 1.18-5.75 1.84-8.35 1.84q-106.33-.12-213.84-.01-3.1 0-5.68-1.13-12.28-5.36-17.7-18.11c-1.84-4.31-2.41-8.14-2.4-12.69q.11-94.83-.03-184.96-.02-9.51 1.44-14.09c2.86-8.98 11.18-19.3 20.67-21.77q2.26-.59 4.87-.95 2.33-.31 4.68-.31 70.55-.04 147.68 0 .48 0 .86.29l3.83 2.92ZM62.31 662q-.25 36.1.28 46.74.56 11.32 10.75 15.91 2.84 1.28 5.19 1.28 113.01-.14 189.47-.05c3.06.01 6.16.21 9.04-.82q7.28-2.6 10.32-9.5 1.4-3.19 1.47-12.91.23-36.79.13-73.16l-.09-34.8-.27-10.92q-.01-.52-.53-.52-14.18 0-31.08.1-14.01.09-17.98-.38-8.96-1.06-16.88-7.35-6.01-4.78-8.85-12.7-.05-1.45-.28-3.13-.24-1.73-.28-3.36-.6-23.35-.45-46.68 0-.54-.53-.54-63 .1-127.33.01-7.09-.01-10.38 1.24-6.9 2.63-9.93 9.68c-1.57 3.66-1.74 9.28-1.75 13.36q-.11 30.5-.04 128.5Zm210.07-99.49c-13.48-12.22-26.25-25.1-39.49-37.63a.49.49 0 0 0-.83.37q.32 9.89.11 20.5c-.14 6.6 1.15 12.26 7.06 15.76q2.54 1.51 6.15 1.51 12.93.03 26.79.05.83 0 .21-.56Z"/><path fill="#7c9bad" d="m226.72 493.23 6.64 6.05q-4.09-2.42-6.64-6.05Z"/><path fill="#fefdf5" d="M213.28 562.92q-.18 5.92 1.62 11.8 1.79 5.84 5.64 10.23 8.65 9.9 22.47 10.33 16.45.52 45.86-.59l.09 34.8q-3.34 2.12-7.06 3.72c-1.99.86-3.85 2.2-5.92 3.09q-.11.05-.18.13-.08.11-.13.23-.12.34-.47.41-2.05.45-3.69 1.94-1.28 1.15-3.02 2.02-4.58 2.3-8.9 3.94-2.28.87-5 1.07-2.35.18-4.88 1.17-5.11 2-9.25 3.77-1.16.49-2.24.61-1 .11-1.9.46-.44.17-.89.01-.68-.25-1.22.26-.38.34-.87.46-3.3.8-6.47 2.68-1.21.71-2.65 1.11-1.64.46-3.26 1.17-.39.18-.82.16-.5-.02-.94.21l-3.53 1.79q-.42.21-.9.2-2.24-.03-3.91 1.48a1.26 1.23 23.2 0 1-.8.31l-2.73.02q-.77.01-.05.27l.66.24q.88.31-.05.39-3.06.24-6.39.99-.68.15-1.38.04-.56-.1-1.13.02-8.62 1.73-17.5 3-5.33.77-10.33 1.79-3.2.64-6.39.97-4.91.51-6.52.36-1.72-.16-1.36-1.94.12-.63-.47-.38-.19.08-.15.32a.39.38 9.7 0 1-.56.39q-.68-.34-.55-.92 15.34-7.75 20.57-24.54a1.1 1.1 0 0 1 1.51-.67q16.45 7.64 30.75 14.9 2.68 1.37 5.79-.15 22.34-10.86 46.22-23.48 1.06-.56 1.77-1.53.78-1.09-.41-1.7-9.81-5-20.35-10.83-13.96-7.73-29.14-15.36a.84.82 44.2 0 0-.75 0l-33.13 16.69a.97.96-20.3 0 1-1.37-.63c-3.54-14.44-15.17-27.36-30.45-29.75q-.96-.15-1-1.12-.12-3.03-.03-6.09c.18-5.69-5.37-11.42-11.23-10.02-3.85.92-6.9 4.18-7.33 8.27q-.42 4.01-.36 8.07a1.11 1.11 0 0 1-1 1.13q-6.63.68-12.82 4.68-13.71 8.87-16.25 25.33a1 .99 7.8 0 1-1.1.83c-5.17-.6-10.64-1.2-14.53 3.09-3.71 4.11-2.07 10.97 2.47 13.61q4.83 2.82 10.68 1.1a1.54 1.53-15.1 0 1 1.93 1.11c3.55 14.75 14.75 27.01 29.7 29.87q.51.1.57.62l1.35 12.99q-.47.42-1.88.63-.87.12-1.89-.22-2.17-.73-4.44-1.38-2.41-.69-5.71-1.94-2.93-1.12-5.71-1.79-4.13-1.01-8.01-1.91-2.48-.58-5.03-1.71-.09-.04-.12-.14-.05-.17-.16-.32-.18-.24-.46-.34-3.67-1.31-6.76-2.63a1.56 1.07-18.6 0 0-.35-.1q-.24-.04-.26.22-.03.44-.45.31l-13.53-4.27q-.31-.1-.42-.41-.07-.21-.28-.26c-2.14-.48-3.5-1.83-5.38-2.75q-1.42-.69-2.76-1.48-.2-.11-.42-.09-.31.03-.3-.29.05-.8-.59-1-.07-98 .04-128.5c.01-4.08.18-9.7 1.75-13.36q3.03-7.05 9.93-9.68 3.29-1.25 10.38-1.24 64.33.09 127.33-.01.53 0 .53.54-.15 23.33.45 46.68.04 1.63.28 3.36.23 1.68.28 3.13Z"/><path fill="#7c9bad" d="M232.89 524.88c13.24 12.53 26.01 25.41 39.49 37.63q.62.56-.21.56-13.86-.02-26.79-.05-3.61 0-6.15-1.51c-5.91-3.5-7.2-9.16-7.06-15.76q.21-10.61-.11-20.5a.49.49 0 0 1 .83-.37ZM267.16 531.37l7.91 7.79q-4.94-2.87-7.91-7.79Z"/><path fill="#fefdf5" d="M759.84 642.45q-.33 1.81-1.77 2.33-.57.21-.87.74-.95 1.69-2.87 2.7-1.77.94-3.13 2.57-1.74 2.1-3.87 3.32-5.35 3.07-10.98 6.19-.97.53-1.9 1.19c-1.54 1.08-3.24 1.57-4.83 2.68q-3.25 2.28-6.91 3.67-.24.1-.27.36-.04.32-.32.45-3.68 1.64-6.75 4.04-1.48 1.16-3.32 1.9-1.19.48-2.7.47-1.1-.01-2.2.22-1.07.23-2.26.18-4.19-.19-8.04.52c-1.71.31-3.32-.06-5.01-.13q-.42-.02-.74-.29-.33-.28-.79-.3-3.35-.14-5.23.6-3.22 1.26-7.44 1.86-53.23.07-106.64.13-1.17 0-3.46 1.21-1.14-.18-1.84.73-.05.07-.06-.02-.02-.15-.15-.27-.23-.19-.38.07-.54.93-1.55 1.39-.58.26-.69-.36-.49-2.56.04-5.1a1.9 1.87 42.5 0 0-.05-.99q-.16-.5-.22-1.02-.05-.54-.38-.98-1.61-2.17-3.08-4.26c-1.17-1.66-3.42-2.3-5.15-3.33-.81-.49-1.76-.42-2.5-1.11q-.74-.7-1.64-1.1-2.37-1.03-4.82-1.5c-1.83-.36-3.54-1.2-4.91-2.46q-2.46-2.28-5.14-4.05-.13-.08-3.29-2.49-2.03-1.55-4.71-2.03l.04-103.6a.54.53 90 0 1 .53-.54l231.68-.03a.68.68 0 0 1 .68.68l-.11 95.76Zm-38.73-61.89a7.52 7.52 0 0 0-7.52-7.52h-141.1a7.52 7.52 0 0 0-7.52 7.52v.18a7.52 7.52 0 0 0 7.52 7.52h141.1a7.52 7.52 0 0 0 7.52-7.52v-.18Zm-156.65 35.92q-3.41 8.79-3.38 16.52.07 16.05.16 32.04.01 2.13 2.14 2.1 16.92-.27 34.63-.22 6.73.02 11.45-1.35 5.82-1.69 10.63-5.07 12.83-9.96 12.97-24.75.17-18 .1-37.03a1.73 1.73 0 0 0-1.73-1.73q-22.04-.06-39.47.2c-1.98.03-4.19.22-6.08 1.05-3.66 1.61-7.08 2.13-10.23 4.91-3.99 3.51-9.22 8.09-11.19 13.33Zm151.43-1.682a7.41 7.41 0 0 0-7.397-7.423l-51.52-.09a7.41 7.41 0 0 0-7.423 7.397v.38a7.41 7.41 0 0 0 7.397 7.423l51.52.09a7.41 7.41 0 0 0 7.423-7.397v-.38Zm-23.793 33.794a7.52 7.52 0 0 0-7.572-7.468l-27.44.192a7.52 7.52 0 0 0-7.467 7.572l.005.62a7.52 7.52 0 0 0 7.572 7.468l27.44-.192a7.52 7.52 0 0 0 7.467-7.572l-.005-.62Z"/><path fill="#d8e6f1" d="M213.28 562.92q2.84 7.92 8.85 12.7 7.92 6.29 16.88 7.35 3.97.47 17.98.38 16.9-.1 31.08-.1.52 0 .53.52l.27 10.92q-29.41 1.11-45.86.59-13.82-.43-22.47-10.33-3.85-4.39-5.64-10.23-1.8-5.88-1.62-11.8Z"/><path fill="#7c9bad" d="m302.15 564.5 6.47 6.6q-.67-.09-1.14-.58-2.75-2.85-5.33-6.02ZM309.16 572.78l-.02 19.21q-1.36-9.96-.52-18.62.05-.43.54-.59Z"/><path fill="#03305d" d="m155.16 667.45-9.45 2.79q-.51.15-.53.68-.19 4.29-.15 9c.04 5.11-3.37 9.41-8.69 9.59q-5.62.19-9.12-5.64l-1.35-12.99q-.06-.52-.57-.62c-14.95-2.86-26.15-15.12-29.7-29.87a1.54 1.53-15.1 0 0-1.93-1.11q-5.85 1.72-10.68-1.1c-4.54-2.64-6.18-9.5-2.47-13.61 3.89-4.29 9.36-3.69 14.53-3.09a1 .99 7.8 0 0 1.1-.83q2.54-16.46 16.25-25.33 6.19-4 12.82-4.68a1.11 1.11 0 0 0 1-1.13q-.06-4.06.36-8.07c.43-4.09 3.48-7.35 7.33-8.27 5.86-1.4 11.41 4.33 11.23 10.02q-.09 3.06.03 6.09.04.97 1 1.12c15.28 2.39 26.91 15.31 30.45 29.75a.97.96-20.3 0 0 1.37.63l33.13-16.69a.84.82 44.2 0 1 .75 0q15.18 7.63 29.14 15.36 10.54 5.83 20.35 10.83 1.19.61.41 1.7-.71.97-1.77 1.53-23.88 12.62-46.22 23.48-3.11 1.52-5.79.15-14.3-7.26-30.75-14.9a1.1 1.1 0 0 0-1.51.67q-5.23 16.79-20.57 24.54Zm-14.723-13.114a24.23 23.92 79.4 0 0 19.055-28.216 24.23 23.92 79.4 0 0-27.97-19.417 24.23 23.92 79.4 0 0-19.054 28.217 24.23 23.92 79.4 0 0 27.97 19.417ZM211.25 641.2a.63.63 0 0 0 .56 0l18.45-9a.63.63 0 0 0 .03-1.11L212 621.11a.63.63 0 0 0-.58-.01l-19.26 9.54a.63.63 0 0 0 0 1.13l19.09 9.43Z"/><rect width="156.14" height="15.22" x="564.97" y="573.04" fill="#03305d" rx="7.52"/><path fill="#1abef7" d="M620.09 660.5q-.97-3.22-1.56-4.15-1.89-2.95-10.41-11.41c5.41-5.43 9.11-8.77 8.87-16.7q-.2-6.57.04-12.73.02-.64-.62-.64-9.34 0-18.34-.02c-6.24-.02-9.69 1.99-14.02 6.48q-4.53 4.7-4.96 9.94-.65.44-.53.08a.36.35 40.3 0 0-.03-.31q-.6-1-.54-.28a.04.04 0 0 1-.07.02q-.18-.43.04-.75.28-.42-.21-.54l-.49-.12q-.58-.15-.89-.66-1.27-2.13-3.7-3.26-.51-.24-.94-.61l-6.5-5.55q-.39-.33-.47-.83l-.3-1.98c1.97-5.24 7.2-9.82 11.19-13.33 3.15-2.78 6.57-3.3 10.23-4.91 1.89-.83 4.1-1.02 6.08-1.05q17.43-.26 39.47-.2a1.73 1.73 0 0 1 1.73 1.73q.07 19.03-.1 37.03-.14 14.79-12.97 24.75Z"/><ellipse fill="#fefdf5" rx="24.23" ry="23.92" transform="rotate(79.4 -311.743 397.154)"/><rect width="66.34" height="15.2" x="-33.17" y="-7.6" fill="#03305d" rx="7.41" transform="rotate(.1 -351987.488 391477.112)"/><path fill="#fefdf5" d="M608.12 644.94c-1.62 1.37-3.09 2.28-5.36 2.29q-11.61.05-22.96.01a.83.82.7 0 1-.82-.83l.11-15.14q.43-5.24 4.96-9.94c4.33-4.49 7.78-6.5 14.02-6.48q9 .02 18.34.02.64 0 .62.64-.24 6.16-.04 12.73c.24 7.93-3.46 11.27-8.87 16.7Z"/><path fill="#7ae7fd" d="m564.46 616.48.3 1.98q.08.5.47.83l6.5 5.55q.43.37.94.61 2.43 1.13 3.7 3.26.31.51.89.66l.49.12q.49.12.21.54-.22.32-.04.75a.04.04 0 0 0 .07-.02q-.06-.72.54.28a.36.35 40.3 0 1 .03.31q-.12.36.53-.08l-.11 15.14a.83.82.7 0 0 .82.83q11.35.04 22.96-.01c2.27-.01 3.74-.92 5.36-2.29q8.52 8.46 10.41 11.41.59.93 1.56 4.15-4.81 3.38-10.63 5.07-4.72 1.37-11.45 1.35-17.71-.05-34.63.22-2.13.03-2.14-2.1-.09-15.99-.16-32.04-.03-7.73 3.38-16.52Z"/><path fill="#7c9bad" d="M309.03 620.25q.29 33.55.22 84.25-.01 6.47-.71 11.89-.39-11.3-.29-22.39.11-12.21.01-19.99-.36-26.89.77-53.76Z"/><path fill="#fefdf5" d="m211.25 641.2-19.09-9.43a.63.63 0 0 1 0-1.13l19.26-9.54a.63.63 0 0 1 .58.01l18.29 9.98a.63.63 0 0 1-.03 1.11l-18.45 9a.63.63 0 0 1-.56 0Z"/><path fill="#d8e6f1" d="M288.96 629.49q.1 36.37-.13 73.16-.07 9.72-1.47 12.91-3.04 6.9-10.32 9.5c-2.88 1.03-5.98.83-9.04.82q-76.46-.09-189.47.05-2.35 0-5.19-1.28-10.19-4.59-10.75-15.91-.53-10.64-.28-46.74.64.2.59 1-.01.32.3.29.22-.02.42.09 1.34.79 2.76 1.48c1.88.92 3.24 2.27 5.38 2.75q.21.05.28.26.11.31.42.41l13.53 4.27q.42.13.45-.31.02-.26.26-.22a1.56 1.07-18.6 0 1 .35.1q3.09 1.32 6.76 2.63.28.1.46.34.11.15.16.32.03.1.12.14 2.55 1.13 5.03 1.71 3.88.9 8.01 1.91 2.78.67 5.71 1.79 3.3 1.25 5.71 1.94 2.27.65 4.44 1.38 1.02.34 1.89.22 1.41-.21 1.88-.63 3.5 5.83 9.12 5.64c5.32-.18 8.73-4.48 8.69-9.59q-.04-4.71.15-9 .02-.53.53-.68l9.45-2.79q-.13.58.55.92a.39.38 9.7 0 0 .56-.39q-.04-.24.15-.32.59-.25.47.38-.36 1.78 1.36 1.94 1.61.15 6.52-.36 3.19-.33 6.39-.97 5-1.02 10.33-1.79 8.88-1.27 17.5-3 .57-.12 1.13-.02.7.11 1.38-.04 3.33-.75 6.39-.99.93-.08.05-.39l-.66-.24q-.72-.26.05-.27l2.73-.02a1.26 1.23 23.2 0 0 .8-.31q1.67-1.51 3.91-1.48.48.01.9-.2l3.53-1.79q.44-.23.94-.21.43.02.82-.16 1.62-.71 3.26-1.17 1.44-.4 2.65-1.11 3.17-1.88 6.47-2.68.49-.12.87-.46.54-.51 1.22-.26.45.16.89-.01.9-.35 1.9-.46 1.08-.12 2.24-.61 4.14-1.77 9.25-3.77 2.53-.99 4.88-1.17 2.72-.2 5-1.07 4.32-1.64 8.9-3.94 1.74-.87 3.02-2.02 1.64-1.49 3.69-1.94.35-.07.47-.41.05-.12.13-.23.07-.08.18-.13c2.07-.89 3.93-2.23 5.92-3.09q3.72-1.6 7.06-3.72Z"/><rect width="42.48" height="15.66" x="-21.24" y="-7.83" fill="#03305d" rx="7.52" transform="rotate(-.4 93304.617 -95768.701)"/><path fill="#d8e6f1" d="M759.84 642.45q-.04 31.35-.02 62.69 0 7.04-1.29 10.1-2.73 6.47-9.6 9.38-3.21 1.37-10.15 1.35-98.17-.25-193.33-.05c-12.62.02-18.39-8.35-18.4-19.94q-.02-27.87-.03-55.8 2.68.48 4.71 2.03 3.16 2.41 3.29 2.49 2.68 1.77 5.14 4.05c1.37 1.26 3.08 2.1 4.91 2.46q2.45.47 4.82 1.5.9.4 1.64 1.1c.74.69 1.69.62 2.5 1.11 1.73 1.03 3.98 1.67 5.15 3.33q1.47 2.09 3.08 4.26.33.44.38.98.06.52.22 1.02a1.9 1.87 42.5 0 1 .05.99q-.53 2.54-.04 5.1.11.62.69.36 1.01-.46 1.55-1.39.15-.26.38-.07.13.12.15.27.01.09.06.02.7-.91 1.84-.73c-4.58 3.16-5.43 9.6-.64 12.94 2.25 1.56 6.31 1.19 9.1 1.19q68.68-.02 135.63-.21a1.31 1.31 0 0 1 1.09.58q3.91 5.79 11.24 5.59c11.48-.32 17.49-13.37 9.45-22.06-4.45-4.81-11.23-5.61-16.72-2.68-1.39.74-2.47 2.07-3.76 2.98q-.44.31-.98.31l-34.31.02q4.22-.6 7.44-1.86 1.88-.74 5.23-.6.46.02.79.3.32.27.74.29c1.69.07 3.3.44 5.01.13q3.85-.71 8.04-.52 1.19.05 2.26-.18 1.1-.23 2.2-.22 1.51.01 2.7-.47 1.84-.74 3.32-1.9 3.07-2.4 6.75-4.04.28-.13.32-.45.03-.26.27-.36 3.66-1.39 6.91-3.67c1.59-1.11 3.29-1.6 4.83-2.68q.93-.66 1.9-1.19 5.63-3.12 10.98-6.19 2.13-1.22 3.87-3.32 1.36-1.63 3.13-2.57 1.92-1.01 2.87-2.7.3-.53.87-.74 1.44-.52 1.77-2.33Z"/><path fill="#03305d" d="M567.54 679.06q2.29-1.21 3.46-1.21 53.41-.06 106.64-.13l34.31-.02q.54 0 .98-.31c1.29-.91 2.37-2.24 3.76-2.98 5.49-2.93 12.27-2.13 16.72 2.68 8.04 8.69 2.03 21.74-9.45 22.06q-7.33.2-11.24-5.59a1.31 1.31 0 0 0-1.09-.58q-66.95.19-135.63.21c-2.79 0-6.85.37-9.1-1.19-4.79-3.34-3.94-9.78.64-12.94Z"/><path fill="#7c9bad" d="M779.4 717.43q-3.32 16.64-17.32 24.53 5.39-3.93 9.96-8.89c1.98-2.15 2.77-4.68 4.18-7.16q1.04-1.82 1.68-4.15.6-2.19 1.5-4.33Z"/><path fill="#d8e6f1" d="M676.5 768.86q44.19-.04 88.82-.04 2.76 0 3.96.79 2.83 1.87 3.89 4.84c.62 1.77-.16 3.66-.79 5.35q-.2.53-.71.75-3.41 1.44-7.16 1.44-356.83.01-714.3.24a2.87 2.86-2 0 1-2.86-2.66l-.25-3.38q-.05-.77.5-1.31 1.58-1.58 1.79-3.49.07-.59.63-.78c1.56-.53 3.02-1.09 4.7-1.09q41.34.05 84.78-.02 261.04-.4 537-.64Z"/></svg>
