<svg xmlns="http://www.w3.org/2000/svg" viewBox="0 0 732 732"><g fill="none" stroke-width="2"><path stroke="#2a2a62" d="M251.24 152.31q-.21.62-1.77.79c-1.82.2-2.28 1.67-2.45 3.26q-.37 3.49-7.19 3.53" vector-effect="non-scaling-stroke"/><path stroke="#3799b2" d="m239.83 159.89-4.67-4.11" vector-effect="non-scaling-stroke"/><path stroke="#5f9ab6" d="m235.16 155.78-21.82-20.57q-.39-.37-.92-.36l-7.96.14" vector-effect="non-scaling-stroke"/><path stroke="#999bb8" d="m204.46 134.99-25.77.02a1.27 1.26 0 0 1-1.27-1.26l-.02-21.04a.7.7 0 0 0-.69-.7l-53.8-.18a.5.5 0 0 0-.5.51l.46 35.41q.01.37.38.36l23.61-.25a.38.38 0 0 1 .39.38l-.21 69.8" vector-effect="non-scaling-stroke"/><path stroke="#2a2a62" d="m147.04 218.04-2.13-2.29a.62.62 0 0 0-1.02.15c-2.04 4.08-4.25 9.98-9.59 9.95" vector-effect="non-scaling-stroke"/><path stroke="#63fdf7" d="m235.16 155.78.25 30.66" vector-effect="non-scaling-stroke"/><path stroke="#13266e" d="m337.29 250.54-12.17-11.3" vector-effect="non-scaling-stroke"/><path stroke="#117193" d="m325.12 239.24-39.8-35.74" vector-effect="non-scaling-stroke"/><path stroke="#27819c" d="m285.32 203.5-24.87-23.74" vector-effect="non-scaling-stroke"/><path stroke="#2e8da2" d="m260.45 179.76-20.62-19.87" vector-effect="non-scaling-stroke"/><path stroke="#4074a8" d="m149.27 263.92 26.43.37" vector-effect="non-scaling-stroke"/><path stroke="#4484a9" d="M175.7 264.29q.02 21.98.05 43.96 0 .65.26.92.38.39 1.06.28" vector-effect="non-scaling-stroke"/><path stroke="#484fa5" d="m177.07 309.45 27.36.01" vector-effect="non-scaling-stroke"/><path stroke="#211c68" d="m204.43 309.46.06 19.52a1.32 1.31-.2 0 0 1.33 1.31l27.91-.19a1.71 1.7.5 0 0 1.7-1.66l.43-18.66" vector-effect="non-scaling-stroke"/><path stroke="#11347e" d="m235.86 309.78 51.66-.12" vector-effect="non-scaling-stroke"/><path stroke="#114991" d="m295.47 331.15-34.27.02a.68.67 0 0 0-.68.67l.05 20.4" vector-effect="non-scaling-stroke"/><path stroke="#908fa9" d="m260.57 352.24-62.61.07a.69.69 0 0 0-.69.69l.01 51.99" vector-effect="non-scaling-stroke"/><path stroke="#1f7ba9" d="m197.28 404.99-.09 11.93" vector-effect="non-scaling-stroke"/><path stroke="#1d1a49" d="M197.19 416.92q-1.58 1.26-2.61 3.38a1.42 1.4-89.2 0 1-.67.66l-3.97 1.81q-.44.2-.73.59-1.31 1.77-3.29 2.8a1.94 1.86-.1 0 0-.76.73q-1.15 1.98-1.37 4.2-.05.46.19.86l.66 1.06q.29.48 0 .96-.51.85-.67 1.85-.07.45-.53.52-.45.07-.99-.11" vector-effect="non-scaling-stroke"/><path stroke="#c5fefd" d="m204.46 134.99-.5 49.39q-.03 2.23 2.21 2.22l29.24-.16" vector-effect="non-scaling-stroke"/><path stroke="#9dfef9" d="m235.41 186.44.11 24.59" vector-effect="non-scaling-stroke"/><path stroke="#c5fefd" d="M235.52 211.03q-.15.17-.34.29-.16.09-.4.09-15.63-.21-31.39-.19" vector-effect="non-scaling-stroke"/><path stroke="#8fecff" d="m203.39 211.22-.09-25.68a.32.32 0 0 0-.32-.32l-25.33.1a.63.63 0 0 0-.62.63l.21 51.63" vector-effect="non-scaling-stroke"/><path stroke="#86d9f9" d="m177.24 237.58-.04 26.17" vector-effect="non-scaling-stroke"/><path stroke="#80c9ec" d="M177.2 263.75q-.33.21-.48.52" vector-effect="non-scaling-stroke"/><path stroke="#b4f4ff" d="M176.72 264.27q-.64.22-.89-.74" vector-effect="non-scaling-stroke"/><path stroke="#afe4ff" d="m175.83 263.53-.01-26.19" vector-effect="non-scaling-stroke"/><path stroke="#b4f4ff" d="m175.82 237.34.01-24.72a1.13 1.13 0 0 0-1.14-1.13l-24.69.12a.81.8-90 0 0-.8.81l.06 24.86" vector-effect="non-scaling-stroke"/><path stroke="#afe4ff" d="m149.26 237.28.01 26.64" vector-effect="non-scaling-stroke"/><path stroke="#908fa9" d="M149.27 263.92q-1.59-.08-1.6-.74-.34-22.58-.63-45.14" vector-effect="non-scaling-stroke"/><path stroke="#35f0ec" d="M260.45 179.76q-1.64 2.58-1.17 6.16.66 5.05.67 5.41c.18 6.62 1.19 15.49-.39 19a1.26 1.26 0 0 0-.03.93l.21.59" vector-effect="non-scaling-stroke"/><path stroke="#24d7f2" d="m259.74 211.85-24.08-.01" vector-effect="non-scaling-stroke"/><path stroke="#63fdf7" d="M235.66 211.84q.06-.38-.14-.81" vector-effect="non-scaling-stroke"/><path stroke="#2835aa" d="m337.66 266.07-20.6.16" vector-effect="non-scaling-stroke"/><path stroke="#043b9a" d="M317.06 266.23q-.45.14-.58-.3" vector-effect="non-scaling-stroke"/><path stroke="#0d2679" d="M316.48 265.93q-.03.39.25.14a.46.43 69.8 0 0 .14-.33c-.09-3.32.93-11.78-2.18-13.73q-6.38-4.02-12.56-9.83" vector-effect="non-scaling-stroke"/><path stroke="#18d3dc" d="M285.32 203.5c-.73 2.81.32 5.01.12 7.69a1.4 1.39 2 0 1-1.38 1.28l-19.57.14" vector-effect="non-scaling-stroke"/><path stroke="#26def2" d="m264.49 212.61-4-.03" vector-effect="non-scaling-stroke"/><path stroke="#1dcbec" d="M260.49 212.58q-.19-.65-.75-.73" vector-effect="non-scaling-stroke"/><path stroke="#0478af" d="m325.12 239.24-20.25-.29" vector-effect="non-scaling-stroke"/><path stroke="#018ec5" d="m304.87 238.95-19.41-.51" vector-effect="non-scaling-stroke"/><path stroke="#01abd6" d="M285.46 238.44q-.5-.41-.91-.55" vector-effect="non-scaling-stroke"/><path stroke="#10cee9" d="M284.55 237.89c.74-3.08.83-7.23-1.11-8.83q-4.87-4-9.63-8.14-4.31-3.75-9.32-8.31" vector-effect="non-scaling-stroke"/><path stroke="#171a54" d="m377.46 435.41-.01-55.33" vector-effect="non-scaling-stroke"/><path stroke="#0e3075" d="m377.45 380.08-.15-23.62" vector-effect="non-scaling-stroke"/><path stroke="#0e3f83" d="m377.3 356.46.03-23.88" vector-effect="non-scaling-stroke"/><path stroke="#454b9b" d="m377.33 332.58.11-42.57" vector-effect="non-scaling-stroke"/><path stroke="#8d8b9f" d="m377.44 290.01-.15-22.46" vector-effect="non-scaling-stroke"/><path stroke="#528a9d" d="m377.29 267.55-.02-18.83q0-.56-.55-.55l-18.41.06a.32.32 0 0 0-.31.32l.19 19.24" vector-effect="non-scaling-stroke"/><path stroke="#8d8b9f" d="M358.19 267.79v22.17" vector-effect="non-scaling-stroke"/><path stroke="#454b9b" d="m358.19 289.96.01 42.72" vector-effect="non-scaling-stroke"/><path stroke="#0e3f83" d="m358.2 332.68.01 24.61" vector-effect="non-scaling-stroke"/><path stroke="#0e3075" d="m358.21 357.29.1 22.97" vector-effect="non-scaling-stroke"/><path stroke="#171a54" d="m358.31 380.26.48 55.11" vector-effect="non-scaling-stroke"/><path stroke="#32176d" d="m315.06 478.51.45-23.62a1.56 1.52 29.7 0 0-.25-.87l-.32-.5" vector-effect="non-scaling-stroke"/><path stroke="#0d558c" d="m314.94 453.52.64-22.91" vector-effect="non-scaling-stroke"/><path stroke="#0d377b" d="M315.58 430.61q10.41-9.15 20.26-17.2c2.49-2.03 2.05-5.07 1.89-8.42" vector-effect="non-scaling-stroke"/><path stroke="#171a54" d="m337.73 404.99-.28-25.89" vector-effect="non-scaling-stroke"/><path stroke="#102265" d="m337.45 379.1.1-25.08" vector-effect="non-scaling-stroke"/><path stroke="#1c779f" d="m337.55 354.02-.2-22.23q0-.55-.48-.81-.65-.36-1.24-.19" vector-effect="non-scaling-stroke"/><path stroke="#171a54" d="M335.63 330.79q-11.68-.34-22.66.17c-2.95.14-6.64-.9-9.9.13" vector-effect="non-scaling-stroke"/><path stroke="#0e4588" d="m303.07 331.09-7.6.06" vector-effect="non-scaling-stroke"/><path stroke="#1d1a49" d="M295.47 331.15q-15.91-2.54-7.95-21.49" vector-effect="non-scaling-stroke"/><path stroke="#0e3075" d="m287.52 309.66 14.76.09" vector-effect="non-scaling-stroke"/><path stroke="#171a54" d="m302.28 309.75 33.49-.43a1.86 1.85 89.8 0 0 1.83-1.85l.08-16.41" vector-effect="non-scaling-stroke"/><path stroke="#322984" d="m337.68 291.06-.02-24.99" vector-effect="non-scaling-stroke"/><path stroke="#102265" d="m337.66 266.07-.37-15.53" vector-effect="non-scaling-stroke"/><path stroke="#1d1a49" d="M337.29 250.54q.34-.98.09-1.91a.73.73 0 0 1 .39-.84c3.53-1.75 5.72-2.92 10.09-5.55 2.29-1.38 5.12-2.19 7.16-3.14q4.14-1.93 8.43-3.55 2.04-.77 4.49-2.52 4.6-3.29 9.88-3.75M399.63 227.63q.08 2.4.09 4.59c.02 2.89-.96 6.08-.97 9.27q0 .52.29.94 1.43 2.09.77 5.32" vector-effect="non-scaling-stroke"/><path stroke="#0f4d8d" d="M399.81 247.75c-3.28 2.18-1.8 5.33-1.8 8.53" vector-effect="non-scaling-stroke"/><path stroke="#171a54" d="M398.01 256.28q-.28 5.61-.74 11.19c-.48 5.83-.35 11.4-.39 17.14-.01 1.72.38 3.69.38 5.56-.02 5.96.4 11.85.86 17.76a1.52 1.52 0 0 0 1.48 1.4l33.73.55" vector-effect="non-scaling-stroke"/><path stroke="#0e3075" d="m433.33 309.88 66.2-.49" vector-effect="non-scaling-stroke"/><path stroke="#1e185e" d="M499.53 309.39q.51-.12.49.61-.2 8.65.21 17.06.14 2.93 3.07 2.93l27.07.02a.92.92 0 0 0 .92-.9l.27-17.41a2.24 2.24 0 0 1 2.24-2.21h23.98a.91.9-89.7 0 0 .9-.9l.08-17.85" vector-effect="non-scaling-stroke"/><path stroke="#0e3075" d="m558.76 290.74.57-26.11" vector-effect="non-scaling-stroke"/><path stroke="#32176d" d="m559.33 264.63 25.77-.61q.67-.02.68-.69l.09-25.93" vector-effect="non-scaling-stroke"/><path stroke="#0f4d8d" d="m585.87 237.4.14-26.15" vector-effect="non-scaling-stroke"/><path stroke="#8d8b9f" d="m586.01 211.25.02-25.16" vector-effect="non-scaling-stroke"/><path stroke="#136499" d="m586.03 186.09-.01-26.76" vector-effect="non-scaling-stroke"/><path stroke="#8d8b9f" d="m586.02 159.33.23-10.83q.01-.48.49-.48l26.53-.08a.5.5 0 0 0 .5-.5v-34.92q0-.49-.5-.5l-24.02-.24" vector-effect="non-scaling-stroke"/><path stroke="#1d1a49" d="M589.25 111.78q-.59-2.15.14-4.84c.47-1.72.09-3.19.38-4.92q.22-1.4-1-2.43" vector-effect="non-scaling-stroke"/><path stroke="#6cb5fb" d="m177.11 291.08-.04 18.37" vector-effect="non-scaling-stroke"/><path stroke="#6c8ff6" d="M199.52 429.94q-.27-.04-.61.2" vector-effect="non-scaling-stroke"/><path stroke="#769ef6" d="m198.91 430.14-1.55-.18" vector-effect="non-scaling-stroke"/><path stroke="#1c779f" d="m197.36 429.96-.17-13.04" vector-effect="non-scaling-stroke"/><path stroke="#743d96" d="m197.36 429.96-.07 23.84a.79.79 0 0 0 .47.72q.67.29 2.03.32" vector-effect="non-scaling-stroke"/><path stroke="#6a2e96" d="m199.79 454.84 34.56-.03" vector-effect="non-scaling-stroke"/><path stroke="#136499" d="M234.35 454.81q.07.16.29.16" vector-effect="non-scaling-stroke"/><path stroke="#0d377b" d="m234.64 454.97-.02 24.77" vector-effect="non-scaling-stroke"/><path stroke="#0e3075" d="m234.62 479.74.43 2.22" vector-effect="non-scaling-stroke"/><path stroke="#32176d" d="m235.05 481.96-.16 23.12q-.01 1.45 1.43 1.44l23.34-.1" vector-effect="non-scaling-stroke"/><path stroke="#102265" d="m259.66 506.42 24.39-.1a.91.91 0 0 0 .9-.89q.18-6.6.24-13.44c.03-3-.58-6.28.56-9.81" vector-effect="non-scaling-stroke"/><path stroke="#32176d" d="m285.75 482.18 29.21-.72" vector-effect="non-scaling-stroke"/><path stroke="#424fb0" d="m235.45 264.52-.05 25.44" vector-effect="non-scaling-stroke"/><path stroke="#7154df" d="M235.4 289.96q-.16.51-.65.49-14.55-.33-28.74-.11a1.07 1.06-.3 0 0-1.06 1.06l-.04 17.83" vector-effect="non-scaling-stroke"/><path stroke="#494dba" d="m204.91 309.23-.48.23" vector-effect="non-scaling-stroke"/><path stroke="#81bae8" d="M261.17 353.01q-.22-.42-.6-.77" vector-effect="non-scaling-stroke"/><path stroke="#64d9ff" d="M175.83 263.53q-.16.37-.13.76" vector-effect="non-scaling-stroke"/><path stroke="#2643ba" d="m317.06 266.23-.73 24.77" vector-effect="non-scaling-stroke"/><path stroke="#0b3489" d="m316.33 291-12.36-.31a1.3 1.3 0 0 0-1.34 1.28l-.35 17.78" vector-effect="non-scaling-stroke"/><path stroke="#123194" d="M235.86 309.78q-.13-.56-.52-.83" vector-effect="non-scaling-stroke"/><path stroke="#3a38b8" d="m235.34 308.95.27-18.17" vector-effect="non-scaling-stroke"/><path stroke="#c5fefd" d="M260.18 355.13q-10.58-.28-21.18-.43-3.86-.05-5.77 1.78-14.44 13.82-29 27.51c-5.97 5.62-5.23 11.78-4.54 20.35" vector-effect="non-scaling-stroke"/><path stroke="#8fecff" d="m199.69 404.34-2.41.65" vector-effect="non-scaling-stroke"/><path stroke="#4bd8f7" d="m235.66 211.84-.3 25.82" vector-effect="non-scaling-stroke"/><path stroke="#8ebef9" d="m235.36 237.66-31.31-.19" vector-effect="non-scaling-stroke"/><path stroke="#64d9ff" d="M175.82 237.34c-2.82-.04-5.62.66-8.1.66q-5.87.01-11.75.01-.53 0-.99-.27-.49-.27-.98-.01-.5.26-1 0-.72-.38-1.35.14a.68.66 41.5 0 1-.78.04q-.8-.51-1.61-.63" vector-effect="non-scaling-stroke"/><path stroke="#4f98f4" d="m203.93 238.2.03 25.22" vector-effect="non-scaling-stroke"/><path stroke="#06a3e5" d="m203.96 263.42-26.76.33" vector-effect="non-scaling-stroke"/><path stroke="#54ebfd" d="M203.39 211.22q-.63 12.11.06 24.78.03.7.6 1.47" vector-effect="non-scaling-stroke"/><path stroke="#58abfb" d="M204.05 237.47q-.15.44-.12.73" vector-effect="non-scaling-stroke"/><path stroke="#15c5f9" d="M203.93 238.2q0-.58-.93-.57-12.79.11-25.76-.05" vector-effect="non-scaling-stroke"/><path stroke="#388ae8" d="M204.28 264.09q-.12-.04-.24-.09a.02.01 0 0 0-.02.01L203.9 290q-.01.53-.53.5-13.06-.61-26.26.58" vector-effect="non-scaling-stroke"/><path stroke="#34beec" d="m177.11 291.08-.39-26.81" vector-effect="non-scaling-stroke"/><path stroke="#15c5f9" d="m260.49 212.58.29 25.38" vector-effect="non-scaling-stroke"/><path stroke="#0793e1" d="m260.78 237.96-25.3.06" vector-effect="non-scaling-stroke"/><path stroke="#4f98f4" d="M235.48 238.02q.4-.05-.12-.36" vector-effect="non-scaling-stroke"/><path stroke="#0343a0" d="M304.87 238.95c-.76.95-1.81 1.18-2.41 2.09q-.48.72-.33 1.14" vector-effect="non-scaling-stroke"/><path stroke="#0a3b8f" d="m302.13 242.18.28 22.79" vector-effect="non-scaling-stroke"/><path stroke="#0f98db" d="m302.41 264.97-18.69-.13" vector-effect="non-scaling-stroke"/><path stroke="#2f2d99" d="m337.68 291.06-21.35-.06" vector-effect="non-scaling-stroke"/><path stroke="#0b3489" d="m316.48 265.93-14-.25" vector-effect="non-scaling-stroke"/><path stroke="#197bb4" d="M302.48 265.68q-.04-.35-.07-.71" vector-effect="non-scaling-stroke"/><path stroke="#0fb6ec" d="m284.55 237.89-23.77.07" vector-effect="non-scaling-stroke"/><path stroke="#0076c7" d="M285.46 238.44q-1.06.42-1.08 1.86-.18 11.43-.16 22.87 0 .5-.26.91-.2.33-.24.76" vector-effect="non-scaling-stroke"/><path stroke="#0fb6ec" d="m283.72 264.84-22.93-.08" vector-effect="non-scaling-stroke"/><path stroke="#0a59a0" d="M260.79 264.76q-.05-.6-.49-.57" vector-effect="non-scaling-stroke"/><path stroke="#2556ba" d="m314.94 453.52-7.53.03" vector-effect="non-scaling-stroke"/><path stroke="#4989e7" d="m307.41 453.55-21.67.48" vector-effect="non-scaling-stroke"/><path stroke="#016ec1" d="m285.74 454.03-.13-25.12" vector-effect="non-scaling-stroke"/><path stroke="#0076c7" d="M315.58 430.61q.57-.17-.57-1.46" vector-effect="non-scaling-stroke"/><path stroke="#0f98db" d="m315.01 429.15.16-24.17" vector-effect="non-scaling-stroke"/><path stroke="#0a3b8f" d="M337.73 404.99q-10.43-.21-20.86-.4-1.13-.02-1.7-.53" vector-effect="non-scaling-stroke"/><path stroke="#2631a3" d="m559.33 264.63-.42-1.01" vector-effect="non-scaling-stroke"/><path stroke="#2640b1" d="m558.91 263.62-.05-25.59" vector-effect="non-scaling-stroke"/><path stroke="#424fb0" d="m398.65 265.63-.41 24.63a.67.67 0 0 0 .67.68l20.18.07" vector-effect="non-scaling-stroke"/><path stroke="#0a3b8f" d="M419.09 291.01q6.41.06 11.91-.08 1.09-.03 1.89.51" vector-effect="non-scaling-stroke"/><path stroke="#0b3489" d="M432.89 291.44q.44.69.45 1.06.12 5.67-.01 17.38" vector-effect="non-scaling-stroke"/><path stroke="#86d9f9" d="m586.02 159.33-25.7.16a.49.49 0 0 0-.48.49l.21 25.04a1.32 1.32 0 0 0 1.33 1.31l24.65-.24" vector-effect="non-scaling-stroke"/><path stroke="#81c2ed" d="m586.01 211.25-26.95.34" vector-effect="non-scaling-stroke"/><path stroke="#86d9f9" d="M559.06 211.59q-.77.05-1.2-.19-.4-.22-.38-.97.24-11.97.35-24.1a1.1 1.1 0 0 0-1.1-1.11l-25.54.05" vector-effect="non-scaling-stroke"/><path stroke="#c5fefd" d="m531.19 185.27-.57-42.9a1.03 1.03 0 0 0-.75-.98c-5.21-1.41-8.42 1.62-11.93 4.79q-21.14 19.13-42.47 38.03c-9.2 8.14-18.55 17.15-27.23 24.78q-12.24 10.76-24.4 21.6-5.1 4.56-7.57 9.01" vector-effect="non-scaling-stroke"/><path stroke="#81c2ed" d="M416.27 239.6q-4.24.79-8.37.18" vector-effect="non-scaling-stroke"/><path stroke="#0d2679" d="M337.45 379.1c-5.39-.13-10.56-.32-16.06.34q-3.16.38-6.26.51" vector-effect="non-scaling-stroke"/><path stroke="#044ba9" d="M315.13 379.95c-1.27-6.17 1.62-5.99 4.35-9.67 4.03-5.43 10.62-9.79 15.7-14.36q.53-.47.51-1.21" vector-effect="non-scaling-stroke"/><path stroke="#3974df" d="m377.33 332.58-19.13.1" vector-effect="non-scaling-stroke"/><path stroke="#0b3489" d="m377.45 380.08-19.14.18" vector-effect="non-scaling-stroke"/><path stroke="#c5fefd" d="m377.29 267.55-19.1.24" vector-effect="non-scaling-stroke"/><path stroke="#0b51a1" d="M419.23 252.69q-1.29 6.61-.24 13.05" vector-effect="non-scaling-stroke"/><path stroke="#3a82e9" d="m418.99 265.74-20.34-.11" vector-effect="non-scaling-stroke"/><path stroke="#0b51a1" d="m398.65 265.63-.64-9.35" vector-effect="non-scaling-stroke"/><path stroke="#123194" d="m558.76 290.74-27.37.23" vector-effect="non-scaling-stroke"/><path stroke="#3a38b8" d="M531.39 290.97q.09.43-.33-.44" vector-effect="non-scaling-stroke"/><path stroke="#282393" d="M285.75 482.18q-.56.07-.95-.5" vector-effect="non-scaling-stroke"/><path stroke="#5e20b1" d="m284.8 481.68 1.26-8.56" vector-effect="non-scaling-stroke"/><path stroke="#3a38b8" d="m499.62 291.33.32 17.6" vector-effect="non-scaling-stroke"/><path stroke="#123194" d="M499.94 308.93q.23.07-.41.46" vector-effect="non-scaling-stroke"/><path stroke="#1283c5" d="M337.55 354.02q-.78.55-1.86.69" vector-effect="non-scaling-stroke"/><path stroke="#10a0e3" d="m335.69 354.71-19.16-.26a1.27 1.26-89.1 0 0-1.28 1.25l-.24 17.56a1.58 1.54-23 0 1-.46 1.1l-29.02 28.69" vector-effect="non-scaling-stroke"/><path stroke="#54ebfd" d="m285.53 403.05.18-22.43" vector-effect="non-scaling-stroke"/><path stroke="#10a6e8" d="m285.71 380.62.19-18.22a.48.47 69.5 0 0-.79-.36l-20.4 18.13" vector-effect="non-scaling-stroke"/><path stroke="#54ebfd" d="m264.71 380.17-3.47.66" vector-effect="non-scaling-stroke"/><path stroke="#0fb6ec" d="M261.24 380.83q-.22-.64-.88-.87" vector-effect="non-scaling-stroke"/><path stroke="#54ebfd" d="m260.36 379.96-.18-24.83" vector-effect="non-scaling-stroke"/><path stroke="#8fecff" d="M260.18 355.13q.75-.7.99-2.12" vector-effect="non-scaling-stroke"/><path stroke="#10a6e8" d="m261.17 353.01 33.22-.25a.69.69 0 0 1 .69.7q-.01.35-.18.65-.56.97.55.82 3.99-.57 7.82.94" vector-effect="non-scaling-stroke"/><path stroke="#197bb4" d="M335.63 330.79c-6.32 5.28-11.77 9.73-17.88 15.88q-6.4 6.43-14.48 9.2" vector-effect="non-scaling-stroke"/><path stroke="#0b499c" d="m303.27 355.87-.2-24.78" vector-effect="non-scaling-stroke"/><path stroke="#274ebb" d="m585.87 237.4-27.01.63" vector-effect="non-scaling-stroke"/><path stroke="#0276d1" d="M558.86 238.03q-.43-.24-1.16-.07" vector-effect="non-scaling-stroke"/><path stroke="#908fa9" d="m589.25 111.78-31.24.03a.96.96 0 0 0-.96.96l-.06 21.51a.74.73-90 0 1-.73.74q-15.3-.05-30.75-.02c-1.85 0-3.44.4-4.72 1.55-12.66 11.29-27.48 25.29-41.4 37.72q-36.12 32.24-71.49 65.51" vector-effect="non-scaling-stroke"/><path stroke="#125196" d="m407.9 239.78-8.09 7.97" vector-effect="non-scaling-stroke"/><path stroke="#b8c0fb" d="M377.44 290.01q-9.58.78-19.25-.05" vector-effect="non-scaling-stroke"/><path stroke="#0259b9" d="M377.3 356.46q-7.93-.02-15.56.42c-.7.04-1.23-.34-1.97-.02q-.05.02-.46.34-.43.33-1.1.09" vector-effect="non-scaling-stroke"/><path stroke="#45c8ea" d="m260.36 379.96-24.09-.02a.9.89.3 0 0-.9.88l-.36 23.32" vector-effect="non-scaling-stroke"/><path stroke="#46b9e6" d="m235.01 404.14-7.48.68" vector-effect="non-scaling-stroke"/><path stroke="#54ebfd" d="m227.53 404.82-27.84-.48" vector-effect="non-scaling-stroke"/><path stroke="#c454ec" d="m199.79 454.84.17-21.09q0-.3-.19-.54l-.24-.31q-.32-.39-.04-.8.76-1.15-.58-1.96" vector-effect="non-scaling-stroke"/><path stroke="#10a6e8" d="m235.31 405.21.18 24.03" vector-effect="non-scaling-stroke"/><path stroke="#4a79e3" d="M235.49 429.24q.27.15-.3.51" vector-effect="non-scaling-stroke"/><path stroke="#5e5dde" d="m235.19 429.75-35.67.19" vector-effect="non-scaling-stroke"/><path stroke="#10a6e8" d="M199.52 429.94q.47-.6.94-.96 14.42-10.98 27.07-24.16" vector-effect="non-scaling-stroke"/><path stroke="#077ece" d="M260.74 429.95q-.03 11.78.03 23.55.01.68-.82.93" vector-effect="non-scaling-stroke"/><path stroke="#0685d4" d="M259.95 454.43q-18.65.12-23.45.05-1.24-.02-1.86.49" vector-effect="non-scaling-stroke"/><path stroke="#637cef" d="M234.35 454.81q.27-1.25.94-2.05" vector-effect="non-scaling-stroke"/><path stroke="#4f98f4" d="M235.29 452.76q1.04-.59 1.56-1.16 10.06-10.84 21.22-20.54.55-.48.6-1.14" vector-effect="non-scaling-stroke"/><path stroke="#2631a3" d="M259.54 481.8q-.73-.35-1.54-.37-11.47-.17-22.95.53" vector-effect="non-scaling-stroke"/><path stroke="#3940be" d="M260.9 455.33q.15.41-.03 1.14" vector-effect="non-scaling-stroke"/><path stroke="#0151b0" d="M260.87 456.47q-.09.13-.33.2-.32.1-.54.34-6.95 7.62-15.1 13.86c-3.67 2.81-6.79 5.91-10.28 8.87" vector-effect="non-scaling-stroke"/><path stroke="#282393" d="m259.91 482.07-.25 24.35" vector-effect="non-scaling-stroke"/><path stroke="#0184d4" d="m260.78 237.96-.48 26.23" vector-effect="non-scaling-stroke"/><path stroke="#0b499c" d="M260.3 264.19q-11.78.11-23.55-.04-.55 0-1.3.37" vector-effect="non-scaling-stroke"/><path stroke="#397ae4" d="M235.45 264.52q.3.12.03-.81" vector-effect="non-scaling-stroke"/><path stroke="#4a79e3" d="M235.48 238.02v25.69" vector-effect="non-scaling-stroke"/><path stroke="#817ff7" d="M235.48 263.71q-.14-.05-.23.21-.06.18-.25.18l-30.72-.01" vector-effect="non-scaling-stroke"/><path stroke="#4989e7" d="M204.28 264.09q-.4-1.21-.32-.67" vector-effect="non-scaling-stroke"/><path stroke="#197bb4" d="m260.79 264.76-.32 25.27" vector-effect="non-scaling-stroke"/><path stroke="#0b3489" d="m260.47 290.03-24.86.75" vector-effect="non-scaling-stroke"/><path stroke="#432397" d="M235.61 290.78q.02-.4-.21-.82" vector-effect="non-scaling-stroke"/><path stroke="#4a20a2" d="m235.34 308.95-30.43.28" vector-effect="non-scaling-stroke"/><path stroke="#1091d5" d="m302.48 265.68-.18 23.88a.89.89 0 0 1-.88.88l-39.81.38q-.48 0-.79-.37l-.35-.42" vector-effect="non-scaling-stroke"/><path stroke="#0fb6ec" d="m315.01 429.15-29.46.16" vector-effect="non-scaling-stroke"/><path stroke="#4a64d0" d="M285.74 454.03q.08.17.16.33" vector-effect="non-scaling-stroke"/><path stroke="#3a38b8" d="M285.9 454.36q-12.2-.39-24-.06-.49.02-.7.27-.24.28-.3.76" vector-effect="non-scaling-stroke"/><path stroke="#0151b0" d="M260.9 455.33q-.38-.88-.95-.9" vector-effect="non-scaling-stroke"/><path stroke="#6e4bc9" d="m307.41 453.55-21.35 19.57" vector-effect="non-scaling-stroke"/><path stroke="#8253de" d="m286.06 473.12-.16-18.76" vector-effect="non-scaling-stroke"/><path stroke="#2079be" d="M285.55 404.96v24.35" vector-effect="non-scaling-stroke"/><path stroke="#1156ab" d="m285.55 429.31.06-.4" vector-effect="non-scaling-stroke"/><path stroke="#123194" d="M285.61 428.91c-.78.34-1.59.66-2.51.68q-10.8.22-21.6.14-.13.2-.76.22" vector-effect="non-scaling-stroke"/><path stroke="#1766b8" d="M260.74 429.95q.16-.74-.29-1.49" vector-effect="non-scaling-stroke"/><path stroke="#4a20a2" d="M260.45 428.46q-.12-.5-.01-.97.09-.38.52-.73c5.43-4.37 10.2-9.58 15.13-14.48 2-1.98 4.83-5.61 7.86-7.91" vector-effect="non-scaling-stroke"/><path stroke="#0a4398" d="m315.13 379.95.04 24.11" vector-effect="non-scaling-stroke"/><path stroke="#0160bf" d="M315.17 404.06q-.17.23 0 .92" vector-effect="non-scaling-stroke"/><path stroke="#10a0e3" d="m315.17 404.98-.21-.21q-.17-.16-.4-.16l-29.01.35" vector-effect="non-scaling-stroke"/><path stroke="#1141a2" d="M285.55 404.96q-.61-.27-.38-1.21" vector-effect="non-scaling-stroke"/><path stroke="#46b3e1" d="m285.17 403.75.36-.7" vector-effect="non-scaling-stroke"/><path stroke="#4a20a2" d="M531.39 290.97v17.11q0 1.3-1.3 1.28l-30.15-.43" vector-effect="non-scaling-stroke"/><path stroke="#0259b9" d="m558.91 263.62-27.59.33" vector-effect="non-scaling-stroke"/><path stroke="#3974df" d="M531.32 263.95q-.08-.7-.23-.95" vector-effect="non-scaling-stroke"/><path stroke="#0151b0" d="m434.5 290.51-1.61.93" vector-effect="non-scaling-stroke"/><path stroke="#386cd7" d="m419.09 291.01-.1-25.27" vector-effect="non-scaling-stroke"/><path stroke="#4bd8f7" d="M531.19 185.27q-.46.55-.15.42" vector-effect="non-scaling-stroke"/><path stroke="#c5fefd" d="M531.04 185.69c-1.07.17-2.04.6-3.07.59q-14.2-.12-27.89.77" vector-effect="non-scaling-stroke"/><path stroke="#54ebfd" d="M500.08 187.05q-4.52 2-5.52 3.01-9.34 9.42-18.81 18.7-.85.83-1.31 2.46-.15.54-.7.42-1.28-.28-2.34.47a1.45 1.42 25.6 0 1-.76.26l-1.96.11" vector-effect="non-scaling-stroke"/><path stroke="#79f3fd" d="M468.68 212.48q-8.06.3-15.55.63-2.04.09-2.94 1.39-.3.44-.15.95 1.55 5.54 1.44 11.54" vector-effect="non-scaling-stroke"/><path stroke="#54ebfd" d="M451.48 226.99q-5.87 4.93-11.84 10.15-.31.27-.15.65" vector-effect="non-scaling-stroke"/><path stroke="#46b9e6" d="M439.49 237.79q-3 1.27-6.57 1.22" vector-effect="non-scaling-stroke"/><path stroke="#45abd9" d="m432.92 239.01-13.5.78" vector-effect="non-scaling-stroke"/><path stroke="#47c1eb" d="m419.42 239.79-3.15-.19" vector-effect="non-scaling-stroke"/><path stroke="#089be6" d="M559.06 211.59q.41 14.8.08 25.17-.04 1.16-1.44 1.2" vector-effect="non-scaling-stroke"/><path stroke="#078ddd" d="M557.7 237.96q-12.96-.11-25.95-.34-.39-.01-.71.36" vector-effect="non-scaling-stroke"/><path stroke="#4f98f4" d="M531.04 237.98q-.18-.74.06-.44" vector-effect="non-scaling-stroke"/><path stroke="#4bd8f7" d="m531.1 237.54.09-26.13" vector-effect="non-scaling-stroke"/><path stroke="#86d9f9" d="m531.19 211.41-.15-25.72" vector-effect="non-scaling-stroke"/><path stroke="#0a3b8f" d="M433.35 243.01q-4.71 2.42-8.19 6.4-1.47 1.68-5.93 3.28" vector-effect="non-scaling-stroke"/><path stroke="#026ec8" d="M419.23 252.69q-.96-6.24.19-12.9" vector-effect="non-scaling-stroke"/><path stroke="#197bb4" d="M434.03 264.73q-.2.16-.26.3" vector-effect="non-scaling-stroke"/><path stroke="#0a3b8f" d="M433.77 265.03q-.23.14-.36.33-.23.33-.62.33l-13.8.05" vector-effect="non-scaling-stroke"/><path stroke="#3965d1" d="m531.32 263.95-.26 26.58" vector-effect="non-scaling-stroke"/><path stroke="#7154df" d="M531.06 290.53q-.01.15-.13.29-.14.17-.37.17l-30.72-.2" vector-effect="non-scaling-stroke"/><path stroke="#424fb0" d="m499.84 290.79.02-26.75" vector-effect="non-scaling-stroke"/><path stroke="#3c2aa8" d="m284.8 481.68-24.89.39" vector-effect="non-scaling-stroke"/><path stroke="#5e20b1" d="M259.91 482.07q-.11.4-.37-.27" vector-effect="non-scaling-stroke"/><path stroke="#3a38b8" d="M259.54 481.8q.47-.7.51-1.55.51-11.9.82-23.78" vector-effect="non-scaling-stroke"/><path stroke="#432397" d="M499.84 290.79q-.08.38-.22.54" vector-effect="non-scaling-stroke"/><path stroke="#0b3489" d="m499.62 291.33-24.15-.68" vector-effect="non-scaling-stroke"/><path stroke="#197bb4" d="m475.47 290.65.14-24.94" vector-effect="non-scaling-stroke"/><path stroke="#1091d5" d="m475.47 290.65-40.97-.14" vector-effect="non-scaling-stroke"/><path stroke="#0f98db" d="M434.5 290.51q-.75.1-.74-1.26 0-12.1.01-24.22" vector-effect="non-scaling-stroke"/><path stroke="#46b9e6" d="m285.71 380.62-21-.45" vector-effect="non-scaling-stroke"/><path stroke="#45c8ea" d="m261.24 380.83-.42 8.94" vector-effect="non-scaling-stroke"/><path stroke="#017ed0" d="M260.82 389.77q-2.87.06-4.76 2.29-5.64 6.64-13.24 12.6" vector-effect="non-scaling-stroke"/><path stroke="#0fb6ec" d="m242.82 404.66-7.51.55" vector-effect="non-scaling-stroke"/><path stroke="#0184d4" d="M235.31 405.21q-.42-.66-.3-1.07" vector-effect="non-scaling-stroke"/><path stroke="#568bbc" d="M285.17 403.75q-.49.45-1.22.62" vector-effect="non-scaling-stroke"/><path stroke="#7e92e1" d="m283.95 404.37-22.72.41" vector-effect="non-scaling-stroke"/><path stroke="#54ebfd" d="M261.23 404.78q-.18.13-.43-.5" vector-effect="non-scaling-stroke"/><path stroke="#46b3e1" d="m260.8 404.28.02-14.51" vector-effect="non-scaling-stroke"/><path stroke="#a662f1" d="m235.29 452.76-.1-23.01" vector-effect="non-scaling-stroke"/><path stroke="#4880e3" d="M261.23 404.78q-.79 1.17-.79 1.72-.09 10.98-.14 21.96" vector-effect="non-scaling-stroke"/><path stroke="#15c5f9" d="M260.3 428.46q-.06 1.24-1.63 1.46" vector-effect="non-scaling-stroke"/><path stroke="#58abfb" d="M258.67 429.92q-.82-.96-2.67-.91-7.1.23-20.51.23" vector-effect="non-scaling-stroke"/><path stroke="#3f6ddc" d="M260.45 428.46h-.15" vector-effect="non-scaling-stroke"/><path stroke="#4a73df" d="m531.04 237.98.05 25.02" vector-effect="non-scaling-stroke"/><path stroke="#817ff7" d="m531.09 263-17.33.31-.28.02q-5.66.67-12.35.73-.04 0-.26.05-.45.1-.82-.84" vector-effect="non-scaling-stroke"/><path stroke="#10a6e8" d="m451.91 265.04-17.88-.31" vector-effect="non-scaling-stroke"/><path stroke="#0b499c" d="m434.03 264.73-.68-21.72" vector-effect="non-scaling-stroke"/><path stroke="#0166c3" d="M433.35 243.01q.19 0 .18-.67c-.04-1.19-.7-1.91-.61-3.33" vector-effect="non-scaling-stroke"/><path stroke="#54ebfd" d="M500.2 211.17q.01.55-.31 1.05" vector-effect="non-scaling-stroke"/><path stroke="#0fb6ec" d="m499.89 212.22-.19-.19q-.04-.04-.1-.04l-22.15.66q-2.1.06-2.11 2.16l-.13 21.47a1.59 1.59 0 0 1-1.57 1.58l-22.08.35" vector-effect="non-scaling-stroke"/><path stroke="#10a6e8" d="m451.56 238.21-11.57-.05a.38.38 0 0 1-.33-.19q-.09-.15-.17-.18" vector-effect="non-scaling-stroke"/><path stroke="#43e1ff" d="M451.48 226.99q9.12-6.64 17.2-14.51" vector-effect="non-scaling-stroke"/><path stroke="#c5fefd" d="m531.19 211.41-30.99-.24" vector-effect="non-scaling-stroke"/><path stroke="#8fecff" d="M500.2 211.17q-.45-.63-.45-.92-.03-10.75.33-23.2" vector-effect="non-scaling-stroke"/><path stroke="#8ebef9" d="m531.1 237.54-31.02.01" vector-effect="non-scaling-stroke"/><path stroke="#46b3e1" d="M500.08 237.55q-.01-.22-.17-.43" vector-effect="non-scaling-stroke"/><path stroke="#45c8ea" d="m499.91 237.12-.02-24.9" vector-effect="non-scaling-stroke"/><path stroke="#4a73df" d="m500.08 237.55-.03 25.72" vector-effect="non-scaling-stroke"/><path stroke="#3974df" d="M500.05 263.27q.07.31-.19.77" vector-effect="non-scaling-stroke"/><path stroke="#0a4398" d="M499.86 264.04q-11.47.56-22.61.42-1.44-.02-1.64 1.25" vector-effect="non-scaling-stroke"/><path stroke="#10a0e3" d="M475.61 265.71q.09-.42-.13-.84" vector-effect="non-scaling-stroke"/><path stroke="#017ed0" d="m499.91 237.12-22.79.86a1.74 1.74 0 0 0-1.67 1.74l.03 25.15" vector-effect="non-scaling-stroke"/><path stroke="#0fb6ec" d="m475.48 264.87-23.57.17" vector-effect="non-scaling-stroke"/><path stroke="#0184d4" d="m451.91 265.04-.35-26.83" vector-effect="non-scaling-stroke"/><path stroke="#10a0e3" d="M260.8 404.28q-.25.37-.8.38-3.7.05-17.18 0" vector-effect="non-scaling-stroke"/><path stroke="#46e0e7" d="m604.14 314.66-14.57 13.36q-.36.33-.85.38l-.41.04" vector-effect="non-scaling-stroke"/><path stroke="#63fdf7" d="M141.68 317.22c-1.15-.29-2.04-.44-3.12.26q-5.45 3.53-8.26 10.85" vector-effect="non-scaling-stroke"/><path stroke="#5cf0f0" d="M604.44 413.97q-.59-.35-1.14.11-6.63 5.47-14.36 13.1-1.57 1.54-2.7.56" vector-effect="non-scaling-stroke"/><path stroke="#c5fefd" d="M192.82 511.1q-10.61-.44-21.22 1.06" vector-effect="non-scaling-stroke"/><path stroke="#46d5e2" d="M192.87 512.96q-.89.19-1.12.35-11.1 7.56-20.04 17.66M562.4 512.11l-24.26-.04" vector-effect="non-scaling-stroke"/><path stroke="#80c9ec" d="m368.28 524.39.03 16.18" vector-effect="non-scaling-stroke"/><path stroke="#1c779f" d="M400.79 330.73q-1.18-.39-1.88-.18a1.04 1.03-8.9 0 0-.72.98l.13 22.71" vector-effect="non-scaling-stroke"/><path stroke="#102265" d="M398.32 354.24v24.49" vector-effect="non-scaling-stroke"/><path stroke="#171a54" d="m398.32 378.73.2 24.39q0 .5.19.96l.26.64" vector-effect="non-scaling-stroke"/><path stroke="#0d377b" d="M398.97 404.72q-.38.07-.4.54c-.2 3.76-.81 5.69 2.4 8.29q4.76 3.86 19.59 16.31" vector-effect="non-scaling-stroke"/><path stroke="#0f4d8d" d="m420.56 429.86.32 23.79" vector-effect="non-scaling-stroke"/><path stroke="#32176d" d="m420.88 453.65-.17 26.77q-.01 2.06 2.05 2.04l28.1-.24" vector-effect="non-scaling-stroke"/><path stroke="#102265" d="m450.86 482.22.4 22.59q.03 1.74 1.77 1.72l22.89-.26" vector-effect="non-scaling-stroke"/><path stroke="#32176d" d="m475.92 506.27 24.4.18a.97.96-89.4 0 0 .97-.96l.21-23.73" vector-effect="non-scaling-stroke"/><path stroke="#0e3075" d="m501.5 481.76-.34-26.79" vector-effect="non-scaling-stroke"/><path stroke="#136499" d="M501.16 454.97q.17-.32.34-.32" vector-effect="non-scaling-stroke"/><path stroke="#461f83" d="m501.5 454.65 33.29.11" vector-effect="non-scaling-stroke"/><path stroke="#32176d" d="M534.79 454.76q.93.63 2.01-.13.43-.29.43-.82l.04-24.3" vector-effect="non-scaling-stroke"/><path stroke="#0d377b" d="m537.27 429.51.04-25.2" vector-effect="non-scaling-stroke"/><path stroke="#0e6d89" d="m537.31 404.31-.03-15.35" vector-effect="non-scaling-stroke"/><path stroke="#8d8b9f" d="m537.28 388.96.21-36.05q.01-.67-.66-.67h-61.32" vector-effect="non-scaling-stroke"/><path stroke="#0e4588" d="m475.51 352.24.35-20.39a1.07 1.07 0 0 0-1.07-1.09q-20.6-.02-41.38-.01-.18 0-.31.08-.35.21-.05.39" vector-effect="non-scaling-stroke"/><path stroke="#171a54" d="M433.05 331.22q-.42-.03-.73-.2-.42-.23-.91-.2-13.49.66-26.9-.87-1.77-.2-3.72.78" vector-effect="non-scaling-stroke"/><path stroke="#0b499c" d="m433.05 331.22.09 24.02" vector-effect="non-scaling-stroke"/><path stroke="#197bb4" d="M433.14 355.24q-3.25-.92-4.86-1.78-4.3-2.3-9.4-6.79-8.99-7.94-18.09-15.94" vector-effect="non-scaling-stroke"/><path stroke="#10a6e8" d="M433.14 355.24c2.86.52 4.6-.54 6.68-2.2a1.46 1.45-64.2 0 1 .91-.32l34.32.03" vector-effect="non-scaling-stroke"/><path stroke="#8fecff" d="m475.05 352.75.25 1.92" vector-effect="non-scaling-stroke"/><path stroke="#26def2" d="m475.3 354.67-.25 24.37q0 .5-.4.8-.79.61-1.58.84" vector-effect="non-scaling-stroke"/><path stroke="#0f98db" d="M473.07 380.68c-2.45-2.23-5.32-3.34-7.55-5.48q-7.11-6.81-14.97-12.92a.49.49 0 0 0-.79.39l.38 18.13" vector-effect="non-scaling-stroke"/><path stroke="#26def2" d="m450.14 380.8.35 22.53" vector-effect="non-scaling-stroke"/><path stroke="#10a0e3" d="m450.49 403.33-29.1-28.29" vector-effect="non-scaling-stroke"/><path stroke="#1283c5" d="M421.39 375.04q-.53-.8-.48-.89" vector-effect="non-scaling-stroke"/><path stroke="#10a0e3" d="m420.91 374.15-.01-19.33a.52.51 89.5 0 0-.52-.52l-20.53.26" vector-effect="non-scaling-stroke"/><path stroke="#1283c5" d="m399.85 354.56-1.53-.32" vector-effect="non-scaling-stroke"/><path stroke="#81bae8" d="m475.51 352.24-.46.51" vector-effect="non-scaling-stroke"/><path stroke="#044ba9" d="m399.85 354.56 21.06 19.59M421.39 375.04q-.95 2.23-.54 4.14" vector-effect="non-scaling-stroke"/><path stroke="#0d2679" d="m420.85 379.18-22.53-.45" vector-effect="non-scaling-stroke"/><path stroke="#2652c8" d="M451.21 404.15q-.34.42.75.51" vector-effect="non-scaling-stroke"/><path stroke="#0a4398" d="M451.96 404.66q-.81-.07-1.41.82" vector-effect="non-scaling-stroke"/><path stroke="#10a0e3" d="M450.55 405.48q-.14-.04-.17-.23-.03-.23-.26-.24-13.81-.43-27.62-.64-1.15-.01-1.73.58" vector-effect="non-scaling-stroke"/><path stroke="#0160bf" d="M420.77 404.95q-.14-.06-.29-.2" vector-effect="non-scaling-stroke"/><path stroke="#0a4398" d="M420.48 404.75q.48-1.26.49-2.25.12-9.24-.12-23.32" vector-effect="non-scaling-stroke"/><path stroke="#80e1e9" d="m537.28 388.96-8.57-8.69" vector-effect="non-scaling-stroke"/><path stroke="#97f1f2" d="M528.71 380.27q-13.75-11.68-25.65-23.52c-1.48-1.47-2.57-2.03-4.56-1.99q-11.59.25-23.2-.09" vector-effect="non-scaling-stroke"/><path stroke="#18d3dc" d="M528.71 380.27q-15.26 1.19-19.96.76-4-.37-7.91-.59" vector-effect="non-scaling-stroke"/><path stroke="#179ece" d="m500.84 380.44-24.54-.14a.76.75 1.2 0 0-.76.72l-.25 5.92" vector-effect="non-scaling-stroke"/><path stroke="#1896c8" d="m475.29 386.94-.06 17.12" vector-effect="non-scaling-stroke"/><path stroke="#3c90d7" d="m475.23 404.06-24.02.09" vector-effect="non-scaling-stroke"/><path stroke="#18a6d6" d="M451.21 404.15q-.5-.95-.72-.82" vector-effect="non-scaling-stroke"/><path stroke="#179ece" d="m450.14 380.8 22.93-.12" vector-effect="non-scaling-stroke"/><path stroke="#0a3b8f" d="m420.48 404.75-21.51-.03" vector-effect="non-scaling-stroke"/><path stroke="#197bb4" d="m450.55 405.48-.22 23.3" vector-effect="non-scaling-stroke"/><path stroke="#11aeed" d="M450.33 428.78q-.1.48-.83.5-14.04.28-28.38.17" vector-effect="non-scaling-stroke"/><path stroke="#0f98db" d="m421.12 429.45-.35-24.5" vector-effect="non-scaling-stroke"/><path stroke="#348ae4" d="M475.96 404.71q-.56.16-.54.79.17 10.74.44 21.48" vector-effect="non-scaling-stroke"/><path stroke="#2f2d99" d="M475.86 426.98q-1.01-.19-1.52-.57-12.48-9.42-22.38-21.75" vector-effect="non-scaling-stroke"/><path stroke="#026ec8" d="M421.12 429.45q-1.38.35-.56.41" vector-effect="non-scaling-stroke"/><path stroke="#0b3489" d="M475.72 429.03q-.47.71-1.1.58-.7-.15-.76-.15-11.44-.19-22.9.13" vector-effect="non-scaling-stroke"/><path stroke="#0b51a1" d="m450.96 429.59-.63-.81" vector-effect="non-scaling-stroke"/><path stroke="#018ec5" d="m537.31 404.31-33.06.12" vector-effect="non-scaling-stroke"/><path stroke="#0286bf" d="m504.25 404.43-3.06-.88" vector-effect="non-scaling-stroke"/><path stroke="#018ec5" d="M501.19 403.55q-1.15-11.37-.35-23.11" vector-effect="non-scaling-stroke"/><path stroke="#1091d5" d="m494.85 404.65-18.89.06" vector-effect="non-scaling-stroke"/><path stroke="#2643ba" d="M475.96 404.71q-.62-.69-.73-.65" vector-effect="non-scaling-stroke"/><path stroke="#0151b0" d="M501.19 403.55q-.79.63-.49 1.34" vector-effect="non-scaling-stroke"/><path stroke="#0f98db" d="m500.7 404.89-5.85-.24" vector-effect="non-scaling-stroke"/><path stroke="#0151b0" d="M494.85 404.65q1.47-.32.14-2.21-.47-.66-1.42-1.45c-4.67-3.91-8.67-8.51-13.32-12.53q-2.29-1.99-4.96-1.52" vector-effect="non-scaling-stroke"/><path stroke="#0367c2" d="m450.96 429.59-.35 23.86" vector-effect="non-scaling-stroke"/><path stroke="#274ebb" d="m450.61 453.45-29.73.2" vector-effect="non-scaling-stroke"/><path stroke="#4880e3" d="m501.03 429.12-.14.21" vector-effect="non-scaling-stroke"/><path stroke="#6c8ff6" d="m500.89 429.33-24.08.44" vector-effect="non-scaling-stroke"/><path stroke="#15c5f9" d="M476.81 429.77q-.7-.03-1.09-.74" vector-effect="non-scaling-stroke"/><path stroke="#197bb4" d="M475.72 429.03q.24-.93.14-2.05" vector-effect="non-scaling-stroke"/><path stroke="#637cef" d="m476.81 429.77 23.82 23.18" vector-effect="non-scaling-stroke"/><path stroke="#3f6ddc" d="M500.63 452.95q.8.59.87 1.7" vector-effect="non-scaling-stroke"/><path stroke="#077ece" d="m475.72 429.03-.18 24.7a.85.85 0 0 0 .85.86q11.67.06 23.61 0 .48-.01 1.16.38" vector-effect="non-scaling-stroke"/><path stroke="#2631a3" d="m501.5 481.76-25.86-.5" vector-effect="non-scaling-stroke"/><path stroke="#3a38b8" d="m475.64 481.26-.58-26.25a.93.93 0 0 0-.92-.91l-22.98-.13" vector-effect="non-scaling-stroke"/><path stroke="#2631a3" d="M451.16 453.97q-.42.6-.55-.52" vector-effect="non-scaling-stroke"/><path stroke="#2538a9" d="M537.27 429.51q-3.37.06-4.37-.65" vector-effect="non-scaling-stroke"/><path stroke="#0151b0" d="m504.25 404.43 28.65 24.43" vector-effect="non-scaling-stroke"/><path stroke="#2631a3" d="M532.9 428.86q-12.2 1.59-23.14.05-1.94-.27-3.1 1.36" vector-effect="non-scaling-stroke"/><path stroke="#3a38b8" d="M506.66 430.27q-1.58-1.72-5.63-1.15" vector-effect="non-scaling-stroke"/><path stroke="#1091d5" d="m501.03 429.12-.33-24.23" vector-effect="non-scaling-stroke"/><path stroke="#5e20b1" d="M451.16 453.97q.12 13.69.02 26.78 0 .59.53.94" vector-effect="non-scaling-stroke"/><path stroke="#282393" d="m451.71 481.69-.85.53" vector-effect="non-scaling-stroke"/><path stroke="#9636d9" d="M500.63 452.95q.08.21.3.18.28-.03.28-.31l-.32-23.49" vector-effect="non-scaling-stroke"/><path stroke="#282393" d="M475.64 481.26q.16.1.29.2.32.25.31.65l-.32 24.16" vector-effect="non-scaling-stroke"/><path stroke="#3c2aa8" d="m475.64 481.26-23.93.43" vector-effect="non-scaling-stroke"/><path stroke="#5e20b1" d="M534.79 454.76q-13.42-13.02-28.13-24.49" vector-effect="non-scaling-stroke"/><path stroke="#b4f4ff" d="M174.353 160.023a.87.87 0 0 0-.875-.865l-23.86.125a.87.87 0 0 0-.865.874l.134 25.5a.87.87 0 0 0 .875.865l23.86-.125a.87.87 0 0 0 .865-.874l-.134-25.5" vector-effect="non-scaling-stroke"/><path stroke="#a2a1f4" d="M223.75 163.626a.9.9 0 0 0-.905-.896l-11.34.06a.9.9 0 0 0-.895.905l.06 11.6a.9.9 0 0 0 .905.895l11.34-.06a.9.9 0 0 0 .895-.904l-.06-11.6" vector-effect="non-scaling-stroke"/><path stroke="#7e92e1" d="M524.05 163.965a.72.72 0 0 0-.715-.725l-11.36-.08a.72.72 0 0 0-.724.715l-.081 11.58a.72.72 0 0 0 .715.725l11.36.08a.72.72 0 0 0 .724-.715l.081-11.58" vector-effect="non-scaling-stroke"/></g><path fill="#333671" d="M251.24 152.31q-.21.62-1.77.79c-1.82.2-2.28 1.67-2.45 3.26q-.37 3.49-7.19 3.53l-4.67-4.11-21.82-20.57q-.39-.37-.92-.36l-7.96.14-25.77.02a1.27 1.26 0 0 1-1.27-1.26l-.02-21.04a.7.7 0 0 0-.69-.7l-53.8-.18a.5.5 0 0 0-.5.51l.46 35.41q.01.37.38.36l23.61-.25a.38.38 0 0 1 .39.38l-.21 69.8-2.13-2.29a.62.62 0 0 0-1.02.15c-2.04 4.08-4.25 9.98-9.59 9.95l.28-63.51a.34.34 0 0 0-.34-.34H111a.51.5 0 0 1-.51-.5V99.02q0-1.49 1.49-1.49l77.27-.04a.51.5-90 0 1 .5.51v22.25q0 .5.5.5h25.46q.77 0 1.34.52l34.19 31.04Z"/><rect width="16.04" height="16.02" x="-8.02" y="-8.01" fill="#fff" rx=".48" transform="rotate(.1 -60431.087 175899.302)"/><rect width="15.04" height="16.02" x="-7.52" y="-8.01" fill="#fff" rx=".61" transform="rotate(-.1 60798.842 -245516.779)"/><path fill="#1a163f" d="m377.46 435.41-.01-55.33-.15-23.62.03-23.88.11-42.57-.15-22.46-.02-18.83q0-.56-.55-.55l-18.41.06a.32.32 0 0 0-.31.32l.19 19.24v22.17l.01 42.72.01 24.61.1 22.97.48 55.11-19.19.01q-.6 0-.6.59v41.75q0 .68-.68.68l-23.26.11.45-23.62a1.56 1.52 29.7 0 0-.25-.87l-.32-.5.64-22.91q10.41-9.15 20.26-17.2c2.49-2.03 2.05-5.07 1.89-8.42l-.28-25.89.1-25.08-.2-22.23q0-.55-.48-.81-.65-.36-1.24-.19-11.68-.34-22.66.17c-2.95.14-6.64-.9-9.9.13l-7.6.06q-15.91-2.54-7.95-21.49l14.76.09 33.49-.43a1.86 1.85 89.8 0 0 1.83-1.85l.08-16.41-.02-24.99-.37-15.53q.34-.98.09-1.91a.73.73 0 0 1 .39-.84c3.53-1.75 5.72-2.92 10.09-5.55 2.29-1.38 5.12-2.19 7.16-3.14q4.14-1.93 8.43-3.55 2.04-.77 4.49-2.52 4.6-3.29 9.88-3.75 9.43.29 18.75.2c1.66-.01 2.1-.67 3.06-1.85q.08 2.4.09 4.59c.02 2.89-.96 6.08-.97 9.27q0 .52.29.94 1.43 2.09.77 5.32c-3.28 2.18-1.8 5.33-1.8 8.53q-.28 5.61-.74 11.19c-.48 5.83-.35 11.4-.39 17.14-.01 1.72.38 3.69.38 5.56-.02 5.96.4 11.85.86 17.76a1.52 1.52 0 0 0 1.48 1.4l33.73.55 66.2-.49q.51-.12.49.61-.2 8.65.21 17.06.14 2.93 3.07 2.93l27.07.02a.92.92 0 0 0 .92-.9l.27-17.41a2.24 2.24 0 0 1 2.24-2.21h23.98a.91.9-89.7 0 0 .9-.9l.08-17.85.57-26.11 25.77-.61q.67-.02.68-.69l.09-25.93.14-26.15.02-25.16-.01-26.76.23-10.83q.01-.48.49-.48l26.53-.08a.5.5 0 0 0 .5-.5v-34.92q0-.49-.5-.5l-24.02-.24q-.59-2.15.14-4.84c.47-1.72.09-3.19.38-4.92q.22-1.4-1-2.43l35.11.11a.57.56 0 0 1 .57.56l.01 59.78a.24.24 0 0 1-.24.24l-23.72.01a.71.71 0 0 0-.7.71v125.13a.5.5 0 0 1-.51.5l-25.48-.58a.42.42 0 0 0-.43.42v44.19a.66.65 0 0 1-.66.65l-19.76-.19a.67.67 0 0 0-.67.67v138.63a.95.95 0 0 1-.95.95h-30.49q-.52 0-.51.52l.38 55.89q0 .5-.5.49l-22.52-.42a.44.44 0 0 0-.45.45l.14 18.89q0 .58-.58.58l-21.82-.1q-.93 0-.93-.93v-19.58a.66.65 90 0 0-.65-.66h-35.88a.48.47 0 0 1-.48-.47l.01-31.02q0-.54-.55-.54l-16.16-.02a.25.24 0 0 1-.25-.24l-.21-17.83a1.01 1.01 0 0 0-1.01-1l-20.03-.01a.39.39 0 0 1-.39-.39v-39a.66.66 0 0 0-.66-.66l-20.34.09Zm23.33-104.68q-1.18-.39-1.88-.18a1.04 1.03-8.9 0 0-.72.98l.13 22.71v24.49l.2 24.39q0 .5.19.96l.26.64q-.38.07-.4.54c-.2 3.76-.81 5.69 2.4 8.29q4.76 3.86 19.59 16.31l.32 23.79-.17 26.77q-.01 2.06 2.05 2.04l28.1-.24.4 22.59q.03 1.74 1.77 1.72l22.89-.26 24.4.18a.97.96-89.4 0 0 .97-.96l.21-23.73-.34-26.79q.17-.32.34-.32l33.29.11q.93.63 2.01-.13.43-.29.43-.82l.04-24.3.04-25.2-.03-15.35.21-36.05q.01-.67-.66-.67h-61.32l.35-20.39a1.07 1.07 0 0 0-1.07-1.09q-20.6-.02-41.38-.01-.18 0-.31.08-.35.21-.05.39-.42-.03-.73-.2-.42-.23-.91-.2-13.49.66-26.9-.87-1.77-.2-3.72.78Z"/><path fill="#201e52" d="M588.77 99.59q1.22 1.03 1 2.43c-.29 1.73.09 3.2-.38 4.92q-.73 2.69-.14 4.84l-31.24.03a.96.96 0 0 0-.96.96l-.06 21.51a.74.73-90 0 1-.73.74q-15.3-.05-30.75-.02c-1.85 0-3.44.4-4.72 1.55-12.66 11.29-27.48 25.29-41.4 37.72q-36.12 32.24-71.49 65.51l-8.09 7.97q.66-3.23-.77-5.32-.29-.42-.29-.94c.01-3.19.99-6.38.97-9.27q-.01-2.19-.09-4.59.69.3 1.93-.82 58.17-52.55 116.33-105.11.36-.33.84-.29.37.03.71.18.35.15.65.16h26.62a.53.53 0 0 0 .53-.53l.01-20.97a.52.51 0 0 1 .52-.51l41-.15Z"/><rect width="7.96" height="9" x="-3.98" y="-4.5" fill="#fff" rx=".7" transform="rotate(-.4 15896.456 -70880.127)"/><rect width="7.98" height="8" x="-3.99" y="-4" fill="#fff" rx=".95" transform="rotate(-.5 12694.608 -27311.712)"/><path fill="#fff" d="m204.46 134.99-.5 49.39q-.03 2.23 2.21 2.22l29.24-.16.11 24.59q-.15.17-.34.29-.16.09-.4.09-15.63-.21-31.39-.19l-.09-25.68a.32.32 0 0 0-.32-.32l-25.33.1a.63.63 0 0 0-.62.63l.21 51.63-.04 26.17q-.33.21-.48.52-.64.22-.89-.74l-.01-26.19.01-24.72a1.13 1.13 0 0 0-1.14-1.13l-24.69.12a.81.8-90 0 0-.8.81l.06 24.86.01 26.64q-1.59-.08-1.6-.74-.34-22.58-.63-45.14l.21-69.8a.38.38 0 0 0-.39-.38l-23.61.25q-.37.01-.38-.36l-.46-35.41a.5.5 0 0 1 .5-.51l53.8.18a.7.7 0 0 1 .69.7l.02 21.04a1.27 1.26 0 0 0 1.27 1.26l25.77-.02Zm-30.107 25.033a.87.87 0 0 0-.875-.865l-23.86.125a.87.87 0 0 0-.865.874l.134 25.5a.87.87 0 0 0 .875.865l23.86-.125a.87.87 0 0 0 .865-.874l-.134-25.5ZM589.25 111.78l24.02.24q.5.01.5.5v34.92a.5.5 0 0 1-.5.5l-26.53.08q-.48 0-.49.48l-.23 10.83-25.7.16a.49.49 0 0 0-.48.49l.21 25.04a1.32 1.32 0 0 0 1.33 1.31l24.65-.24-.02 25.16-26.95.34q-.77.05-1.2-.19-.4-.22-.38-.97.24-11.97.35-24.1a1.1 1.1 0 0 0-1.1-1.11l-25.54.05-.57-42.9a1.03 1.03 0 0 0-.75-.98c-5.21-1.41-8.42 1.62-11.93 4.79q-21.14 19.13-42.47 38.03c-9.2 8.14-18.55 17.15-27.23 24.78q-12.24 10.76-24.4 21.6-5.1 4.56-7.57 9.01-4.24.79-8.37.18 35.37-33.27 71.49-65.51c13.92-12.43 28.74-26.43 41.4-37.72 1.28-1.15 2.87-1.55 4.72-1.55q15.45-.03 30.75.02a.74.73 90 0 0 .73-.74l.06-21.51a.96.96 0 0 1 .96-.96l31.24-.03Z"/><rect width="16.04" height="18.98" x="-8.02" y="-9.49" fill="#1ed8ff" rx=".53" transform="rotate(.2 -36615.925 78224.103)"/><rect width="13.96" height="14.04" x="-6.98" y="-7.02" fill="#ce63ec" rx=".5" transform="rotate(.1 -73548.662 264879.681)"/><path fill="#8afdfb" d="m235.16 155.78.25 30.66-29.24.16q-2.24.01-2.21-2.22l.5-49.39 7.96-.14q.53-.01.92.36l21.82 20.57Zm-11.41 7.846a.9.9 0 0 0-.905-.896l-11.34.06a.9.9 0 0 0-.895.905l.06 11.6a.9.9 0 0 0 .905.895l11.34-.06a.9.9 0 0 0 .895-.904l-.06-11.6Z"/><rect width="8" height="8.08" x="-4" y="-4.04" fill="#fff" rx="1.28" transform="rotate(.3 -26322.877 70352.057)"/><rect width="11" height="13.22" x="672.5" y="136.75" fill="#7080f7" rx=".93"/><rect width="11" height="10.04" x="-5.5" y="-5.02" fill="#ce63ec" rx=".83" transform="rotate(-.1 81828.664 -31441.286)"/><path fill="#8afdfb" d="M531.19 185.27q-.46.55-.15.42c-1.07.17-2.04.6-3.07.59q-14.2-.12-27.89.77-4.52 2-5.52 3.01-9.34 9.42-18.81 18.7-.85.83-1.31 2.46-.15.54-.7.42-1.28-.28-2.34.47a1.45 1.42 25.6 0 1-.76.26l-1.96.11q-8.06.3-15.55.63-2.04.09-2.94 1.39-.3.44-.15.95 1.55 5.54 1.44 11.54-5.87 4.93-11.84 10.15-.31.27-.15.65-3 1.27-6.57 1.22l-13.5.78-3.15-.19q2.47-4.45 7.57-9.01 12.16-10.84 24.4-21.6c8.68-7.63 18.03-16.64 27.23-24.78q21.33-18.9 42.47-38.03c3.51-3.17 6.72-6.2 11.93-4.79a1.03 1.03 0 0 1 .75.98l.57 42.9Zm-7.14-21.305a.72.72 0 0 0-.715-.725l-11.36-.08a.72.72 0 0 0-.724.715l-.081 11.58a.72.72 0 0 0 .715.725l11.36.08a.72.72 0 0 0 .724-.715l.081-11.58Z"/><path fill="#201e52" d="m251.24 152.31 84.57 76.99a1.41 1.4-23.9 0 0 .94.36l20.06-.03q.95 0 .95-.94l.06-18.41a1.17 1.17 0 0 0-1.16-1.17l-17.62-.22a.85.85 0 0 1-.84-.85v-18.3a.71.7 0 0 0-.71-.7l-17.49-.01a.28.28 0 0 1-.28-.28l-.01-16.46a.5.5 0 0 1 .5-.5l17.56.01a.59.59 0 0 1 .59.58l.17 15.54a.89.89 0 0 0 .89.88h16.87a1.75 1.74 0 0 1 1.75 1.74v16.17a2.18 2.17 90 0 0 2.17 2.18h16.81a.78.78 0 0 1 .78.78l.02 19.61q-5.28.46-9.88 3.75-2.45 1.75-4.49 2.52-4.29 1.62-8.43 3.55c-2.04.95-4.87 1.76-7.16 3.14-4.37 2.63-6.56 3.8-10.09 5.55a.73.73 0 0 0-.39.84q.25.93-.09 1.91l-12.17-11.3-39.8-35.74-24.87-23.74-20.62-19.87q6.82-.04 7.19-3.53c.17-1.59.63-3.06 2.45-3.26q1.56-.17 1.77-.79Z"/><path fill="#3bfcf2" d="m235.16 155.78 4.67 4.11 20.62 19.87q-1.64 2.58-1.17 6.16.66 5.05.67 5.41c.18 6.62 1.19 15.49-.39 19a1.26 1.26 0 0 0-.03.93l.21.59-24.08-.01q.06-.38-.14-.81l-.11-24.59-.25-30.66Z"/><rect width="25.6" height="27.24" x="-12.8" y="-13.62" fill="#68e9ff" rx=".87" transform="rotate(-.3 33090.743 -30780.656)"/><path fill="#0cb2f2" d="m586.02 159.33.01 26.76-24.65.24a1.32 1.32 0 0 1-1.33-1.31l-.21-25.04a.49.49 0 0 1 .48-.49l25.7-.16Z"/><rect width="13.14" height="13.4" x="-6.57" y="-6.7" fill="#b945ec" rx=".9" transform="rotate(-.3 32473.007 -41399.23)"/><rect width="12.8" height="13.02" x="-6.4" y="-6.51" fill="#7227c6" rx=".72" transform="rotate(.4 -24050.263 74226.725)"/><path fill="#201e52" d="m398.04 189.48-.01 18.34a.68.68 0 0 1-.68.68h-18.67a.68.68 0 0 1-.68-.68V189.6a.68.68 0 0 1 .68-.68l18.64-.08a.68.68 0 0 0 .68-.68v-15.68a.68.68 0 0 1 .68-.68h16.74a.68.68 0 0 1 .68.68l.01 15.55a.68.68 0 0 1-.68.68l-16.71.09a.68.68 0 0 0-.68.68Z"/><path fill="#2ee3e5" d="m260.45 179.76 24.87 23.74c-.73 2.81.32 5.01.12 7.69a1.4 1.39 2 0 1-1.38 1.28l-19.57.14-4-.03q-.19-.65-.75-.73l-.21-.59a1.26 1.26 0 0 1 .03-.93c1.58-3.51.57-12.38.39-19q-.01-.36-.67-5.41-.47-3.58 1.17-6.16Z"/><path fill="#1ed8ff" d="M203.39 211.22q-.63 12.11.06 24.78.03.7.6 1.47-.15.44-.12.73 0-.58-.93-.57-12.79.11-25.76-.05l-.21-51.63a.63.63 0 0 1 .62-.63l25.33-.1a.32.32 0 0 1 .32.32l.09 25.68Z"/><path fill="#0cb2f2" d="m531.19 185.27 25.54-.05a1.1 1.1 0 0 1 1.1 1.11q-.11 12.13-.35 24.1-.02.75.38.97.43.24 1.2.19.41 14.8.08 25.17-.04 1.16-1.44 1.2-12.96-.11-25.95-.34-.39-.01-.71.36-.18-.74.06-.44l.09-26.13-.15-25.72q-.31.13.15-.42Z"/><path fill="#fff" d="m531.04 185.69.15 25.72-30.99-.24q-.45-.63-.45-.92-.03-10.75.33-23.2 13.69-.89 27.89-.77c1.03.01 2-.42 3.07-.59Z"/><rect width="12" height="13.16" x="-6" y="-6.58" fill="#0cb2f2" rx=".61" transform="rotate(.2 -55069.077 194185.961)"/><path fill="#1ed8ff" d="M500.08 187.05q-.36 12.45-.33 23.2 0 .29.45.92.01.55-.31 1.05l-.19-.19q-.04-.04-.1-.04l-22.15.66q-2.1.06-2.11 2.16l-.13 21.47a1.59 1.59 0 0 1-1.57 1.58l-22.08.35-11.57-.05a.38.38 0 0 1-.33-.19q-.09-.15-.17-.18-.16-.38.15-.65 5.97-5.22 11.84-10.15 9.12-6.64 17.2-14.51l1.96-.11a1.45 1.42 25.6 0 0 .76-.26q1.06-.75 2.34-.47.55.12.7-.42.46-1.63 1.31-2.46 9.47-9.28 18.81-18.7 1-1.01 5.52-3.01Z"/><rect width="23.1" height="19.06" x="-11.55" y="-9.53" fill="#fff" rx=".8" transform="rotate(.1 -120806.512 369623.282)"/><path fill="#01c3d3" d="m285.32 203.5 39.8 35.74-20.25-.29-19.41-.51q-.5-.41-.91-.55c.74-3.08.83-7.23-1.11-8.83q-4.87-4-9.63-8.14-4.31-3.75-9.32-8.31l19.57-.14a1.4 1.39 2 0 0 1.38-1.28c.2-2.68-.85-4.88-.12-7.69Z"/><rect width="22.1" height="17.06" x="-11.05" y="-8.53" fill="#fff" rx=".66" transform="rotate(.1 -121657.15 51426.022)"/><path fill="#8afdfb" d="M203.39 211.22q15.76-.02 31.39.19.24 0 .4-.09.19-.12.34-.29.2.43.14.81l-.3 25.82-31.31-.19q-.57-.77-.6-1.47-.69-12.67-.06-24.78ZM500.2 211.17l30.99.24-.09 26.13-31.02.01q-.01-.22-.17-.43l-.02-24.9q.32-.5.31-1.05Z"/><path fill="#0384da" d="m586.01 211.25-.14 26.15-27.01.63q-.43-.24-1.16-.07 1.4-.04 1.44-1.2.33-10.37-.08-25.17l26.95-.34Z"/><path fill="#68e9ff" d="M175.82 237.34c-2.82-.04-5.62.66-8.1.66q-5.87.01-11.75.01-.53 0-.99-.27-.49-.27-.98-.01-.5.26-1 0-.72-.38-1.35.14a.68.66 41.5 0 1-.78.04q-.8-.51-1.61-.63l-.06-24.86a.81.8 90 0 1 .8-.81l24.69-.12a1.13 1.13 0 0 1 1.14 1.13l-.01 24.72Z"/><path fill="#0cb2f2" d="M259.74 211.85q.56.08.75.73l.29 25.38-25.3.06q.4-.05-.12-.36l.3-25.82 24.08.01Z"/><path fill="#0093d8" d="m499.89 212.22.02 24.9-22.79.86a1.74 1.74 0 0 0-1.67 1.74l.03 25.15-23.57.17-.35-26.83 22.08-.35a1.59 1.59 0 0 0 1.57-1.58l.13-21.47q.01-2.1 2.11-2.16l22.15-.66q.06 0 .1.04l.19.19Z"/><path fill="#68e9ff" d="M468.68 212.48q-8.08 7.87-17.2 14.51.11-6-1.44-11.54-.15-.51.15-.95.9-1.3 2.94-1.39 7.49-.33 15.55-.63Z"/><path fill="#1ed8ff" d="m260.49 212.58 4 .03q5.01 4.56 9.32 8.31 4.76 4.14 9.63 8.14c1.94 1.6 1.85 5.75 1.11 8.83l-23.77.07-.29-25.38Z"/><path fill="#201e52" d="M147.04 218.04q.29 22.56.63 45.14.01.66 1.6.74l26.43.37q.02 21.98.05 43.96 0 .65.26.92.38.39 1.06.28l27.36.01.06 19.52a1.32 1.31-.2 0 0 1.33 1.31l27.91-.19a1.71 1.7.5 0 0 1.7-1.66l.43-18.66 51.66-.12q-7.96 18.95 7.95 21.49l-34.27.02a.68.67 0 0 0-.68.67l.05 20.4-62.61.07a.69.69 0 0 0-.69.69l.01 51.99-.09 11.93q-1.58 1.26-2.61 3.38a1.42 1.4-89.2 0 1-.67.66l-3.97 1.81q-.44.2-.73.59-1.31 1.77-3.29 2.8a1.94 1.86-.1 0 0-.76.73q-1.15 1.98-1.37 4.2-.05.46.19.86l.66 1.06q.29.48 0 .96-.51.85-.67 1.85-.07.45-.53.52-.45.07-.99-.11l.29-104.6a.52.51 90 0 0-.51-.52h-21.99q-.86 0-.86-.87l-.01-53.24a.37.37 0 0 0-.37-.37h-24a.45.45 0 0 1-.45-.45l-.25-50.33c5.34.03 7.55-5.87 9.59-9.95a.62.62 0 0 1 1.02-.15l2.13 2.29Z"/><rect width="12" height="12.04" x="-6" y="-6.02" fill="#2ee3e5" rx=".53" transform="rotate(.1 -132003.023 388277.109)"/><rect width="13" height="11.08" x="-6.5" y="-5.54" fill="#8afdfb" rx=".64" transform="rotate(.2 -66280.833 15874.918)"/><path fill="#0168c7" d="M499.91 237.12q.16.21.17.43l-.03 25.72q.07.31-.19.77-11.47.56-22.61.42-1.44-.02-1.64 1.25.09-.42-.13-.84l-.03-25.15a1.74 1.74 0 0 1 1.67-1.74l22.79-.86Z"/><path fill="#5fc9fe" d="M149.26 237.28q.81.12 1.61.63a.68.66 41.5 0 0 .78-.04q.63-.52 1.35-.14.5.26 1 0 .49-.26.98.01.46.27.99.27 5.88 0 11.75-.01c2.48 0 5.28-.7 8.1-.66l.01 26.19q-.16.37-.13.76l-26.43-.37-.01-26.64Z"/><path fill="#4a189b" d="m585.87 237.4-.09 25.93q-.01.67-.68.69l-25.77.61-.42-1.01-.05-25.59 27.01-.63Z"/><path fill="#0cb2f2" d="M177.24 237.58q12.97.16 25.76.05.93-.01.93.57l.03 25.22-26.76.33.04-26.17Z"/><path fill="#927ef6" d="m204.05 237.47 31.31.19q.52.31.12.36v25.69q-.14-.05-.23.21-.06.18-.25.18l-30.72-.01q-.4-1.21-.32-.67l-.03-25.22q-.03-.29.12-.73ZM500.08 237.55l31.02-.01q-.24-.3-.06.44l.05 25.02-17.33.31-.28.02q-5.66.67-12.35.73-.04 0-.26.05-.45.1-.82-.84l.03-25.72Z"/><path fill="#0274d0" d="m260.78 237.96-.48 26.23q-11.78.11-23.55-.04-.55 0-1.3.37.3.12.03-.81v-25.69l25.3-.06ZM439.49 237.79q.08.03.17.18a.38.38 0 0 0 .33.19l11.57.05.35 26.83-17.88-.31-.68-21.72q.19 0 .18-.67c-.04-1.19-.7-1.91-.61-3.33q3.57.05 6.57-1.22Z"/><path fill="#0168c7" d="M557.7 237.96q.73-.17 1.16.07l.05 25.59-27.59.33q-.08-.7-.23-.95l-.05-25.02q.32-.37.71-.36 12.99.23 25.95.34Z"/><path fill="#0093d8" d="m260.78 237.96 23.77-.07q.41.14.91.55-1.06.42-1.08 1.86-.18 11.43-.16 22.87 0 .5-.26.91-.2.33-.24.76l-22.93-.08q-.05-.6-.49-.57l.48-26.23Z"/><path fill="#0058b6" d="m285.46 238.44 19.41.51c-.76.95-1.81 1.18-2.41 2.09q-.48.72-.33 1.14l.28 22.79-18.69-.13q.04-.43.24-.76.26-.41.26-.91-.02-11.44.16-22.87.02-1.44 1.08-1.86Z"/><path fill="#062d8a" d="m304.87 238.95 20.25.29 12.17 11.3.37 15.53-20.6.16q-.45.14-.58-.3-.03.39.25.14a.46.43 69.8 0 0 .14-.33c-.09-3.32.93-11.78-2.18-13.73q-6.38-4.02-12.56-9.83-.15-.42.33-1.14c.6-.91 1.65-1.14 2.41-2.09Z"/><path fill="#0058b6" d="M432.92 239.01c-.09 1.42.57 2.14.61 3.33q.01.67-.18.67-4.71 2.42-8.19 6.4-1.47 1.68-5.93 3.28-.96-6.24.19-12.9l13.5-.78Z"/><path fill="#0384da" d="M407.9 239.78q4.13.61 8.37-.18l3.15.19q-1.15 6.66-.19 12.9-1.29 6.61-.24 13.05l-20.34-.11-.64-9.35c0-3.2-1.48-6.35 1.8-8.53l8.09-7.97Z"/><path fill="#131e68" d="M302.13 242.18q6.18 5.81 12.56 9.83c3.11 1.95 2.09 10.41 2.18 13.73a.46.43 69.8 0 1-.14.33q-.28.25-.25-.14l-14-.25q-.04-.35-.07-.71l-.28-22.79ZM433.35 243.01l.68 21.72q-.2.16-.26.3-.23.14-.36.33-.23.33-.62.33l-13.8.05q-1.05-6.44.24-13.05 4.46-1.6 5.93-3.28 3.48-3.98 8.19-6.4Z"/><path fill="#8afdfb" d="m377.29 267.55-19.1.24-.19-19.24a.32.32 0 0 1 .31-.32l18.41-.06q.55-.01.55.55l.02 18.83Z"/><rect width="34.06" height="32.02" x="-17.03" y="-16.01" fill="#fff" rx=".57" transform="rotate(.1 -152668.497 356736.612)"/><rect width="31.04" height="30.94" x="94.58" y="252.07" fill="#fff" rx=".51"/><path fill="#131e68" d="m398.01 256.28.64 9.35-.41 24.63a.67.67 0 0 0 .67.68l20.18.07q6.41.06 11.91-.08 1.09-.03 1.89.51.44.69.45 1.06.12 5.67-.01 17.38l-33.73-.55a1.52 1.52 0 0 1-1.48-1.4c-.46-5.91-.88-11.8-.86-17.76 0-1.87-.39-3.84-.38-5.56.04-5.74-.09-11.31.39-17.14q.46-5.58.74-11.19Z"/><path fill="#7080f7" d="M531.09 263q.15.25.23.95l-.26 26.58q-.01.15-.13.29-.14.17-.37.17l-30.72-.2.02-26.75q.26-.46.19-.77.37.94.82.84.22-.05.26-.05 6.69-.06 12.35-.73l.28-.02 17.33-.31Z"/><path fill="#0093d8" d="M203.96 263.42q-.08-.54.32.67-.12-.04-.24-.09a.02.01 0 0 0-.02.01L203.9 290q-.01.53-.53.5-13.06-.61-26.26.58l-.39-26.81q.15-.31.48-.52l26.76-.33Z"/><path fill="#68e9ff" d="M175.83 263.53q.25.96.89.74l.39 26.81-.04 18.37q-.68.11-1.06-.28-.26-.27-.26-.92-.03-21.98-.05-43.96-.03-.39.13-.76Z"/><path fill="#0249aa" d="m558.91 263.62.42 1.01-.57 26.11-27.37.23q.09.43-.33-.44l.26-26.58 27.59-.33Z"/><path fill="#7080f7" d="M235.48 263.71q.27.93-.03.81l-.05 25.44q-.16.51-.65.49-14.55-.33-28.74-.11a1.07 1.06-.3 0 0-1.06 1.06l-.04 17.83-.48.23-27.36-.01.04-18.37q13.2-1.19 26.26-.58.52.03.53-.5l.12-25.99a.02.01 0 0 1 .02-.01q.12.05.24.09l30.72.01q.19 0 .25-.18.09-.26.23-.21Z"/><path fill="#131e68" d="m499.86 264.04-.02 26.75q-.08.38-.22.54l-24.15-.68.14-24.94q.2-1.27 1.64-1.25 11.14.14 22.61-.42ZM260.3 264.19q.44-.03.49.57l-.32 25.27-24.86.75q.02-.4-.21-.82l.05-25.44q.75-.37 1.3-.37 11.77.15 23.55.04Z"/><path fill="#1ed8ff" d="m260.79 264.76 22.93.08 18.69.13q.03.36.07.71l-.18 23.88a.89.89 0 0 1-.88.88l-39.81.38q-.48 0-.79-.37l-.35-.42.32-25.27ZM434.03 264.73l17.88.31 23.57-.17q.22.42.13.84l-.14 24.94-40.97-.14q-.75.1-.74-1.26 0-12.1.01-24.22.06-.14.26-.3Z"/><path fill="#0058b6" d="M433.77 265.03q-.01 12.12-.01 24.22-.01 1.36.74 1.26l-1.61.93q-.8-.54-1.89-.51-5.5.14-11.91.08l-.1-25.27 13.8-.05q.39 0 .62-.33.13-.19.36-.33Z"/><path fill="#0249aa" d="m302.48 265.68 14 .25q.13.44.58.3l-.73 24.77-12.36-.31a1.3 1.3 0 0 0-1.34 1.28l-.35 17.78-14.76-.09-51.66.12q-.13-.56-.52-.83l.27-18.17 24.86-.75.35.42q.31.37.79.37l39.81-.38a.89.89 0 0 0 .88-.88l.18-23.88Z"/><path fill="#7080f7" d="m418.99 265.74.1 25.27-20.18-.07a.67.67 0 0 1-.67-.68l.41-24.63 20.34.11Z"/><path fill="#4a3cc9" d="m337.66 266.07.02 24.99-21.35-.06.73-24.77 20.6-.16Z"/><path fill="#fff" d="m377.29 267.55.15 22.46q-9.58.78-19.25-.05v-22.17l19.1-.24Z"/><path fill="#7080f7" d="m377.44 290.01-.11 42.57-19.13.1-.01-42.72q9.67.83 19.25.05Z"/><path fill="#7227c6" d="M235.4 289.96q.23.42.21.82l-.27 18.17-30.43.28.04-17.83a1.07 1.06-.3 0 1 1.06-1.06q14.19-.22 28.74.11.49.02.65-.49Z"/><path fill="#0249aa" d="m434.5 290.51 40.97.14 24.15.68.32 17.6q.23.07-.41.46l-66.2.49q.13-11.71.01-17.38-.01-.37-.45-1.06l1.61-.93Z"/><path fill="#7227c6" d="M531.06 290.53q.42.87.33.44v17.11q0 1.3-1.3 1.28l-30.15-.43-.32-17.6q.14-.16.22-.54l30.72.2q.23 0 .37-.17.12-.14.13-.29Z"/><path fill="#21197d" d="m558.76 290.74-.08 17.85a.91.9-89.7 0 1-.9.9H533.8a2.24 2.24 0 0 0-2.24 2.21l-.27 17.41a.92.92 0 0 1-.92.9l-27.07-.02q-2.93 0-3.07-2.93-.41-8.41-.21-17.06.02-.73-.49-.61.64-.39.41-.46l30.15.43q1.3.02 1.3-1.28v-17.11l27.37-.23Z"/><path fill="#131e68" d="m316.33 291 21.35.06-.08 16.41a1.86 1.85 89.8 0 1-1.83 1.85l-33.49.43.35-17.78a1.3 1.3 0 0 1 1.34-1.28l12.36.31Z"/><rect width="14.02" height="15.08" x="-7.01" y="-7.54" fill="#0093d8" rx=".53" transform="rotate(.1 -170720.032 379155.026)"/><rect width="13.08" height="12.12" x="-6.54" y="-6.06" fill="#fff" rx=".95" transform="rotate(-.2 85709.817 -20204.775)"/><path fill="#21197d" d="M235.34 308.95q.39.27.52.83l-.43 18.66a1.71 1.7.5 0 1-1.7 1.66l-27.91.19a1.32 1.31-.2 0 1-1.33-1.31l-.06-19.52.48-.23 30.43-.28Z"/><path fill="#8afdfb" d="m604.14 314.66-14.57 13.36q-.36.33-.85.38l-.41.04.05-12.18a1.31 1.31 0 0 1 1.28-1.3l14.5-.3Z"/><path fill="#01c3d3" d="m604.14 314.66.12 15.09a.32.32 0 0 1-.32.33l-14.91-.02q-.75 0-.92-.38-.2-.46.2-1.24l.41-.04q.49-.05.85-.38l14.57-13.36Z"/><path fill="#8afdfb" d="M141.68 317.22c-1.15-.29-2.04-.44-3.12.26q-5.45 3.53-8.26 10.85-.99-6.32-.41-12.81.04-.47.5-.48 4.92-.11 9.74.01.97.02 1.41.44.7.68.14 1.73Z"/><rect width="9.12" height="11.08" x="-4.56" y="-5.54" fill="#3bfcf2" rx=".86" transform="rotate(.1 -183345.63 362206.484)"/><rect width="10.02" height="8.04" x="-5.01" y="-4.02" fill="#fff" rx=".87" transform="rotate(.1 -183347.72 57793.855)"/><path fill="#3bfcf2" d="m141.68 317.22-.1 10.2q-.01.6-.61.62l-10.67.29q2.81-7.32 8.26-10.85c1.08-.7 1.97-.55 3.12-.26Z"/><path fill="#131e68" d="m433.05 331.22.09 24.02q-3.25-.92-4.86-1.78-4.3-2.3-9.4-6.79-8.99-7.94-18.09-15.94 1.95-.98 3.72-.78 13.41 1.53 26.9.87.49-.03.91.2.31.17.73.2ZM335.63 330.79c-6.32 5.28-11.77 9.73-17.88 15.88q-6.4 6.43-14.48 9.2l-.2-24.78c3.26-1.03 6.95.01 9.9-.13q10.98-.51 22.66-.17Z"/><path fill="#1ed8ff" d="M400.79 330.73q9.1 8 18.09 15.94 5.1 4.49 9.4 6.79 1.61.86 4.86 1.78c2.86.52 4.6-.54 6.68-2.2a1.46 1.45-64.2 0 1 .91-.32l34.32.03.25 1.92-.25 24.37q0 .5-.4.8-.79.61-1.58.84c-2.45-2.23-5.32-3.34-7.55-5.48q-7.11-6.81-14.97-12.92a.49.49 0 0 0-.79.39l.38 18.13.35 22.53-29.1-28.29q-.53-.8-.48-.89l-.01-19.33a.52.51 89.5 0 0-.52-.52l-20.53.26-1.53-.32-.13-22.71a1.04 1.03-8.9 0 1 .72-.98q.7-.21 1.88.18ZM337.55 354.02q-.78.55-1.86.69l-19.16-.26a1.27 1.26-89.1 0 0-1.28 1.25l-.24 17.56a1.58 1.54-23 0 1-.46 1.1l-29.02 28.69.18-22.43.19-18.22a.48.47 69.5 0 0-.79-.36l-20.4 18.13-3.47.66q-.22-.64-.88-.87l-.18-24.83q.75-.7.99-2.12l33.22-.25a.69.69 0 0 1 .69.7q-.01.35-.18.65-.56.97.55.82 3.99-.57 7.82.94 8.08-2.77 14.48-9.2c6.11-6.15 11.56-10.6 17.88-15.88q.59-.17 1.24.19.48.26.48.81l.2 22.23Z"/><path fill="#0274d0" d="m475.51 352.24-.46.51-34.32-.03a1.46 1.45-64.2 0 0-.91.32c-2.08 1.66-3.82 2.72-6.68 2.2l-.09-24.02q-.3-.18.05-.39.13-.08.31-.08 20.78-.01 41.38.01a1.07 1.07 0 0 1 1.07 1.09l-.35 20.39ZM295.47 331.15l7.6-.06.2 24.78q-3.83-1.51-7.82-.94-1.11.15-.55-.82.17-.3.18-.65a.69.69 0 0 0-.69-.7l-33.22.25q-.22-.42-.6-.77l-.05-20.4a.68.67 0 0 1 .68-.67l34.27-.02Z"/><path fill="#0168c7" d="m377.33 332.58-.03 23.88q-7.93-.02-15.56.42c-.7.04-1.23-.34-1.97-.02q-.05.02-.46.34-.43.33-1.1.09l-.01-24.61 19.13-.1Z"/><rect width="12" height="12.06" x="-6" y="-6.03" fill="#ce63ec" rx=".68" transform="rotate(-.3 65753.503 -10429.535)"/><rect width="14.04" height="14.1" x="-7.02" y="-7.05" fill="#fff" rx=".89" transform="rotate(.1 -202593.297 353342.43)"/><rect width="13.04" height="13.08" x="-6.52" y="-6.54" fill="#fff" rx=".94" transform="rotate(-.1 203286.133 -66348.763)"/><path fill="#fff" d="M260.57 352.24q.38.35.6.77-.24 1.42-.99 2.12-10.58-.28-21.18-.43-3.86-.05-5.77 1.78-14.44 13.82-29 27.51c-5.97 5.62-5.23 11.78-4.54 20.35l-2.41.65-.01-51.99a.69.69 0 0 1 .69-.69l62.61-.07ZM475.51 352.24h61.32q.67 0 .66.67l-.21 36.05-8.57-8.69q-13.75-11.68-25.65-23.52c-1.48-1.47-2.57-2.03-4.56-1.99q-11.59.25-23.2-.09l-.25-1.92.46-.51Z"/><path fill="#062d8a" d="m337.55 354.02-.1 25.08c-5.39-.13-10.56-.32-16.06.34q-3.16.38-6.26.51c-1.27-6.17 1.62-5.99 4.35-9.67 4.03-5.43 10.62-9.79 15.7-14.36q.53-.47.51-1.21 1.08-.14 1.86-.69ZM398.32 354.24l1.53.32 21.06 19.59q-.05.09.48.89-.95 2.23-.54 4.14l-22.53-.45v-24.49Z"/><path fill="#0168c7" d="m420.91 374.15-21.06-19.59 20.53-.26a.52.51 89.5 0 1 .52.52l.01 19.33ZM335.69 354.71q.02.74-.51 1.21c-5.08 4.57-11.67 8.93-15.7 14.36-2.73 3.68-5.62 3.5-4.35 9.67l.04 24.11q-.17.23 0 .92l-.21-.21q-.17-.16-.4-.16l-29.01.35q-.61-.27-.38-1.21l.36-.7 29.02-28.69a1.58 1.54-23 0 0 .46-1.1l.24-17.56a1.27 1.26-89.1 0 1 1.28-1.25l19.16.26Z"/><path fill="#2ee3e5" d="M475.3 354.67q11.61.34 23.2.09c1.99-.04 3.08.52 4.56 1.99q11.9 11.84 25.65 23.52-15.26 1.19-19.96.76-4-.37-7.91-.59l-24.54-.14a.76.75 1.2 0 0-.76.72l-.25 5.92-.06 17.12-24.02.09q-.5-.95-.72-.82l-.35-22.53 22.93-.12q.79-.23 1.58-.84.4-.3.4-.8l.25-24.37Z"/><path fill="#8afdfb" d="m260.18 355.13.18 24.83-24.09-.02a.9.89.3 0 0-.9.88l-.36 23.32-7.48.68-27.84-.48c-.69-8.57-1.43-14.73 4.54-20.35q14.56-13.69 29-27.51 1.91-1.83 5.77-1.78 10.6.15 21.18.43Z"/><path fill="#0249aa" d="m377.3 356.46.15 23.62-19.14.18-.1-22.97q.67.24 1.1-.09.41-.32.46-.34c.74-.32 1.27.06 1.97.02q7.63-.44 15.56-.42Z"/><path fill="#0274d0" d="m285.71 380.62-21-.45 20.4-18.13a.48.47 69.5 0 1 .79.36l-.19 18.22Z"/><path fill="#0058b6" d="m473.07 380.68-22.93.12-.38-18.13a.49.49 0 0 1 .79-.39q7.86 6.11 14.97 12.92c2.23 2.14 5.1 3.25 7.55 5.48Z"/><rect width="15.02" height="16.12" x="-7.51" y="-8.06" fill="#7227c6" rx=".66" transform="rotate(-.1 214728.518 -381969.928)"/><path fill="#0168c7" d="m421.39 375.04 29.1 28.29q.22-.13.72.82-.34.42.75.51-.81-.07-1.41.82-.14-.04-.17-.23-.03-.23-.26-.24-13.81-.43-27.62-.64-1.15-.01-1.73.58-.14-.06-.29-.2.48-1.26.49-2.25.12-9.24-.12-23.32-.41-1.91.54-4.14Z"/><path fill="#131e68" d="m398.32 378.73 22.53.45q.24 14.08.12 23.32-.01.99-.49 2.25l-21.51-.03-.26-.64q-.19-.46-.19-.96l-.2-24.39ZM337.45 379.1l.28 25.89q-10.43-.21-20.86-.4-1.13-.02-1.7-.53l-.04-24.11q3.1-.13 6.26-.51c5.5-.66 10.67-.47 16.06-.34Z"/><path fill="#0093d8" d="M260.36 379.96q.66.23.88.87l-.42 8.94q-2.87.06-4.76 2.29-5.64 6.64-13.24 12.6l-7.51.55q-.42-.66-.3-1.07l.36-23.32a.9.89.3 0 1 .9-.88l24.09.02Z"/><path fill="#8afdfb" d="m264.71 380.17 21 .45-.18 22.43-.36.7q-.49.45-1.22.62l-22.72.41q-.18.13-.43-.5l.02-14.51.42-8.94 3.47-.66Z"/><path fill="#131e68" d="m377.45 380.08.01 55.33-18.67-.04-.48-55.11 19.14-.18Z"/><path fill="#01c3d3" d="m528.71 380.27 8.57 8.69.03 15.35-33.06.12-3.06-.88q-1.15-11.37-.35-23.11 3.91.22 7.91.59 4.7.43 19.96-.76Z"/><path fill="#0058b6" d="M500.84 380.44q-.8 11.74.35 23.11-.79.63-.49 1.34l-5.85-.24q1.47-.32.14-2.21-.47-.66-1.42-1.45c-4.67-3.91-8.67-8.51-13.32-12.53q-2.29-1.99-4.96-1.52l.25-5.92a.76.75 1.2 0 1 .76-.72l24.54.14Z"/><rect width="10.04" height="8.04" x="-5.02" y="-4.02" fill="#fff" rx="1.06" transform="rotate(-.1 221046.64 -360432.65)"/><rect width="9.06" height="7" x="-4.53" y="-3.5" fill="#fff" rx="1.08" transform="rotate(-.1 221068.468 -57165.915)"/><path fill="#0249aa" d="m494.85 404.65-18.89.06q-.62-.69-.73-.65l.06-17.12q2.67-.47 4.96 1.52c4.65 4.02 8.65 8.62 13.32 12.53q.95.79 1.42 1.45 1.33 1.89-.14 2.21Z"/><path fill="#0168c7" d="m260.82 389.77-.02 14.51q-.25.37-.8.38-3.7.05-17.18 0 7.6-5.96 13.24-12.6 1.89-2.23 4.76-2.29Z"/><path fill="#0249aa" d="m501.19 403.55 3.06.88 28.65 24.43q-12.2 1.59-23.14.05-1.94-.27-3.1 1.36-1.58-1.72-5.63-1.15l-.33-24.23q-.3-.71.49-1.34Z"/><path fill="#21197d" d="M285.17 403.75q-.23.94.38 1.21v24.35l.06-.4c-.78.34-1.59.66-2.51.68q-10.8.22-21.6.14-.13.2-.76.22.16-.74-.29-1.49-.12-.5-.01-.97.09-.38.52-.73c5.43-4.37 10.2-9.58 15.13-14.48 2-1.98 4.83-5.61 7.86-7.91q.73-.17 1.22-.62Z"/><path fill="#4a3cc9" d="M475.23 404.06q.11-.04.73.65-.56.16-.54.79.17 10.74.44 21.48-1.01-.19-1.52-.57-12.48-9.42-22.38-21.75-1.09-.09-.75-.51l24.02-.09Z"/><path fill="#0274d0" d="M235.01 404.14q-.12.41.3 1.07l.18 24.03q.27.15-.3.51l-35.67.19q.47-.6.94-.96 14.42-10.98 27.07-24.16l7.48-.68Z"/><path fill="#0058b6" d="M315.17 404.06q.57.51 1.7.53 10.43.19 20.86.4c.16 3.35.6 6.39-1.89 8.42q-9.85 8.05-20.26 17.2.57-.17-.57-1.46l.16-24.17q-.17-.69 0-.92Z"/><path fill="#1ed8ff" d="m199.69 404.34 27.84.48q-12.65 13.18-27.07 24.16-.47.36-.94.96-.27-.04-.61.2l-1.55-.18-.17-13.04.09-11.93 2.41-.65ZM260.8 404.28q.25.63.43.5-.79 1.17-.79 1.72-.09 10.98-.14 21.96-.06 1.24-1.63 1.46-.82-.96-2.67-.91-7.1.23-20.51.23l-.18-24.03 7.51-.55q13.48.05 17.18 0 .55-.01.8-.38Z"/><path fill="#7227c6" d="M283.95 404.37c-3.03 2.3-5.86 5.93-7.86 7.91-4.93 4.9-9.7 10.11-15.13 14.48q-.43.35-.52.73-.11.47.01.97h-.15q.05-10.98.14-21.96 0-.55.79-1.72l22.72-.41Z"/><path fill="#1ed8ff" d="m450.55 405.48-.22 23.3q-.1.48-.83.5-14.04.28-28.38.17l-.35-24.5q.58-.59 1.73-.58 13.81.21 27.62.64.23.01.26.24.03.19.17.23Z"/><path fill="#0058b6" d="m504.25 404.43 33.06-.12-.04 25.2q-3.37.06-4.37-.65l-28.65-24.43Z"/><path fill="#1ed8ff" d="m315.17 404.98-.16 24.17-29.46.16v-24.35l29.01-.35q.23 0 .4.16l.21.21ZM494.85 404.65l5.85.24.33 24.23-.14.21-24.08.44q-.7-.03-1.09-.74.24-.93.14-2.05-.27-10.74-.44-21.48-.02-.63.54-.79l18.89-.06Z"/><path fill="#0058b6" d="m398.97 404.72 21.51.03q.15.14.29.2l.35 24.5q-1.38.35-.56.41-14.83-12.45-19.59-16.31c-3.21-2.6-2.6-4.53-2.4-8.29q.02-.47.4-.54Z"/><path fill="#131e68" d="M451.96 404.66q9.9 12.33 22.38 21.75.51.38 1.52.57.1 1.12-.14 2.05-.47.71-1.1.58-.7-.15-.76-.15-11.44-.19-22.9.13l-.63-.81.22-23.3q.6-.89 1.41-.82Z"/><rect width="10.96" height="11" x="-5.48" y="-5.5" fill="#b945ec" rx=".65" transform="rotate(-.1 239663.779 -362416.026)"/><path fill="#8afdfb" d="M604.44 413.97q-.59-.35-1.14.11-6.63 5.47-14.36 13.1-1.57 1.54-2.7.56l.13-13.59a.88.88 0 0 1 .87-.88q6.56-.07 13.33.01c1.28.02 2.36-.54 3.64-.62a.74.73-9.7 0 1 .76.53q.15.57-.53.78Z"/><rect width="14.04" height="17" x="-7.02" y="-8.5" fill="#8afdfb" rx=".72" transform="rotate(.1 -241579.793 81370.331)"/><path fill="#2ee3e5" d="m604.44 413.97-.15 15.99a.31.31 0 0 1-.31.31h-16.96q-.46 0-.61-.44-.38-1.13-.17-2.09 1.13.98 2.7-.56 7.73-7.63 14.36-13.1.55-.46 1.14-.11Z"/><path fill="#1a163f" d="m197.19 416.92.17 13.04-.07 23.84a.79.79 0 0 0 .47.72q.67.29 2.03.32l34.56-.03q.07.16.29.16l-.02 24.77.43 2.22-.16 23.12q-.01 1.45 1.43 1.44l23.34-.1 24.39-.1a.91.91 0 0 0 .9-.89q.18-6.6.24-13.44c.03-3-.58-6.28.56-9.81l29.21-.72-.01 11.78q0 1.22-1.22 1.22h-14.24q-.55 0-.55.55v27.74a.7.7 0 0 1-.7.7l-29.76.01q-.56 0-.56.56l-.04 18.52q-.01.92-.92.93l-23.72.26a.49.49 0 0 1-.49-.49v-19.01q0-.77-.77-.77h-23.64q-.63 0-.63-.63v-52.82a.49.48 0 0 0-.49-.48l-34.51.06a.21.21 0 0 1-.21-.21l-.05-33.15q.54.18.99.11.46-.07.53-.52.16-1 .67-1.85.29-.48 0-.96l-.66-1.06q-.24-.4-.19-.86.22-2.22 1.37-4.2a1.94 1.86-.1 0 1 .76-.73q1.98-1.03 3.29-2.8.29-.39.73-.59l3.97-1.81a1.42 1.4-89.2 0 0 .67-.66q1.03-2.12 2.61-3.38Z"/><path fill="#0cb2f2" d="M260.3 428.46h.15q.45.75.29 1.49-.03 11.78.03 23.55.01.68-.82.93-18.65.12-23.45.05-1.24-.02-1.86.49-.22 0-.29-.16.27-1.25.94-2.05 1.04-.59 1.56-1.16 10.06-10.84 21.22-20.54.55-.48.6-1.14 1.57-.22 1.63-1.46Z"/><path fill="#4a189b" d="M532.9 428.86q1 .71 4.37.65l-.04 24.3q0 .53-.43.82-1.08.76-2.01.13-13.42-13.02-28.13-24.49 1.16-1.63 3.1-1.36 10.94 1.54 23.14-.05Z"/><path fill="#0093d8" d="m285.55 429.31 29.46-.16q1.14 1.29.57 1.46l-.64 22.91-7.53.03-21.67.48-.13-25.12-.06.4Z"/><path fill="#0384da" d="m450.33 428.78.63.81-.35 23.86-29.73.2-.32-23.79q-.82-.06.56-.41 14.34.11 28.38-.17.73-.02.83-.5Z"/><path fill="#927ef6" d="M258.67 429.92q-.05.66-.6 1.14-11.16 9.7-21.22 20.54-.52.57-1.56 1.16l-.1-23.01q.57-.36.3-.51 13.41 0 20.51-.23 1.85-.05 2.67.91Z"/><path fill="#0249aa" d="m285.61 428.91.13 25.12q.08.17.16.33-12.2-.39-24-.06-.49.02-.7.27-.24.28-.3.76-.38-.88-.95-.9.83-.25.82-.93-.06-11.77-.03-23.55.63-.02.76-.22 10.8.08 21.6-.14c.92-.02 1.73-.34 2.51-.68ZM475.72 429.03l-.18 24.7a.85.85 0 0 0 .85.86q11.67.06 23.61 0 .48-.01 1.16.38l.34 26.79-25.86-.5-.58-26.25a.93.93 0 0 0-.92-.91l-22.98-.13q-.42.6-.55-.52l.35-23.86q11.46-.32 22.9-.13.06 0 .76.15.63.13 1.1-.58Z"/><path fill="#0cb2f2" d="M475.72 429.03q.39.71 1.09.74l23.82 23.18q.8.59.87 1.7-.17 0-.34.32-.68-.39-1.16-.38-11.94.06-23.61 0a.85.85 0 0 1-.85-.86l.18-24.7Z"/><path fill="#7227c6" d="M501.03 429.12q4.05-.57 5.63 1.15 14.71 11.47 28.13 24.49l-33.29-.11q-.07-1.11-.87-1.7.08.21.3.18.28-.03.28-.31l-.32-23.49.14-.21Z"/><path fill="#b945ec" d="m500.89 429.33.32 23.49q0 .28-.28.31-.22.03-.3-.18l-23.82-23.18 24.08-.44ZM235.19 429.75l.1 23.01q-.67.8-.94 2.05l-34.56.03.17-21.09q0-.3-.19-.54l-.24-.31q-.32-.39-.04-.8.76-1.15-.58-1.96.34-.24.61-.2l35.67-.19Z"/><path fill="#ce63ec" d="m197.36 429.96 1.55.18q1.34.81.58 1.96-.28.41.04.8l.24.31q.19.24.19.54l-.17 21.09q-1.36-.03-2.03-.32a.79.79 0 0 1-.47-.72l.07-23.84Z"/><rect width="16.28" height="19.36" x="-8.14" y="-9.68" fill="#2ee3e5" rx=".37" transform="rotate(-.4 63691.702 -80771.645)"/><rect width="16.06" height="16.06" x="-8.03" y="-8.03" fill="#8afdfb" rx=".44" transform="rotate(.3 -84383.71 32824.274)"/><path fill="#927ef6" d="m307.41 453.55-21.35 19.57-.16-18.76q-.08-.16-.16-.33l21.67-.48Z"/><path fill="#4a189b" d="m314.94 453.52.32.5a1.56 1.52 29.7 0 1 .25.87l-.45 23.62-.1 2.95-29.21.72q-.56.07-.95-.5l1.26-8.56 21.35-19.57 7.53-.03ZM450.61 453.45q.13 1.12.55.52.12 13.69.02 26.78 0 .59.53.94l-.85.53-28.1.24q-2.06.02-2.05-2.04l.17-26.77 29.73-.2Z"/><path fill="#7227c6" d="m475.64 481.26-23.93.43q-.53-.35-.53-.94.1-13.09-.02-26.78l22.98.13a.93.93 0 0 1 .92.91l.58 26.25Z"/><path fill="#0058b6" d="M259.95 454.43q.57.02.95.9.15.41-.03 1.14-.09.13-.33.2-.32.1-.54.34-6.95 7.62-15.1 13.86c-3.67 2.81-6.79 5.91-10.28 8.87l.02-24.77q.62-.51 1.86-.49 4.8.07 23.45-.05Z"/><path fill="#7227c6" d="m285.9 454.36.16 18.76-1.26 8.56-24.89.39q-.11.4-.37-.27.47-.7.51-1.55.51-11.9.82-23.78.18-.73.03-1.14.06-.48.3-.76.21-.25.7-.27 11.8-.33 24 .06Z"/><rect width="15.02" height="12.98" x="-7.51" y="-6.49" fill="#fff" rx=".91" transform="rotate(-.1 265492.21 -361820.529)"/><path fill="#0249aa" d="M260.87 456.47q-.31 11.88-.82 23.78-.04.85-.51 1.55-.73-.35-1.54-.37-11.47-.17-22.95.53l-.43-2.22c3.49-2.96 6.61-6.06 10.28-8.87q8.15-6.24 15.1-13.86.22-.24.54-.34.24-.07.33-.2Z"/><rect width="11" height="12" x="-5.5" y="-6" fill="#ce63ec" rx=".86" transform="rotate(-.2 132797.152 -29309.989)"/><rect width="6.02" height="6" x="-3.01" y="-3" fill="#fff" rx="1.07" transform="rotate(.3 -88309.13 70514.337)"/><path fill="#4a189b" d="M259.54 481.8q.26.67.37.27l-.25 24.35-23.34.1q-1.44.01-1.43-1.44l.16-23.12q11.48-.7 22.95-.53.81.02 1.54.37Z"/><path fill="#062d8a" d="M475.64 481.26q.16.1.29.2.32.25.31.65l-.32 24.16-22.89.26q-1.74.02-1.77-1.72l-.4-22.59.85-.53 23.93-.43Z"/><path fill="#4a189b" d="m475.64 481.26 25.86.5-.21 23.73a.97.96-89.4 0 1-.97.96l-24.4-.18.32-24.16q.01-.4-.31-.65-.13-.1-.29-.2Z"/><path fill="#062d8a" d="M284.8 481.68q.39.57.95.5c-1.14 3.53-.53 6.81-.56 9.81q-.06 6.84-.24 13.44a.91.91 0 0 1-.9.89l-24.39.1.25-24.35 24.89-.39Z"/><rect width="16.96" height="14.02" x="-8.48" y="-7.01" fill="#fff" rx=".65" transform="rotate(-.1 285281.8 -341686.7)"/><rect width="17.04" height="14.06" x="127.66" y="491.38" fill="#fff" rx="1.05"/><path fill="#fff" d="M192.82 511.1q-10.61-.44-21.22 1.06l.12-13.95a.83.83 0 0 1 .83-.82l18.89-.02a1.27 1.27 0 0 1 1.27 1.26l.11 12.47Z"/><path fill="#8afdfb" d="m562.4 512.11-24.26-.04.09-13.4a1.29 1.29 0 0 1 1.29-1.29l22.21-.01a.57.57 0 0 1 .57.56l.1 14.18ZM192.82 511.1q.34.65.05 1.86-.89.19-1.12.35-11.1 7.56-20.04 17.66-.57-.24-.29-1.11.21-.63.22-1.02.27-8.28-.04-16.68 10.61-1.5 21.22-1.06Z"/><path fill="#01adc8" d="m538.14 512.07 24.26.04-.08 18.56q0 .83-.83.83h-22.7a.57.57 0 0 1-.57-.57l-.08-18.86ZM192.87 512.96l-.11 17.93q-.01.53-.53.53-9.34.05-18.43 0c-.46 0-.8.18-1.22.28q-.52.12-.73-.38l-.14-.35q8.94-10.1 20.04-17.66.23-.16 1.12-.35Z"/><rect width="17.04" height="16.74" x="-8.52" y="-8.37" fill="#1a163f" rx=".61" transform="rotate(-.1 300455.605 -363531.81)"/><rect width="16.06" height="17" x="-8.03" y="-8.5" fill="#7080f7" rx=".87" transform="rotate(.2 -150898.643 28796.724)"/><path fill="#fff" d="m368.28 524.39.03 16.18-16.82-.11a.5.5 0 0 1-.5-.5v-14.92a.58.57-90 0 1 .57-.58l16.72-.07Z"/><path fill="#0093d8" d="m368.28 524.39 15.21.09q.54 0 .53.53v14.95a.52.52 0 0 1-.52.52l-15.19.09-.03-16.18Z"/><rect width="13.54" height="17.02" x="590.7" y="533.49" fill="#0384da" rx=".27"/><path fill="#3bfcf2" d="m363.75 643.84 9.77-.28q.48-.02.48.46v9.48q0 .5-.5.5l-30.02-.01a.27.27 0 0 1-.21-.43q6.36-8.39 12.61-16.69c2.9-3.84 9.3-12.98 6.01-17.86a2.41 2.4 55.9 0 0-3.34-.65c-1.87 1.27-1.55 4.43-1.58 6.44q-.01.47-.49.47l-10.95-.01a.44.44 0 0 1-.44-.41q-.46-8.81 5.47-13.55c5.26-4.21 13.18-4.59 18.62-.5 5.11 3.85 6.32 10.48 4.84 16.61-1.51 6.23-5.92 11.52-10.48 15.91q-.57.54.21.52Z"/><path fill="#fff" d="M326.09 624.39c-4.34-8.69-17.06.83-7.86 5.07q3.27 1.51 6.53 2.97c12.66 5.64 6.93 23.61-6.33 22.24-5.92-.61-9.83-4.77-10.72-10.66q-.05-.3.24-.37l5.3-1.29q.28-.07.27.23c-.26 6.64 8.23 9.47 11.53 4.03 1.94-3.2 1-7.59-2.55-9.17-5.94-2.64-14.4-5.03-12.97-13.31 1.82-10.54 16.36-11.33 21.06-2.42q.12.22-.09.35l-4.05 2.44q-.23.14-.36-.11ZM157.25 639.27v14.23q0 .5-.5.5h-4.74q-.48 0-.48-.49v-36.73q0-.43.43-.45c4.96-.29 12.5-.7 16.53 2.45 4.95 3.85 5.64 11.49 1.43 16.12-3.15 3.46-7.69 3.83-12.18 3.87q-.49 0-.49.5Zm-.03-17.54.02 11.52a.29.29 0 0 0 .29.29l2.64-.01a7.11 5.72-.1 0 0 7.1-5.73v-.66a7.11 5.72-.1 0 0-7.12-5.71l-2.64.01a.29.29 0 0 0-.29.29Z"/><rect width="5.72" height="37.74" x="185.53" y="616.26" fill="#fff" rx=".3"/><path fill="#fff" d="m209.77 654-5.57-.02a.33.33 0 0 1-.28-.5l11.41-19a.33.33 0 0 0 0-.34l-10-17.38a.33.33 0 0 1 .28-.5l5.66.02a.33.33 0 0 1 .28.17l6.85 12.18a.33.33 0 0 0 .57.01l7.27-12.23a.33.33 0 0 1 .29-.16l5.64.03a.33.33 0 0 1 .28.5l-10.46 17.38a.33.33 0 0 0 0 .34l11 18.98a.33.33 0 0 1-.28.49l-5.52.04a.33.33 0 0 1-.29-.17l-8.02-13.83a.33.33 0 0 0-.57-.01l-8.25 13.84a.33.33 0 0 1-.29.16ZM251.25 636.34v12.07a.34.34 0 0 0 .34.34h14.32a.34.34 0 0 1 .34.34v4.57a.34.34 0 0 1-.34.34h-20.04a.34.34 0 0 1-.34-.34V616.6a.34.34 0 0 1 .34-.34h20.04a.34.34 0 0 1 .34.34v4.8a.34.34 0 0 1-.34.34h-14.32a.34.34 0 0 0-.34.34v8.33a.34.34 0 0 0 .34.34h14.07a.34.34 0 0 1 .34.34v4.57a.34.34 0 0 1-.34.34h-14.07a.34.34 0 0 0-.34.34ZM286.57 648.75h10.36a.32.32 0 0 1 .32.32v4.61a.32.32 0 0 1-.32.32h-16.08a.32.32 0 0 1-.32-.32v-37.1a.32.32 0 0 1 .32-.32h5.08a.32.32 0 0 1 .32.32v31.85a.32.32 0 0 0 .32.32ZM396.25 636.33v17.34a.33.33 0 0 1-.33.33h-5.06a.33.33 0 0 1-.33-.33v-37.08a.33.33 0 0 1 .33-.33h18.06a.33.33 0 0 1 .33.33v4.82a.33.33 0 0 1-.33.33h-12.34a.33.33 0 0 0-.33.33v8.35a.33.33 0 0 0 .33.33h12.09a.33.33 0 0 1 .33.33v4.59a.33.33 0 0 1-.33.33h-12.09a.33.33 0 0 0-.33.33ZM428.59 648.75h10.32a.34.34 0 0 1 .34.34v4.57a.34.34 0 0 1-.34.34h-16.04a.34.34 0 0 1-.34-.34V616.6a.34.34 0 0 1 .34-.34h5.04a.34.34 0 0 1 .34.34v31.81a.34.34 0 0 0 .34.34ZM456.25 640.65c.01 9.28 11.65 11.8 15.24 4.97q1.24-2.35 1.25-8.45.02-10.42.01-20.63a.27.27 0 0 1 .27-.27l5.19-.01a.24.23 0 0 1 .24.23q.06 12.51-.02 25.26-.03 4.44-3.63 8.54c-6.38 7.26-18.93 5.28-22.98-3.56q-1.23-2.68-1.26-7.9-.06-11.26-.02-22.35a.23.23 0 0 1 .23-.22H456q.25 0 .25.25v24.14ZM505 622.04v31.66a.3.3 0 0 1-.3.3l-5.14-.01a.3.3 0 0 1-.3-.3v-31.65a.3.3 0 0 0-.3-.3h-8.13a.3.3 0 0 1-.3-.3v-4.88a.3.3 0 0 1 .3-.3h22.33a.3.3 0 0 1 .3.3l.02 4.88a.3.3 0 0 1-.3.3h-7.88a.3.3 0 0 0-.3.3ZM536 622.05v31.64a.31.31 0 0 1-.31.31h-5.12a.31.31 0 0 1-.31-.31v-31.64a.31.31 0 0 0-.31-.31h-8.11a.31.31 0 0 1-.31-.31v-4.86a.31.31 0 0 1 .31-.31h22.31a.31.31 0 0 1 .31.31l.02 4.86a.31.31 0 0 1-.31.31h-7.86a.31.31 0 0 0-.31.31ZM562.25 636.32v12.11a.32.32 0 0 0 .32.32h14.36a.32.32 0 0 1 .32.32v4.61a.32.32 0 0 1-.32.32h-20.08a.32.32 0 0 1-.32-.32v-37.1a.32.32 0 0 1 .32-.32h20.08a.32.32 0 0 1 .32.32v4.84a.32.32 0 0 1-.32.32h-14.36a.32.32 0 0 0-.32.32v8.37a.32.32 0 0 0 .32.32h14.11a.32.32 0 0 1 .32.32v4.61a.32.32 0 0 1-.32.32h-14.11a.32.32 0 0 0-.32.32ZM605.66 637.8q-.45.1-.18.47l11.15 15.32a.24.24 0 0 1-.19.39l-6.09.02q-.3.01-.48-.24l-10.14-14.5q-1.48-2.12-1.48.47v14.02q0 .25-.25.25l-5.24-.01q-.23 0-.23-.23v-36.98q0-.44.44-.46c6.34-.36 17.05-.65 19.76 6.41 2.36 6.14-.25 13.57-7.07 15.07Zm-7.45-15.75v11.12a.35.35 0 0 0 .35.35h3.64a5.81 5.34 0 0 0 5.81-5.34v-1.14a5.81 5.34 0 0 0-5.81-5.34h-3.64a.35.35 0 0 0-.35.35Z"/></svg>
