<svg xmlns="http://www.w3.org/2000/svg" viewBox="0 0 662 662"><g fill="none" stroke-width="2"><path stroke="#6592ae" d="m357.6 59.43-4.21-2.2M307.54 86.13l10.5 10.56q1.6 1.61 1.52-.7-.03-.71-.74-2.3-3.13-6.93-6.67-13.88M305.62 59.5q1.68-.48 3.17-1.69.14-.11.09-.29-.04-.12-.18-.18M352.78 58.37l1.99 1.69M346.55 86.28l-4.79 9.7a.9.89 33.9 0 0 .22 1.08q.67.58 1.41-.15 3.55-3.48 6.75-7.31M308.43 56.16q-1.65 1.64-4.19 2.5" vector-effect="non-scaling-stroke"/><path stroke="#8198ae" d="M378.02 94.46q-.5.12-.9.43-16.33 12.97-29.42 29.35" vector-effect="non-scaling-stroke"/><path stroke="#3f8cad" d="M358.93 134.72q.26.79.82.8 9.89.23 27.46-.18" vector-effect="non-scaling-stroke"/><path stroke="#0f77aa" d="M393.33 135.06q8.38.92 15.11-1.18" vector-effect="non-scaling-stroke"/><path stroke="#bdf3fe" d="M369.91 109.33q-6.44 2.78-12.91 7.2-4.51 3.07-6.69 7.75" vector-effect="non-scaling-stroke"/><path stroke="#8198ae" d="m223.52 70.16 12.34 21.01" vector-effect="non-scaling-stroke"/><path stroke="#3f8cad" d="m235.86 91.17 1.97 3.25" vector-effect="non-scaling-stroke"/><path stroke="#0f77aa" d="m237.83 94.42 6.92 12.63a7.37 7.32-58.3 0 1 .9 3.86c-.35 8.11-.57 18.58 7.98 23.08 4.48 2.36 7.62 1.46 12.35 1.46" vector-effect="non-scaling-stroke"/><path stroke="#3f8cad" d="m265.98 135.45 51.09.03a1.31 1.31 0 0 0 1.25-.93q.91-3.05-.96-5.86-2.75-4.12-5.66-6.6" vector-effect="non-scaling-stroke"/><path stroke="#8198ae" d="M311.7 122.09q-10.25-11.31-20.6-21.43-9.33-9.13-20.25-16.28c-8.75-5.73-16.89-11.02-26.87-14.42" vector-effect="non-scaling-stroke"/><path stroke="#6592ae" d="M243.98 69.96q-11.23-4.98-23.14-5.44a.57.57 0 0 0-.49.88l3.17 4.76" vector-effect="non-scaling-stroke"/><path stroke="#e3f9ff" d="M243.98 69.96q-8.26.66-19.23-1.08-1.66-.26-1.23 1.28" vector-effect="non-scaling-stroke"/><path stroke="#bdf3fe" d="M311.7 122.09q-9.95-7.52-16.71-11.36-11.71-6.63-27.91-13.31-15.87-6.54-31.22-6.25" vector-effect="non-scaling-stroke"/><path stroke="#4ad3fa" d="M265.98 135.45q-2.43-1.67-5.04-3.12c-8.09-4.52-12.21-12.23-12.23-21.58q-.01-1.93-2.04-5.83-.09-.17-2.22-5.01-2.06-4.68-6.62-5.49" vector-effect="non-scaling-stroke"/><path stroke="#6592ae" d="M284.04 157.84q-13.62 1.81-18.64 16.58" vector-effect="non-scaling-stroke"/><path stroke="#3f8cad" d="m265.4 174.42-1.32 4.06" vector-effect="non-scaling-stroke"/><path stroke="#0f77aa" d="M264.08 178.48c-3.38 20.12 11.07 34.9 30.93 32.45q6.38-.79 9.74-3.95 5.85-5.51 11.73-10.99 2.7-2.51 2.74-6.73.12-13.15-.15-26.6" vector-effect="non-scaling-stroke"/><path stroke="#3f8cad" d="M319.07 162.66q.5-4.82-3.82-4.94-9.3-.27-31.21.12" vector-effect="non-scaling-stroke"/><path stroke="#4ad3fa" d="M319.07 162.66q-17.22 16.95-33.63 34.02-2.18 2.27-4.58 2.24c-9.5-.13-14.4-11.26-14.17-19.5a.65.65 0 0 0-.94-.6l-.99.49q-.52.26-.6-.31l-.08-.52" vector-effect="non-scaling-stroke"/><path stroke="#a1edfe" d="M265.4 174.42q-.21.67.58 1.08.45.22.77-.16c2.63-3.19 4.87-6.3 8.26-8.83q3.79-2.84 7.54-5.69 2.21-1.68 1.49-2.98" vector-effect="non-scaling-stroke"/><path stroke="#0f77aa" d="m342.8 162.99.18 27.91a4.01 4-65.8 0 0 .99 2.61q4.17 4.77 8.97 9.22c5.76 5.34 8.43 7.86 15.79 8.27 8.79.49 17.03-1.12 22.94-8.08q9.48-11.18 5.88-26.23" vector-effect="non-scaling-stroke"/><path stroke="#3f8cad" d="M397.55 176.69q-2.04-9.08-9.48-15.55-4.12-3.58-8.81-3.58-15.82.01-31.64.1-2.84.02-4.36 1.06a1.12 1.11-17.7 0 0-.49.94l.03 3.33" vector-effect="non-scaling-stroke"/><path stroke="#4ad3fa" d="M397.55 176.69q-1.8 2.09-2.95 7.92c-1.41 7.15-11.23 18.33-19.06 11.37-6.48-5.77-13.23-14.68-19.56-20.78q-6.37-6.14-13.18-12.21" vector-effect="non-scaling-stroke"/><path stroke="#7b96ae" d="M126.54 293.74q-3.95 10.99.08 20.86 3.73 9.13 12.41 12.29 4.32 1.58 15.63 1.59 164.82.15 329.63-.17" vector-effect="non-scaling-stroke"/><path stroke="#6592ae" d="M484.29 328.31q14.41.13 28.83.14c28.18.01 31.44-34.13 11.36-47.27" vector-effect="non-scaling-stroke"/><path stroke="#8198ae" d="M524.48 281.18q-4.21-2.38-8.23-2.38-185.67-.02-371.33-.08c-8.43 0-15.24 7.71-18.38 15.02" vector-effect="non-scaling-stroke"/><path stroke="#e3f9ff" d="m524.48 281.18-.27 1.37a.91.91 0 0 0 .14.7q5.59 8.3.48 16.27c-3.12 4.87-5.98 7.51-12.08 7.74q-16.38.64-32.75.23-2.78-.07-6.26.31" vector-effect="non-scaling-stroke"/><path stroke="#f9fdff" d="M473.74 307.8q-2.91.34-6.16.24c-19.38-.59-38.9-.22-58.31-.39q-.9-.01-2.49.38c-1.89.47-3.55.01-4.97-.01-81.76-.68-163.54.22-245.31-.49-4.78-.04-10.51.43-15.02-1.49q-1.88-.8-4.04-3.11c-1.71-1.82-4.26-3.5-5.42-5.69q-.78-1.48-1.63-2.02-1.57-1-3.85-1.48" vector-effect="non-scaling-stroke"/><path stroke="#ddf7ff" d="M484.29 328.31q.37-.52.36-.81c-.15-5.46-.08-9.64-4.3-13.61q-3.08-2.89-6.61-6.09" vector-effect="non-scaling-stroke"/><path stroke="#8198ae" d="M156.78 377.86q.2 93.26.23 186.89c0 7.38 1.03 15.26 5.12 21.4" vector-effect="non-scaling-stroke"/><path stroke="#7b96ae" d="M162.13 586.15q7.75 13.52 21.44 17.63 4.55 1.36 13.02 1.38 81.6.14 163.21-.08" vector-effect="non-scaling-stroke"/><path stroke="#6592ae" d="M359.8 605.08c34.8-.25 69.68-.02 104.49.15q8.81.04 13.28-1.32c12.44-3.77 22.55-15.11 25.93-27.34q1.53-5.51 1.54-18.78.02-103.41.05-206.92 0-.41-.41-.41l-347.64-.23q-.49 0-.48.49l.22 27.14" vector-effect="non-scaling-stroke"/><path stroke="#ddf7ff" d="M359.8 605.08q.41-.7-.36-1.25-.41-.29-.91-.27-2.97.17-4.69-2.62c-3.18-5.12-7.49-9.45-11.5-13.92-1.12-1.25-3.11-1.97-3.68-3.71" vector-effect="non-scaling-stroke"/><path stroke="#e3f9ff" d="M338.66 583.31c18.75-.11 37.4.35 56.09.2q31.21-.23 62.4-.27 8.13 0 11.98-1.42 8.19-3 11.22-11.11 1.47-3.93 1.51-12.59.33-82.56-.06-165.12-.05-10.48-8.75-16.05c-6.57-4.21-14.21-3.07-21.55-3.08q-66.62-.09-133.25.05c-50 .1-99.99-.26-150 .09q-2.82.02-5.31 1.07-3.04 1.29-6.16 2.78" vector-effect="non-scaling-stroke"/><path stroke="#f9fdff" d="M338.66 583.31c-9.17-.3-21.23-.02-27.55-.03q-52.29-.07-104.59-.33c-4.02-.02-8.74 1.04-12.02 1q-13.38-.17-26.75-.29-.81-.01-2.68.68-.44.16-.75.53-.77.93-2.19 1.28" vector-effect="non-scaling-stroke"/><path stroke="#e3f9ff" d="M250.06 471.34q-1.21 4.49-3.01 9c-1.75 4.38 2.99 9.54 6.32 12.54 7.52 6.76 16.55 16.41 24.54 24.13q20.35 19.68 40.07 39.99c8.15 8.41 14.88 14.1 25.44 3.49 21.34-21.45 42.04-43.5 63.58-64.74 6.35-6.27 12.44-12.02 6.12-20.97q-1.14-1.61-.93-3.34" vector-effect="non-scaling-stroke"/><path stroke="#8198ae" d="M412.19 471.44q5.73-14.7-7.98-19.92-3.35-1.27-8.6-1.29-10.28-.03-20.44.04a.7.69 89.6 0 1-.7-.7q.07-20.57 0-41.09-.01-4.79-1.32-7.47c-3.43-7-8.96-7.93-16.87-7.87q-25.71.2-51.44.09-6.18-.03-9.04 1.12c-7.43 2.98-8.5 9.06-8.54 17.06q-.1 18.67-.08 37.5a1.25 1.24-.2 0 1-1.24 1.24q-10.5.06-20.6.09c-6.49.02-11.03 1.03-14.78 5.99q-5.73 7.6-.5 15.11" vector-effect="non-scaling-stroke"/><path stroke="#6592ae" d="M412.19 471.44q-13.15 11.99-28.59 27.66-14.13 14.33-43.18 42.53-3.53 3.44-5.59 4.32c-2.91 1.26-8.59 1.48-11.05-.99q-36.8-37-73.72-73.62" vector-effect="non-scaling-stroke"/><path stroke="#8198ae" d="m316.01 415.71-4.96.01a.6.59-.5 0 0-.59.59l-.1 33.01" vector-effect="non-scaling-stroke"/><path stroke="#3f8cad" d="M310.36 449.32q-.16 6.49-.38 13.65c-.26 8.24-5.34 8.89-12.54 8.94l-14.12.08a.48.48 0 0 0-.34.81l47.55 48.5a.77.74 59 0 0 .74.2q.63-.18 1.03-.87" vector-effect="non-scaling-stroke"/><path stroke="#0f77aa" d="M332.3 520.63 379 472.4a.42.41-38.6 0 0 .06-.5q-.18-.3-.56-.29-9.37.08-18.75.29c-5.37.13-8.03-5.82-7.97-10.41q.3-22.64.44-45.4.01-.55-.54-.55l-20.47-.01" vector-effect="non-scaling-stroke"/><path stroke="#3f8cad" d="m331.21 415.53-15.2.18" vector-effect="non-scaling-stroke"/><path stroke="#4ad3fa" d="M331.21 415.53q-.15 45.85.23 91.59c.04 4.53.48 8.99.86 13.51" vector-effect="non-scaling-stroke"/><path stroke="#bdf3fe" d="M310.36 449.32q1.06 1.41 4.76.72.67-.13.68-.82l.21-33.51" vector-effect="non-scaling-stroke"/></g><path fill="#03305d" d="m357.6 59.43-4.21-2.2q-.44-.68-2.52-2.87c-6.72-7.05-2.15-17.19 6.87-19.08 8.02-1.68 14.49 5.65 13.37 13.38-.98 6.77-6.74 10.91-13.51 10.77ZM308.43 56.16q-1.65 1.64-4.19 2.5c-4.95.15-9.66.47-12.62-4.25q-1.64-2.62-2.05-6.68c-1.31-12.84 16.79-17.4 21.95-5.98q3.35 7.42-3.09 14.41Z"/><path fill="#03305d" d="m307.54 86.13 10.5 10.56q1.6 1.61 1.52-.7-.03-.71-.74-2.3-3.13-6.93-6.67-13.88l-.9-1.06q-.32-.39-.22-.87.15-.8-.68-.99-.5-.12-.43-.63l.06-.45a.83.83 0 0 0-.4-.82q-.55-.34-.55-.96 0-.49-.23-.93-1.85-3.49-3.83-6.9c-1.63-2.81-.09-4.18.65-6.7q1.68-.48 3.17-1.69.14-.11.09-.29-.04-.12-.18-.18c2.54.78 5 .55 7.12 2.16 5.75 4.36 10.73 14.7 13.84 21.29a1 .99-42.3 0 0 1.76.08c3.79-6.47 6.98-14.51 11.44-19.79q3.67-4.35 9.92-2.71l1.99 1.69q3.06 3.2 1.71 5.66c-4.24 7.77-7.65 13.72-9.93 20.56l-4.79 9.7a.9.89 33.9 0 0 .22 1.08q.67.58 1.41-.15 3.55-3.48 6.75-7.31 1.72-1.43 3.4-3.06c19.45-18.84 44.79-36.19 71.09-42.11 6.15-1.38 10.38-1.38 15.69-1.87 4.44-.41 10.74-.3 14.7 1.5 9.09 4.12 11.7 14.42 9.26 23.45q-.94 3.47-4.88 10.63c-6.41 11.64-13.42 22.91-19.78 34.57-2.8 5.12-1.03 12.12-1.95 16.05-2.94 12.56-13.17 21.89-24.9 26.33a1.25 1.25 0 0 0-.6 1.86c15.62 23.34 9.49 53.71-13.4 69.15-5.11 3.44-12.17 6.15-18.03 6.9q-2.25.28-10.99.2-9.87-.09-17.51-4.22c-5.7-3.09-9.81-7.33-14.33-11.86a1.3 1.29-44.2 0 0-1.81-.02l-2.41 2.31q-.39.37-.93.36-.5-.01-.95.39a1.31 1.31 0 0 1-1.81-.07q-1.84-1.93-4.19-3.2a2.23 2.22 28.8 0 0-3 .86q-1.12 2-3.23 3.83c-4.41 3.84-9.17 7.33-14.7 9.19-35.3 11.87-68.6-17.73-63.36-53.71 1-6.87 3.97-13.21 7.77-18.95q1.35-2.03-.88-3.03c-14.5-6.5-25.25-17.68-24.71-34.39.08-2.61-.61-5.51-1.71-7.44q-5.09-8.95-20.29-36.46c-3.06-5.54-5.74-10.48-5.57-16.53.29-10.16 6.69-16.93 17.28-17.26q10.9-.33 16.84.26c19.48 1.94 44.41 15.21 59.9 27.84 7.3 5.95 12.18 9.14 17.39 15.03Zm70.48 8.33q-.5.12-.9.43-16.33 12.97-29.42 29.35-4.05 3.87-4.68 8.94a1.81 1.81 0 0 0 1.78 2.03q6.57.07 13.7.02.3 0 .43-.51.26.79.82.8 9.89.23 27.46-.18l6.12-.28q8.38.92 15.11-1.18 4.6-2.4 6.21-6.5c2.19-5.57 1.13-12.24 1.33-17.92a8 7.96 61.3 0 1 1.09-3.76c6.02-10.23 12.61-20.53 18.87-30.8 1.67-2.72 3.07-6.02 4.77-8.75q1.41-2.28-1.25-1.95c-7.18.9-14.04 3.24-20.84 5.64-13.88 4.91-27.13 13.27-38.52 22.53q-1.17.95-2.08 2.09Zm-154.5-24.3 12.34 21.01 1.97 3.25 6.92 12.63a7.37 7.32-58.3 0 1 .9 3.86c-.35 8.11-.57 18.58 7.98 23.08 4.48 2.36 7.62 1.46 12.35 1.46l51.09.03a1.31 1.31 0 0 0 1.25-.93q.91-3.05-.96-5.86-2.75-4.12-5.66-6.6-10.25-11.31-20.6-21.43-9.33-9.13-20.25-16.28c-8.75-5.73-16.89-11.02-26.87-14.42q-11.23-4.98-23.14-5.44a.57.57 0 0 0-.49.88l3.17 4.76Zm60.52 87.68q-13.62 1.81-18.64 16.58l-1.32 4.06c-3.38 20.12 11.07 34.9 30.93 32.45q6.38-.79 9.74-3.95 5.85-5.51 11.73-10.99 2.7-2.51 2.74-6.73.12-13.15-.15-26.6.5-4.82-3.82-4.94-9.3-.27-31.21.12Zm58.76 5.15.18 27.91a4.01 4-65.8 0 0 .99 2.61q4.17 4.77 8.97 9.22c5.76 5.34 8.43 7.86 15.79 8.27 8.79.49 17.03-1.12 22.94-8.08q9.48-11.18 5.88-26.23-2.04-9.08-9.48-15.55-4.12-3.58-8.81-3.58-15.82.01-31.64.1-2.84.02-4.36 1.06a1.12 1.11-17.7 0 0-.49.94l.03 3.33Z"/><path fill="#c7f3fe" d="M308.43 56.16q.27.2.27 1.18.14.06.18.18.05.18-.09.29-1.49 1.21-3.17 1.69-.53-.8-1.38-.84 2.54-.86 4.19-2.5ZM353.39 57.23l4.21 2.2-2.83.63-1.99-1.69q.03-.86.61-1.14ZM243.98 69.96q-8.26.66-19.23-1.08-1.66-.26-1.23 1.28l-3.17-4.76a.57.57 0 0 1 .49-.88q11.91.46 23.14 5.44Z"/><path fill="#fff" d="M243.98 69.96c9.98 3.4 18.12 8.69 26.87 14.42q10.92 7.15 20.25 16.28 10.35 10.12 20.6 21.43-9.95-7.52-16.71-11.36-11.71-6.63-27.91-13.31-15.87-6.54-31.22-6.25l-12.34-21.01q-.43-1.54 1.23-1.28 10.97 1.74 19.23 1.08Zm23.73 15.88a.93.93 0 0 0 .71-1.42l-.47-.74a.93.93 0 0 0-.47-.38l-2.35-.86a.93.93 0 0 0-1.25.95l.17 1.84a.93.93 0 0 0 1 .84l2.66-.23Z"/><path fill="#c7f3fe" d="M312.15 79.81q3.54 6.95 6.67 13.88.71 1.59.74 2.3.08 2.31-1.52.7l-10.5-10.56 1.98-.14q.48-.03.48-.51v-2.81q0-.58.58-.62l.92-.06q.51-.03.44-.54-.13-.96.21-1.64ZM346.55 86.28q1.05 3.26 3.59 3.32-3.2 3.83-6.75 7.31-.74.73-1.41.15a.9.89 33.9 0 1-.22-1.08l4.79-9.7Z"/><path fill="#7ae7fd" d="M311.7 122.09q2.91 2.48 5.66 6.6 1.87 2.81.96 5.86a1.31 1.31 0 0 1-1.25.93l-51.09-.03q-2.43-1.67-5.04-3.12c-8.09-4.52-12.21-12.23-12.23-21.58q-.01-1.93-2.04-5.83-.09-.17-2.22-5.01-2.06-4.68-6.62-5.49l-1.97-3.25q15.35-.29 31.22 6.25 16.2 6.68 27.91 13.31 6.76 3.84 16.71 11.36Z"/><path fill="#1abef7" d="M237.83 94.42q4.56.81 6.62 5.49 2.13 4.84 2.22 5.01 2.03 3.9 2.04 5.83c.02 9.35 4.14 17.06 12.23 21.58q2.61 1.45 5.04 3.12c-4.73 0-7.87.9-12.35-1.46-8.55-4.5-8.33-14.97-7.98-23.08a7.37 7.32-58.3 0 0-.9-3.86l-6.92-12.63Z"/><path fill="#fff" d="M378.02 94.46q-.5 1.06.06 1.98 1.61 2.63 3.28 5.11.24.36-.17.52-5.94 2.22-11.28 7.26-6.44 2.78-12.91 7.2-4.51 3.07-6.69 7.75l-2.61-.04q13.09-16.38 29.42-29.35.4-.31.9-.43Z"/><path fill="#7ae7fd" d="M369.91 109.33q.08 6.13.11 12.52c.03 5.87 5.28 7.25 9.91 5.2q.44-.2.88 0c3.6 1.62 4.33 5.21 6.4 8.29q-17.57.41-27.46.18-.56-.01-.82-.8c1.22-6.91-3.3-8.66-8.62-10.44q2.18-4.68 6.69-7.75 6.47-4.42 12.91-7.2Z"/><path fill="#7ae7fd" d="M386.95 112.68q.36.2.34.6c-.11 1.92.15 4.14-.77 5.79-2.74 4.91-8.59 3.8-10.6-.98a1.97 1.97 0 0 1 .65-2.36c3.13-2.27 6.38-5.22 10.38-3.05Z"/><path fill="#1abef7" d="M408.44 133.88q-6.73 2.1-15.11 1.18 5.25-1.17 9.37-3.62a1.46 1.46 0 0 1 1.86.31q1.34 1.57 3.88 2.13Z"/><path fill="#fff" d="M183.65 170.17a.85.83 84.8 0 0 .65-.8c.1-3.64-.38-8.87 1.39-11.66 2.43-3.85 9.4-3.54 9.92 2.04q.36 3.88.44 7.84.06 2.81 2.87 2.85c3.56.05 9.48-.58 12.63.83 4.5 2 4.42 9.18-.34 11.02-3.03 1.17-9.71.62-12.94.58a2.19 2.19 0 0 0-2.22 2.17c-.04 4.94 1.48 12.25-5.68 13.08q-.98.11-3.25-1.07-.42-.22-.65-.63c-2.55-4.48-1.87-7.96-2.04-12.45a1.16 1.16 0 0 0-1.19-1.12c-3.6.09-12.28.94-15.17-1.12-3.48-2.49-3.76-5.88-1.1-9.08q1.18-1.43 3.6-1.68c4.13-.43 9.2.09 13.08-.8ZM465.01 183.41a.72.72 0 0 0-.71-.63c-3.87-.01-11.93.84-15.16-.83-6.61-3.4-1.78-11.38 4.36-11.39q5.02-.01 10.04-.11 1.67-.03 1.71-1.7c.07-3.4-.78-10.67 2.83-12.58q3.03-1.61 6.12.04c3.48 1.86 2.61 8.68 2.66 11.87a2.21 2.21 0 0 0 2.03 2.16q4.54.35 9.62.34 5.58-.02 7.95 4.96.81 1.68-.05 3.32-2.45 4.74-7.9 4.31-5.08-.41-9.56-.1a2.24 2.23 88.3 0 0-2.08 2.21c-.04 4.65 1.55 13.94-6.68 12.62-6.26-1-4.68-10.57-5.18-14.49Z"/><path fill="#7ae7fd" d="M319.07 162.66q-17.22 16.95-33.63 34.02-2.18 2.27-4.58 2.24c-9.5-.13-14.4-11.26-14.17-19.5a.65.65 0 0 0-.94-.6l-.99.49q-.52.26-.6-.31l-.08-.52 1.32-4.06q-.21.67.58 1.08.45.22.77-.16c2.63-3.19 4.87-6.3 8.26-8.83q3.79-2.84 7.54-5.69 2.21-1.68 1.49-2.98 21.91-.39 31.21-.12 4.32.12 3.82 4.94ZM397.55 176.69q-1.8 2.09-2.95 7.92c-1.41 7.15-11.23 18.33-19.06 11.37-6.48-5.77-13.23-14.68-19.56-20.78q-6.37-6.14-13.18-12.21l-.03-3.33a1.12 1.11-17.7 0 1 .49-.94q1.52-1.04 4.36-1.06 15.82-.09 31.64-.1 4.69 0 8.81 3.58 7.44 6.47 9.48 15.55Z"/><path fill="#c7f3fe" d="M284.04 157.84q.72 1.3-1.49 2.98-3.75 2.85-7.54 5.69c-3.39 2.53-5.63 5.64-8.26 8.83q-.32.38-.77.16-.79-.41-.58-1.08 5.02-14.77 18.64-16.58Z"/><path fill="#1abef7" d="M319.07 162.66q.27 13.45.15 26.6-.04 4.22-2.74 6.73-5.88 5.48-11.73 10.99-3.36 3.16-9.74 3.95c-19.86 2.45-34.31-12.33-30.93-32.45l.08.52q.08.57.6.31l.99-.49a.65.65 0 0 1 .94.6c-.23 8.24 4.67 19.37 14.17 19.5q2.4.03 4.58-2.24 16.41-17.07 33.63-34.02ZM342.8 162.99q6.81 6.07 13.18 12.21c6.33 6.1 13.08 15.01 19.56 20.78 7.83 6.96 17.65-4.22 19.06-11.37q1.15-5.83 2.95-7.92 3.6 15.05-5.88 26.23c-5.91 6.96-14.15 8.57-22.94 8.08-7.36-.41-10.03-2.93-15.79-8.27q-4.8-4.45-8.97-9.22a4.01 4-65.8 0 1-.99-2.61l-.18-27.91Z"/><path fill="#03305d" d="M528.78 348.52a2.23 2.22-8.7 0 0-1.56 2.12q.01 5.13 0 10.36-.22 99.63-.21 199.26 0 12.05-1.37 18.36c-6.21 28.47-30.25 49.16-59.74 49.22q-133.44.26-266.87.1-9.69-.01-15.45-1.3c-28.35-6.35-49.02-30.59-49.29-59.93-.66-72.07-.31-144.09-.27-215.91a2.2 2.19 9.2 0 0-1.51-2.08q-4.42-1.43-8.53-4.01c-15.76-9.92-23.36-26.75-21.76-44.93 1.7-19.28 14.7-36.86 33.67-42.29q4.43-1.27 11.86-1.26c123.81.15 247.66-.7 371.5-.01q5.09.03 13.4 4.23 19.13 9.65 25.16 30.29c1.99 6.78 1.83 16.46 1.03 23.01-2.02 16.42-15.03 30.04-30.06 34.77Zm-402.24-54.78q-3.95 10.99.08 20.86 3.73 9.13 12.41 12.29 4.32 1.58 15.63 1.59 164.82.15 329.63-.17 14.41.13 28.83.14c28.18.01 31.44-34.13 11.36-47.27q-4.21-2.38-8.23-2.38-185.67-.02-371.33-.08c-8.43 0-15.24 7.71-18.38 15.02Zm30.24 84.12q.2 93.26.23 186.89c0 7.38 1.03 15.26 5.12 21.4q7.75 13.52 21.44 17.63 4.55 1.36 13.02 1.38 81.6.14 163.21-.08c34.8-.25 69.68-.02 104.49.15q8.81.04 13.28-1.32c12.44-3.77 22.55-15.11 25.93-27.34q1.53-5.51 1.54-18.78.02-103.41.05-206.92 0-.41-.41-.41l-347.64-.23q-.49 0-.48.49l.22 27.14Z"/><path fill="#fff" d="m524.48 281.18-.27 1.37a.91.91 0 0 0 .14.7q5.59 8.3.48 16.27c-3.12 4.87-5.98 7.51-12.08 7.74q-16.38.64-32.75.23-2.78-.07-6.26.31-2.91.34-6.16.24c-19.38-.59-38.9-.22-58.31-.39q-.9-.01-2.49.38c-1.89.47-3.55.01-4.97-.01-81.76-.68-163.54.22-245.31-.49-4.78-.04-10.51.43-15.02-1.49q-1.88-.8-4.04-3.11c-1.71-1.82-4.26-3.5-5.42-5.69q-.78-1.48-1.63-2.02-1.57-1-3.85-1.48c3.14-7.31 9.95-15.02 18.38-15.02q185.66.06 371.33.08 4.02 0 8.23 2.38Z"/><path fill="#c7f3fe" d="M524.48 281.18c20.08 13.14 16.82 47.28-11.36 47.27q-14.42-.01-28.83-.14.37-.52.36-.81c-.15-5.46-.08-9.64-4.3-13.61q-3.08-2.89-6.61-6.09 3.48-.38 6.26-.31 16.37.41 32.75-.23c6.1-.23 8.96-2.87 12.08-7.74q5.11-7.97-.48-16.27a.91.91 0 0 1-.14-.7l.27-1.37Z"/><path fill="#f2fbff" d="M126.54 293.74q2.28.48 3.85 1.48.85.54 1.63 2.02c1.16 2.19 3.71 3.87 5.42 5.69q2.16 2.31 4.04 3.11c4.51 1.92 10.24 1.45 15.02 1.49 81.77.71 163.55-.19 245.31.49 1.42.02 3.08.48 4.97.01q1.59-.39 2.49-.38c19.41.17 38.93-.2 58.31.39q3.25.1 6.16-.24 3.53 3.2 6.61 6.09c4.22 3.97 4.15 8.15 4.3 13.61q.01.29-.36.81-164.81.32-329.63.17-11.31-.01-15.63-1.59-8.68-3.16-12.41-12.29-4.03-9.87-.08-20.86Z"/><path fill="#c7f3fe" d="M359.8 605.08q.41-.7-.36-1.25-.41-.29-.91-.27-2.97.17-4.69-2.62c-3.18-5.12-7.49-9.45-11.5-13.92-1.12-1.25-3.11-1.97-3.68-3.71 18.75-.11 37.4.35 56.09.2q31.21-.23 62.4-.27 8.13 0 11.98-1.42 8.19-3 11.22-11.11 1.47-3.93 1.51-12.59.33-82.56-.06-165.12-.05-10.48-8.75-16.05c-6.57-4.21-14.21-3.07-21.55-3.08q-66.62-.09-133.25.05c-50 .1-99.99-.26-150 .09q-2.82.02-5.31 1.07-3.04 1.29-6.16 2.78l-.22-27.14q-.01-.49.48-.49l347.64.23q.41 0 .41.41-.03 103.51-.05 206.92-.01 13.27-1.54 18.78c-3.38 12.23-13.49 23.57-25.93 27.34q-4.47 1.36-13.28 1.32c-34.81-.17-69.69-.4-104.49-.15Z"/><path fill="#fff" d="M338.66 583.31c-9.17-.3-21.23-.02-27.55-.03q-52.29-.07-104.59-.33c-4.02-.02-8.74 1.04-12.02 1q-13.38-.17-26.75-.29-.81-.01-2.68.68-.44.16-.75.53-.77.93-2.19 1.28c-4.09-6.14-5.12-14.02-5.12-21.4q-.03-93.63-.23-186.89 3.12-1.49 6.16-2.78 2.49-1.05 5.31-1.07c50.01-.35 100 .01 150-.09q66.63-.14 133.25-.05c7.34.01 14.98-1.13 21.55 3.08q8.7 5.57 8.75 16.05.39 82.56.06 165.12-.04 8.66-1.51 12.59-3.03 8.11-11.22 11.11-3.85 1.42-11.98 1.42-31.19.04-62.4.27c-18.69.15-37.34-.31-56.09-.2Zm-88.6-111.97q-1.21 4.49-3.01 9c-1.75 4.38 2.99 9.54 6.32 12.54 7.52 6.76 16.55 16.41 24.54 24.13q20.35 19.68 40.07 39.99c8.15 8.41 14.88 14.1 25.44 3.49 21.34-21.45 42.04-43.5 63.58-64.74 6.35-6.27 12.44-12.02 6.12-20.97q-1.14-1.61-.93-3.34 5.73-14.7-7.98-19.92-3.35-1.27-8.6-1.29-10.28-.03-20.44.04a.7.69 89.6 0 1-.7-.7q.07-20.57 0-41.09-.01-4.79-1.32-7.47c-3.43-7-8.96-7.93-16.87-7.87q-25.71.2-51.44.09-6.18-.03-9.04 1.12c-7.43 2.98-8.5 9.06-8.54 17.06q-.1 18.67-.08 37.5a1.25 1.24-.2 0 1-1.24 1.24q-10.5.06-20.6.09c-6.49.02-11.03 1.03-14.78 5.99q-5.73 7.6-.5 15.11Z"/><path fill="#03305d" d="M412.19 471.44q-13.15 11.99-28.59 27.66-14.13 14.33-43.18 42.53-3.53 3.44-5.59 4.32c-2.91 1.26-8.59 1.48-11.05-.99q-36.8-37-73.72-73.62-5.23-7.51.5-15.11c3.75-4.96 8.29-5.97 14.78-5.99q10.1-.03 20.6-.09a1.25 1.24-.2 0 0 1.24-1.24q-.02-18.83.08-37.5c.04-8 1.11-14.08 8.54-17.06q2.86-1.15 9.04-1.12 25.73.11 51.44-.09c7.91-.06 13.44.87 16.87 7.87q1.31 2.68 1.32 7.47.07 20.52 0 41.09a.7.69 89.6 0 0 .7.7q10.16-.07 20.44-.04 5.25.02 8.6 1.29 13.71 5.22 7.98 19.92Zm-96.18-55.73-4.96.01a.6.59-.5 0 0-.59.59l-.1 33.01q-.16 6.49-.38 13.65c-.26 8.24-5.34 8.89-12.54 8.94l-14.12.08a.48.48 0 0 0-.34.81l47.55 48.5a.77.74 59 0 0 .74.2q.63-.18 1.03-.87L379 472.4a.42.41-38.6 0 0 .06-.5q-.18-.3-.56-.29-9.37.08-18.75.29c-5.37.13-8.03-5.82-7.97-10.41q.3-22.64.44-45.4.01-.55-.54-.55l-20.47-.01-15.2.18Z"/><path fill="#7ae7fd" d="M331.21 415.53q-.15 45.85.23 91.59c.04 4.53.48 8.99.86 13.51q-.4.69-1.03.87a.77.74 59 0 1-.74-.2l-47.55-48.5a.48.48 0 0 1 .34-.81l14.12-.08c7.2-.05 12.28-.7 12.54-8.94q.22-7.16.38-13.65 1.06 1.41 4.76.72.67-.13.68-.82l.21-33.51 15.2-.18Z"/><path fill="#1abef7" d="m331.21 415.53 20.47.01q.55 0 .54.55-.14 22.76-.44 45.4c-.06 4.59 2.6 10.54 7.97 10.41q9.38-.21 18.75-.29.38-.01.56.29a.42.41-38.6 0 1-.06.5l-46.7 48.23c-.38-4.52-.82-8.98-.86-13.51q-.38-45.74-.23-91.59Z"/><path fill="#fff" d="m316.01 415.71-.21 33.51q-.01.69-.68.82-3.7.69-4.76-.72l.1-33.01a.6.59-.5 0 1 .59-.59l4.96-.01Z"/><path fill="#c7f3fe" d="M250.06 471.34q36.92 36.62 73.72 73.62c2.46 2.47 8.14 2.25 11.05.99q2.06-.88 5.59-4.32 29.05-28.2 43.18-42.53 15.44-15.67 28.59-27.66-.21 1.73.93 3.34c6.32 8.95.23 14.7-6.12 20.97-21.54 21.24-42.24 43.29-63.58 64.74-10.56 10.61-17.29 4.92-25.44-3.49q-19.72-20.31-40.07-39.99c-7.99-7.72-17.02-17.37-24.54-24.13-3.33-3-8.07-8.16-6.32-12.54q1.8-4.51 3.01-9Z"/><path fill="#f2fbff" d="M338.66 583.31c.57 1.74 2.56 2.46 3.68 3.71 4.01 4.47 8.32 8.8 11.5 13.92q1.72 2.79 4.69 2.62.5-.02.91.27.77.55.36 1.25-81.61.22-163.21.08-8.47-.02-13.02-1.38-13.69-4.11-21.44-17.63 1.42-.35 2.19-1.28.31-.37.75-.53 1.87-.69 2.68-.68 13.37.12 26.75.29c3.28.04 8-1.02 12.02-1q52.3.26 104.59.33c6.32.01 18.38-.27 27.55.03Z"/></svg>
